<svg width="100" height="100" viewBox="0 0 100 100" fill="none" xmlns="http://www.w3.org/2000/svg">
<rect width="100" height="100" fill="white"/>
<path d="M17.8052 15.014C17.8151 15.3788 17.9166 15.8573 17.9936 16.2995C20.1118 18.3705 21.3434 21.7457 21.6575 26.3516C21.8841 29.6763 21.1376 32.6278 19.4386 35.1343C20.6701 34.3948 21.8037 33.621 22.4467 33.2266C23.7858 32.4768 25.1349 32.2969 26.4712 32.4811C27.2953 30.8559 27.8645 29.0311 28.039 26.991C28.082 26.488 28.1072 26.0002 28.1153 25.5268C25.0207 24.44 23.1551 20.5322 21.4133 17.0902C20.882 16.2545 20.2576 15.5564 19.5172 15.0522C19.0764 15.0122 18.686 14.9995 18.3698 14.9995C18.1389 14.9995 17.9476 15.0062 17.8052 15.014Z" fill="url(#paint0_linear_813_356)"/>
<path d="M14 35.8361C14.0689 37.359 15.5546 37.1049 17.2994 36.2937C17.717 35.8673 18.1084 35.4139 18.4668 34.9311C20.2411 32.5414 21.0283 29.6825 20.8068 26.434C20.5433 22.5682 19.6111 19.6467 18.0309 17.7191C17.6921 23.9036 17.1615 30.7233 14 35.8361Z" fill="url(#paint1_linear_813_356)"/>
<path d="M36.6662 24.9223C36.584 25.8602 36.395 26.8396 36.099 27.8583C35.265 30.7257 33.7676 33.5498 31.6479 36.2523C31.3313 36.6561 31.0009 37.0575 30.6565 37.4555C30.6847 37.5045 30.713 37.5535 30.7404 37.6028C31.6266 38.457 32.4504 39.6689 33.2803 40.792C36.3843 37.1999 39.9002 32.6977 42.5749 28.0558C43.505 26.441 43.9275 24.8394 43.8387 23.2775C41.5066 24.0249 39.0644 24.4574 36.6662 24.9223Z" fill="url(#paint2_linear_813_356)"/>
<path d="M29.4051 23.6615C28.0794 25.1281 31.0606 24.8193 31.157 25.6783C30.3652 25.8474 29.6378 25.8613 28.9645 25.7473C28.9528 26.1852 28.9279 26.6338 28.8885 27.0941C28.7214 29.0456 28.2175 30.907 27.384 32.661C28.3332 32.9033 29.2738 33.3074 30.1973 33.7998C27.863 33.9925 28.9895 35.0033 30.1297 36.6372C32.3125 34.0899 34.2758 31.021 35.2919 27.5267C35.5371 26.684 35.7021 25.8731 35.7879 25.0949C35.5587 25.1408 35.33 25.1874 35.1021 25.2352C34.0242 25.854 33.0816 25.0982 32.1978 24.342C31.5421 23.7813 30.9187 23.2208 30.296 23.2208C30 23.2208 29.7042 23.3475 29.4051 23.6615Z" fill="url(#paint3_linear_813_356)"/>
<path d="M52.8001 23.6253C52.8909 25.7903 52.094 27.7273 50.4319 29.3824C47.3576 32.4439 44.6364 35.9356 42.3872 39.2031C43.4585 39.482 44.9151 39.871 46.9443 40.3407C46.8761 40.4768 46.8314 40.6752 46.8067 40.9175C47.6814 39.07 48.695 37.3653 49.8352 35.8285C51.8951 33.0513 54.374 30.8167 57.2031 29.1867C58.8985 28.2097 59.878 26.832 60.1143 25.0925C60.3081 23.6658 60.0082 22.1063 59.4647 20.5858C54.9903 20.5952 53.686 20.5114 51.2618 18.7314C52.107 20.2416 52.7284 21.913 52.8001 23.6253Z" fill="url(#paint4_linear_813_356)"/>
<path d="M69.1214 26.5635C68.5227 28.6605 67.0437 30.0806 64.7259 30.7844C59.7766 32.2877 56.3487 35.4847 54.4961 40.3081C56.395 40.2642 58.2904 40.1424 60.1751 39.9028C60.4452 38.8926 60.796 37.9561 61.2281 37.1044C63.1815 33.2528 66.7423 31.0097 71.8111 30.4375C74.2381 30.1634 75.8537 29.0915 76.6132 27.2507C77.2096 25.8052 77.2574 24.0029 77.0054 22.1336C74.4996 21.6854 71.7338 21.3611 69.0296 21.1204C69.4643 23.0111 69.5927 24.913 69.1214 26.5635Z" fill="url(#paint5_linear_813_356)"/>
<path d="M44.3046 21.1271C44.3557 21.2892 44.4028 21.4535 44.445 21.6198C44.5221 21.9229 44.5813 22.2272 44.6243 22.5324C45.1231 22.4961 45.7157 22.3802 46.0748 22.4362C45.615 22.6391 45.148 22.8236 44.6759 22.9933C44.8334 24.8519 44.3659 26.7421 43.2783 28.6297C40.5624 33.3433 36.9955 37.909 33.8523 41.5447C34.4386 42.2866 35.0353 42.9342 35.6668 43.3325C39.7277 39.1328 38.2789 38.1961 41.4503 38.9649C43.7819 35.5389 46.638 31.8356 49.8837 28.6037C51.3291 27.164 52.0235 25.5065 51.9472 23.6769C51.8429 21.1716 50.3517 18.6817 48.8103 16.7541C48.3708 16.3836 47.8937 15.9783 47.3672 15.5327C47.359 15.5324 47.3506 15.5324 47.3425 15.5324C45.8396 15.5321 45.5183 19.6112 44.3046 21.1271Z" fill="url(#paint6_linear_813_356)"/>
<path d="M79.0731 32.1004C73.7835 31.9531 70.2351 33.575 68.5287 36.9172C67.9099 38.1298 67.567 39.5084 67.4172 40.9481C68.4275 42.651 69.482 44.3167 70.3002 41.5225C71.3349 38.0354 69.8287 37.1214 73.6179 36.2294C77.5475 34.5108 80.4374 32.9836 82.4638 31.6256C81.4927 31.9767 80.3616 32.1361 79.0731 32.1004Z" fill="url(#paint7_linear_813_356)"/>
<path d="M77.38 27.697C76.4809 29.8763 74.6346 31.1384 71.8918 31.4482C67.1083 31.9878 63.767 34.0666 61.9604 37.6257C61.6119 38.3126 61.3322 39.0337 61.1101 39.7735C62.6634 39.5427 64.2085 39.2279 65.7417 38.8053C66.0424 38.8836 66.3687 39.2738 66.7085 39.7871C66.9265 38.524 67.2899 37.388 67.7984 36.3916C69.6744 32.7155 73.4728 30.9303 79.0926 31.0855C79.2034 31.0882 79.3136 31.0897 79.4217 31.0897C82.1399 31.09 84.0187 30.1258 85.0096 28.2215C85.4255 27.4215 85.6742 26.4911 85.7958 25.4851C84.5772 24.0369 81.5729 23.0212 77.889 22.2989C78.1136 24.2417 78.0256 26.1311 77.38 27.697Z" fill="url(#paint8_linear_813_356)"/>
<path d="M60.3858 20.5823C60.8957 22.14 61.1613 23.7448 60.9565 25.2523C60.6734 27.3387 59.5357 28.9696 57.575 30.0993C51.851 33.3971 48.6393 38.7035 46.8943 42.8948C47.2173 45.3093 48.1762 48.1985 48.8604 46.6005C50.3857 45.015 50.6273 41.138 51.8159 40.3223C52.3986 40.3286 52.981 40.3296 53.5635 40.3235C54.1948 38.578 55.0199 37.0115 56.0329 35.6429C58.1035 32.8469 60.9568 30.8812 64.5146 29.8008C66.5348 29.1874 67.8129 27.9881 68.3132 26.2377C68.7519 24.7018 68.5846 22.8725 68.1219 21.0417C65.5279 20.8267 63.0251 20.6851 60.9029 20.5811C60.7256 20.5814 60.5544 20.5817 60.3858 20.5823Z" fill="url(#paint9_linear_813_356)"/>
<path d="M65.0116 50.0009C64.5953 50.0009 64.2578 50.402 64.2578 50.8973V58.4526C66.3395 55.6126 68.6522 52.7265 71.1589 50.0009H65.0116Z" fill="url(#paint10_linear_813_356)"/>
<path d="M64.2559 60.6129V69.0417C64.2559 69.5396 64.5947 69.9419 65.0128 69.9419H67.1017C67.2943 69.3708 67.5019 68.7908 67.7274 68.2025C68.0185 67.4366 68.324 66.6836 68.6479 65.9437H68.0804V55.5584C66.7268 57.242 65.4496 58.9423 64.2559 60.6129Z" fill="url(#paint11_linear_813_356)"/>
<path d="M72.9344 50.0031C71.6975 51.297 70.5075 52.6382 69.365 53.9969H72.2103V59.354C72.3741 59.1072 72.5414 58.8606 72.7087 58.6182L75.6815 53.9969H76.4932C77.9305 52.504 79.4804 51.1714 81.1288 50.0031H72.9344Z" fill="url(#paint12_linear_813_356)"/>
<path d="M71.9189 65.9437H69.9941C69.5538 66.9086 69.1646 67.8475 68.826 68.7346C68.6696 69.1414 68.5242 69.5437 68.386 69.9419H77.0678C77.1295 69.5523 77.1988 69.1585 77.2786 68.7647C77.4681 67.7954 77.69 66.8524 77.9521 65.9437H75.3685V60.5263L71.9189 65.9437Z" fill="url(#paint13_linear_813_356)"/>
<path d="M78.3562 53.9962H79.5022V61.6943C80.2263 60.1104 81.0777 58.6566 82.0566 57.337C82.4569 56.796 82.8827 56.2766 83.3264 55.7791V50.8979C83.3264 50.6602 83.2501 50.4438 83.1191 50.2839C81.3544 51.4001 79.7714 52.655 78.3562 53.9962Z" fill="url(#paint14_linear_813_356)"/>
<path d="M79.5021 64.9788C79.3964 65.2945 79.2948 65.6147 79.1966 65.9437C78.9055 66.9302 78.6507 67.9642 78.4431 69.0373C78.3815 69.3403 78.3305 69.6433 78.2795 69.9419H82.5696C82.988 69.9419 83.3263 69.5396 83.3263 69.0417V57.7395C81.7036 59.7905 80.43 62.2051 79.5021 64.9788Z" fill="url(#paint15_linear_813_356)"/>
<path d="M23.699 64.2773H21.7523V62.3345H23.699C24.274 62.3345 24.5614 62.6502 24.5614 63.2864C24.5614 63.9486 24.274 64.2773 23.699 64.2773ZM21.7523 57.7348H23.2369C23.8119 57.7348 24.0992 58.0463 24.0992 58.6736C24.0992 59.2752 23.8119 59.5738 23.2369 59.5738H21.7523V57.7348ZM27.6396 61.811C27.3303 61.3221 26.8866 60.954 26.3007 60.7075C26.7263 60.4219 27.0574 60.0583 27.2903 59.6084C27.5232 59.1626 27.6396 58.6435 27.6396 58.0549C27.6396 57.0294 27.2831 56.2333 26.5771 55.6663C25.8677 55.0996 24.8671 54.8182 23.5789 54.8182H18.303V67.1938H23.8628C25.2092 67.1938 26.2535 66.8737 26.992 66.229C27.7306 65.5884 28.0982 64.7142 28.0982 63.6065C28.0982 62.8971 27.9453 62.2999 27.6396 61.811Z" fill="#252321"/>
<path d="M39.7128 54.8185H36.0524L33.84 59.4313H32.7666V54.8185H29.2588V67.1938H32.7666V62.7197H33.749L35.7429 67.1938H39.6981L36.6199 60.829L39.7128 54.8185Z" fill="#252321"/>
<path d="M47.7403 54.8188L45.6007 60.0329L43.534 54.8188H39.8298L43.8142 63.551C43.6469 63.802 43.4721 63.9793 43.2867 64.0831C43.1047 64.1913 42.8827 64.2433 42.6244 64.2433C42.3478 64.2433 41.9913 64.1697 41.5545 64.0311L40.7394 67.0342C41.42 67.3674 42.0967 67.5317 42.7589 67.5317C43.6213 67.5317 44.411 67.2417 45.1314 66.6665C45.8481 66.0865 46.4559 65.2428 46.9508 64.1351L51.1315 54.8188H47.7403Z" fill="#252321"/>
<path d="M57.1205 64.1C56.3892 64.1 55.7998 63.8189 55.3521 63.2605C54.9081 62.7024 54.6826 61.9494 54.6826 61.0061C54.6826 60.0628 54.9081 59.3099 55.3521 58.7518C55.7998 58.1936 56.3892 57.9122 57.1205 57.9122C57.9938 57.9122 58.7507 58.397 59.3983 59.3619L61.6107 57.0124C61.0976 56.2074 60.4426 55.5972 59.6494 55.1733C58.8561 54.7491 57.9538 54.5372 56.9423 54.5372C55.8433 54.5372 54.8537 54.8097 53.9694 55.3593C53.089 55.9047 52.3974 56.6703 51.8955 57.6571C51.3968 58.6391 51.1458 59.7557 51.1458 61.0061C51.1458 62.2566 51.3968 63.3731 51.8955 64.3554C52.3974 65.3419 53.089 66.1078 53.9694 66.6574C54.8537 67.2025 55.8433 67.4795 56.9423 67.4795C57.9538 67.4795 58.8561 67.2675 59.6494 66.8392C60.4426 66.415 61.0976 65.8048 61.6107 65.0043L59.3983 62.6503C58.7507 63.6155 57.9938 64.1 57.1205 64.1Z" fill="#252321"/>
<path d="M19.6713 72.3435L19.5365 77.1683C19.5074 78.1246 19.4565 78.8946 19.3874 79.4877C19.3183 80.0759 19.1873 80.5477 18.9943 80.898C18.8017 81.2531 18.5216 81.4304 18.1539 81.4304C18.0229 81.4304 17.8956 81.413 17.7683 81.3784L17.5898 84.7188C18.1139 84.8705 18.6088 84.9482 19.0744 84.9482C19.9952 84.9482 20.7046 84.6325 21.1996 84.0008C21.698 83.3732 22.0438 82.4905 22.2401 81.3613C22.4402 80.2276 22.5603 78.7779 22.6003 77.008L22.6294 75.5758H25.0091V84.7188H28.455V72.3435H19.6713Z" fill="#252321"/>
<path d="M37.6135 80.1667C37.4062 80.6296 37.1261 80.9932 36.7765 81.2442C36.4235 81.4993 36.0308 81.625 35.594 81.625C35.1575 81.625 34.7645 81.4993 34.4115 81.2442C34.0585 80.9932 33.7784 80.6296 33.571 80.1667C33.3635 79.6993 33.2581 79.1542 33.2581 78.5311C33.2581 77.9038 33.3635 77.3628 33.571 76.8954C33.7784 76.4281 34.0585 76.0689 34.4115 75.8179C34.7645 75.5628 35.1575 75.4372 35.594 75.4372C36.0308 75.4372 36.4235 75.5628 36.7765 75.8179C37.1261 76.0689 37.4062 76.4281 37.6135 76.8954C37.8246 77.3628 37.9265 77.9038 37.9265 78.5311C37.9265 79.1542 37.8246 79.6993 37.6135 80.1667ZM40.7064 75.1992C40.2006 74.2127 39.502 73.4423 38.6106 72.8887C37.7189 72.3347 36.7149 72.0577 35.594 72.0577C34.4734 72.0577 33.4654 72.3347 32.574 72.8887C31.6825 73.4423 30.9838 74.2127 30.4781 75.1992C29.9723 76.1815 29.7212 77.2936 29.7212 78.5311C29.7212 79.7685 29.9723 80.8806 30.4781 81.8629C30.9838 82.8494 31.6825 83.6153 32.574 84.1693C33.4654 84.723 34.4734 85 35.594 85C36.7149 85 37.7189 84.723 38.6106 84.1693C39.502 83.6153 40.2006 82.8494 40.7064 81.8629C41.212 80.8806 41.4668 79.7685 41.4668 78.5311C41.4668 77.2936 41.212 76.1815 40.7064 75.1992Z" fill="#252321"/>
<path d="M48.14 81.625C47.4087 81.625 46.8193 81.3439 46.3716 80.7854C45.9276 80.2229 45.7022 79.4744 45.7022 78.5311C45.7022 77.5878 45.9276 76.8348 46.3716 76.2767C46.8193 75.7186 47.4087 75.4372 48.14 75.4372C49.0133 75.4372 49.7703 75.922 50.4178 76.8869L52.6302 74.5329C52.1172 73.7323 51.4621 73.1222 50.6689 72.6938C49.8757 72.2699 48.9733 72.0577 47.9618 72.0577C46.8628 72.0577 45.8732 72.3347 44.989 72.8798C44.1085 73.4293 43.4169 74.1953 42.9148 75.182C42.4164 76.1641 42.1653 77.2806 42.1653 78.5311C42.1653 79.7815 42.4164 80.8981 42.9148 81.8804C43.4169 82.8668 44.1085 83.6328 44.989 84.1779C45.8732 84.7274 46.8628 85 47.9618 85C48.9733 85 49.8757 84.788 50.6689 84.3641C51.4621 83.9399 52.1172 83.3298 52.6302 82.5251L50.4178 80.1753C49.7703 81.1405 49.0133 81.625 48.14 81.625Z" fill="#252321"/>
<path d="M60.7808 80.1667C60.5698 80.6296 60.2896 80.9932 59.9404 81.2442C59.5874 81.4993 59.1943 81.625 58.7578 81.625C58.3211 81.625 57.928 81.4993 57.5751 81.2442C57.2221 80.9932 56.9419 80.6296 56.7346 80.1667C56.5273 79.6993 56.4216 79.1542 56.4216 78.5311C56.4216 77.9038 56.5273 77.3628 56.7346 76.8954C56.9419 76.4281 57.2221 76.0689 57.5751 75.8179C57.928 75.5628 58.3211 75.4372 58.7578 75.4372C59.1943 75.4372 59.5874 75.5628 59.9404 75.8179C60.2896 76.0689 60.5698 76.4281 60.7808 76.8954C60.9881 77.3628 61.0901 77.9038 61.0901 78.5311C61.0901 79.1542 60.9881 79.6993 60.7808 80.1667ZM63.87 75.1992C63.3644 74.2127 62.6656 73.4423 61.7742 72.8887C60.8827 72.3347 59.8785 72.0577 58.7578 72.0577C57.637 72.0577 56.6327 72.3347 55.7375 72.8887C54.8461 73.4423 54.1476 74.2127 53.6417 75.1992C53.1361 76.1815 52.885 77.2936 52.885 78.5311C52.885 79.7685 53.1361 80.8806 53.6417 81.8629C54.1476 82.8494 54.8461 83.6153 55.7375 84.1693C56.6327 84.723 57.637 85 58.7578 85C59.8785 85 60.8827 84.723 61.7742 84.1693C62.6656 83.6153 63.3644 82.8494 63.87 81.8629C64.3759 80.8806 64.6307 79.7685 64.6307 78.5311C64.6307 77.2936 64.3759 76.1815 63.87 75.1992Z" fill="#252321"/>
<path d="M71.3041 81.625C70.5728 81.625 69.9834 81.3439 69.5357 80.7854C69.0917 80.2229 68.8662 79.4744 68.8662 78.5311C68.8662 77.5878 69.0917 76.8348 69.5357 76.2767C69.9834 75.7186 70.5728 75.4372 71.3041 75.4372C72.1774 75.4372 72.9378 75.922 73.5819 76.8869L75.7943 74.5329C75.2812 73.7323 74.6262 73.1222 73.833 72.6938C73.0397 72.2699 72.1374 72.0577 71.1259 72.0577C70.0269 72.0577 69.0373 72.3347 68.153 72.8798C67.2725 73.4293 66.581 74.1953 66.0791 75.182C65.5804 76.1641 65.3293 77.2806 65.3293 78.5311C65.3293 79.7815 65.5804 80.8981 66.0791 81.8804C66.581 82.8668 67.2725 83.6328 68.153 84.1779C69.0373 84.7274 70.0269 85 71.1259 85C72.1374 85 73.0397 84.788 73.833 84.3641C74.6262 83.9399 75.2812 83.3298 75.7943 82.5251L73.5819 80.1753C72.9378 81.1405 72.1774 81.625 71.3041 81.625Z" fill="#252321"/>
<path d="M82.6495 81.4038C82.4204 81.6678 82.1293 81.802 81.7725 81.802H80.3027V79.0584H81.7725C82.5842 79.0584 82.9916 79.4741 82.9916 80.2962C82.9916 80.7677 82.8787 81.1398 82.6495 81.4038ZM85.4586 77.1762C84.7563 76.4884 83.7558 76.1422 82.4566 76.1422H80.3027V72.3429H76.853V84.7183H82.0092C83.41 84.7183 84.509 84.3334 85.3131 83.5586C86.1136 82.7885 86.5175 81.6764 86.5175 80.227C86.5175 78.8855 86.1645 77.8686 85.4586 77.1762Z" fill="#252321"/>
<defs>
<linearGradient id="paint0_linear_813_356" x1="23.5505" y1="21.754" x2="41.5785" y2="3.7593" gradientUnits="userSpaceOnUse">
<stop stop-color="#E94F2F"/>
<stop offset="1" stop-color="#F4983C"/>
</linearGradient>
<linearGradient id="paint1_linear_813_356" x1="22.3447" y1="20.5463" x2="40.3727" y2="2.55161" gradientUnits="userSpaceOnUse">
<stop stop-color="#E94F2F"/>
<stop offset="1" stop-color="#F4983C"/>
</linearGradient>
<linearGradient id="paint2_linear_813_356" x1="35.0085" y1="33.2328" x2="53.0365" y2="15.2381" gradientUnits="userSpaceOnUse">
<stop stop-color="#E94F2F"/>
<stop offset="1" stop-color="#F4983C"/>
</linearGradient>
<linearGradient id="paint3_linear_813_356" x1="30.7074" y1="28.9239" x2="48.7354" y2="10.9293" gradientUnits="userSpaceOnUse">
<stop stop-color="#E94F2F"/>
<stop offset="1" stop-color="#F4983C"/>
</linearGradient>
<linearGradient id="paint4_linear_813_356" x1="42.63" y1="40.8694" x2="60.658" y2="22.8748" gradientUnits="userSpaceOnUse">
<stop stop-color="#E94F2F"/>
<stop offset="1" stop-color="#F4983C"/>
</linearGradient>
<linearGradient id="paint5_linear_813_356" x1="52.9501" y1="51.2086" x2="70.9781" y2="33.2139" gradientUnits="userSpaceOnUse">
<stop stop-color="#E94F2F"/>
<stop offset="1" stop-color="#F4983C"/>
</linearGradient>
<linearGradient id="paint6_linear_813_356" x1="38.2445" y1="36.4758" x2="56.2725" y2="18.4811" gradientUnits="userSpaceOnUse">
<stop stop-color="#E94F2F"/>
<stop offset="1" stop-color="#F4983C"/>
</linearGradient>
<linearGradient id="paint7_linear_813_356" x1="59.0877" y1="57.3574" x2="77.1157" y2="39.3628" gradientUnits="userSpaceOnUse">
<stop stop-color="#E94F2F"/>
<stop offset="1" stop-color="#F4983C"/>
</linearGradient>
<linearGradient id="paint8_linear_813_356" x1="57.3589" y1="55.6254" x2="75.3868" y2="37.6307" gradientUnits="userSpaceOnUse">
<stop stop-color="#E94F2F"/>
<stop offset="1" stop-color="#F4983C"/>
</linearGradient>
<linearGradient id="paint9_linear_813_356" x1="48.202" y1="46.4513" x2="66.2299" y2="28.4566" gradientUnits="userSpaceOnUse">
<stop stop-color="#E94F2F"/>
<stop offset="1" stop-color="#F4983C"/>
</linearGradient>
<linearGradient id="paint10_linear_813_356" x1="66.4555" y1="53.037" x2="84.1145" y2="64.8953" gradientUnits="userSpaceOnUse">
<stop stop-color="#E94F2F"/>
<stop offset="1" stop-color="#F4983C"/>
</linearGradient>
<linearGradient id="paint11_linear_813_356" x1="62.5697" y1="59.0996" x2="79.0814" y2="70.1875" gradientUnits="userSpaceOnUse">
<stop stop-color="#E94F2F"/>
<stop offset="1" stop-color="#F4983C"/>
</linearGradient>
<linearGradient id="paint12_linear_813_356" x1="70.2849" y1="48.6152" x2="86.7454" y2="59.6687" gradientUnits="userSpaceOnUse">
<stop stop-color="#E94F2F"/>
<stop offset="1" stop-color="#F4983C"/>
</linearGradient>
<linearGradient id="paint13_linear_813_356" x1="64.4356" y1="58.1672" x2="80.9487" y2="69.256" gradientUnits="userSpaceOnUse">
<stop stop-color="#E94F2F"/>
<stop offset="1" stop-color="#F4983C"/>
</linearGradient>
<linearGradient id="paint14_linear_813_356" x1="74.4293" y1="49.4541" x2="85.1161" y2="56.6305" gradientUnits="userSpaceOnUse">
<stop stop-color="#E94F2F"/>
<stop offset="1" stop-color="#F4983C"/>
</linearGradient>
<linearGradient id="paint15_linear_813_356" x1="67.6094" y1="51.3114" x2="85.2723" y2="63.1724" gradientUnits="userSpaceOnUse">
<stop stop-color="#E94F2F"/>
<stop offset="1" stop-color="#F4983C"/>
</linearGradient>
</defs>
</svg>
