<svg width="109" height="48" viewBox="0 0 109 48" fill="none" xmlns="http://www.w3.org/2000/svg">
<path d="M6.55078 0.0215683C6.5656 0.56657 6.71723 1.28149 6.83237 1.94218C9.99713 5.0364 11.8372 10.0793 12.3065 16.9609C12.6451 21.9283 11.5297 26.338 8.99123 30.083C10.8313 28.9781 12.525 27.8221 13.4857 27.2328C15.4864 26.1125 17.502 25.8436 19.4986 26.1189C20.7299 23.6908 21.5803 20.9644 21.841 17.9163C21.9053 17.1647 21.9429 16.4358 21.955 15.7286C17.3314 14.1049 14.544 8.2662 11.9417 3.12348C11.1478 1.87485 10.2149 0.831844 9.10865 0.0785122C8.45009 0.0188599 7.86677 -0.000123978 7.39441 -0.000123978C7.04936 -0.000123978 6.76359 0.00981903 6.55078 0.0215683Z" fill="url(#paint0_linear_733_1764)"/>
<path d="M0.865234 31.1311C0.968218 33.4064 3.18789 33.0268 5.79479 31.8148C6.41877 31.1776 7.00361 30.5002 7.53905 29.7789C10.19 26.2084 11.3662 21.937 11.0352 17.0835C10.6415 11.3076 9.24873 6.94264 6.8877 4.06263C6.38152 13.3028 5.58881 23.492 0.865234 31.1311Z" fill="url(#paint1_linear_733_1764)"/>
<path d="M34.7309 14.8254C34.6082 16.2267 34.3258 17.69 33.8835 19.212C32.6374 23.4961 30.4003 27.7156 27.2333 31.7534C26.7601 32.3567 26.2665 32.9564 25.752 33.5511C25.7941 33.6243 25.8363 33.6975 25.8774 33.7712C27.2013 35.0474 28.4322 36.8582 29.6722 38.5361C34.3099 33.1693 39.5628 26.4426 43.559 19.5071C44.9488 17.0944 45.58 14.7015 45.4473 12.3679C41.963 13.4846 38.3141 14.1308 34.7309 14.8254Z" fill="url(#paint2_linear_733_1764)"/>
<path d="M23.8809 12.9415C21.9003 15.1328 26.3544 14.6714 26.4985 15.9548C25.3155 16.2074 24.2286 16.2282 23.2227 16.0578C23.2053 16.7122 23.168 17.3824 23.1091 18.0702C22.8594 20.9859 22.1066 23.767 20.8613 26.3876C22.2795 26.7496 23.6848 27.3533 25.0647 28.089C21.5769 28.3769 23.26 29.8872 24.9636 32.3284C28.2249 28.5224 31.1582 23.9373 32.6764 18.7164C33.0427 17.4574 33.2893 16.2458 33.4174 15.0831C33.075 15.1518 32.7334 15.2213 32.3929 15.2927C30.7824 16.2174 29.374 15.088 28.0535 13.9583C27.0738 13.1204 26.1424 12.283 25.2121 12.283C24.7698 12.283 24.3278 12.4724 23.8809 12.9415Z" fill="url(#paint3_linear_733_1764)"/>
<path d="M58.8351 12.8863C58.9708 16.1211 57.7802 19.0151 55.2968 21.488C50.7036 26.0622 46.6378 31.279 43.2773 36.161C44.878 36.5777 47.0543 37.1588 50.0861 37.8606C49.9842 38.064 49.9173 38.3604 49.8805 38.7224C51.1873 35.9622 52.7017 33.4152 54.4053 31.119C57.483 26.9696 61.1867 23.6309 65.4136 21.1956C67.9467 19.7359 69.4102 17.6775 69.7632 15.0785C70.0528 12.9469 69.6047 10.6168 68.7927 8.34509C62.1074 8.35909 60.1587 8.23392 56.5368 5.57444C57.7996 7.83082 58.728 10.3281 58.8351 12.8863Z" fill="url(#paint4_linear_733_1764)"/>
<path d="M83.2207 17.2769C82.3262 20.4099 80.1164 22.5316 76.6533 23.5832C69.2586 25.8292 64.1372 30.6059 61.3691 37.8125C64.2063 37.747 67.0382 37.5649 69.8541 37.2069C70.2577 35.6976 70.7817 34.2985 71.4274 33.0259C74.3459 27.2713 79.6661 23.9199 87.2394 23.0649C90.8655 22.6555 93.2793 21.0539 94.4141 18.3036C95.3052 16.1439 95.3766 13.451 95 10.6582C91.2561 9.98847 87.1239 9.50402 83.0836 9.1443C83.733 11.9692 83.9249 14.8108 83.2207 17.2769Z" fill="url(#paint5_linear_733_1764)"/>
<path d="M46.144 9.15442C46.2204 9.39664 46.2907 9.64202 46.3538 9.89058C46.469 10.3434 46.5575 10.798 46.6217 11.254C47.3669 11.1998 48.2524 11.0267 48.7889 11.1103C48.1019 11.4135 47.4042 11.6892 46.6989 11.9427C46.9341 14.7197 46.2356 17.5436 44.6107 20.364C40.5529 27.4066 35.2236 34.2281 30.5273 39.6601C31.4033 40.7686 32.2948 41.7361 33.2384 42.3313C39.3057 36.0565 37.1411 34.657 41.8795 35.8057C45.3631 30.687 49.6303 25.1538 54.4797 20.3251C56.6393 18.1741 57.6767 15.6976 57.5627 12.964C57.4069 9.22084 55.1789 5.50073 52.876 2.62071C52.2193 2.06712 51.5064 1.46157 50.7198 0.795906C50.7076 0.795456 50.6951 0.795452 50.6829 0.795452C48.4374 0.795002 47.9575 6.88945 46.144 9.15442Z" fill="url(#paint6_linear_733_1764)"/>
<path d="M98.0907 25.5497C90.1875 25.3296 84.886 27.7527 82.3364 32.7463C81.4119 34.558 80.8996 36.6178 80.6758 38.7689C82.1852 41.3131 83.7607 43.8018 84.9832 39.6271C86.5291 34.417 84.2787 33.0514 89.9401 31.7187C95.8114 29.1509 100.129 26.8692 103.157 24.8402C101.706 25.3648 100.016 25.603 98.0907 25.5497Z" fill="url(#paint7_linear_733_1764)"/>
<path d="M95.5607 18.9707C94.2173 22.2267 91.4588 24.1125 87.3608 24.5753C80.2138 25.3815 75.2216 28.4875 72.5223 33.8051C72.0017 34.8314 71.5837 35.9087 71.252 37.0141C73.5727 36.6693 75.8813 36.1988 78.172 35.5675C78.6212 35.6846 79.1087 36.2675 79.6164 37.0344C79.9421 35.1473 80.4852 33.4499 81.2448 31.9613C84.0478 26.4688 89.7229 23.8016 98.1193 24.0335C98.285 24.0375 98.4496 24.0398 98.6111 24.0398C102.672 24.0402 105.479 22.5995 106.96 19.7543C107.581 18.559 107.953 17.169 108.135 15.6659C106.314 13.5022 101.825 11.9847 96.3211 10.9055C96.6567 13.8081 96.5252 16.6312 95.5607 18.9707Z" fill="url(#paint8_linear_733_1764)"/>
<path d="M70.1692 8.34092C70.9311 10.6683 71.3279 13.0661 71.022 15.3184C70.599 18.4357 68.8992 20.8724 65.9697 22.5602C57.4174 27.4874 52.619 35.4157 50.0117 41.6778C50.4943 45.2854 51.927 49.602 52.9492 47.2146C55.2282 44.8457 55.5892 39.0531 57.365 37.8343C58.2356 37.8438 59.1058 37.8452 59.9761 37.8361C60.9193 35.2281 62.152 32.8877 63.6656 30.8428C66.7593 26.6654 71.0223 23.7284 76.338 22.1142C79.3564 21.1977 81.266 19.4059 82.0135 16.7907C82.669 14.4959 82.419 11.7628 81.7277 9.02738C77.852 8.70607 74.1126 8.49457 70.9418 8.33912C70.6769 8.33957 70.4212 8.34002 70.1692 8.34092Z" fill="url(#paint9_linear_733_1764)"/>
<defs>
<linearGradient id="paint0_linear_733_1764" x1="15.1348" y1="10.0916" x2="42.0702" y2="-16.794" gradientUnits="userSpaceOnUse">
<stop stop-color="#E94F2F"/>
<stop offset="1" stop-color="#F4983C"/>
</linearGradient>
<linearGradient id="paint1_linear_733_1764" x1="13.333" y1="8.28666" x2="40.2684" y2="-18.599" gradientUnits="userSpaceOnUse">
<stop stop-color="#E94F2F"/>
<stop offset="1" stop-color="#F4983C"/>
</linearGradient>
<linearGradient id="paint2_linear_733_1764" x1="32.2543" y1="27.242" x2="59.1897" y2="0.35638" gradientUnits="userSpaceOnUse">
<stop stop-color="#E94F2F"/>
<stop offset="1" stop-color="#F4983C"/>
</linearGradient>
<linearGradient id="paint3_linear_733_1764" x1="25.8268" y1="20.804" x2="52.7622" y2="-6.08162" gradientUnits="userSpaceOnUse">
<stop stop-color="#E94F2F"/>
<stop offset="1" stop-color="#F4983C"/>
</linearGradient>
<linearGradient id="paint4_linear_733_1764" x1="43.6401" y1="38.6506" x2="70.5755" y2="11.765" gradientUnits="userSpaceOnUse">
<stop stop-color="#E94F2F"/>
<stop offset="1" stop-color="#F4983C"/>
</linearGradient>
<linearGradient id="paint5_linear_733_1764" x1="59.0593" y1="54.0988" x2="85.9947" y2="27.2131" gradientUnits="userSpaceOnUse">
<stop stop-color="#E94F2F"/>
<stop offset="1" stop-color="#F4983C"/>
</linearGradient>
<linearGradient id="paint6_linear_733_1764" x1="37.0897" y1="32.0867" x2="64.0251" y2="5.20104" gradientUnits="userSpaceOnUse">
<stop stop-color="#E94F2F"/>
<stop offset="1" stop-color="#F4983C"/>
</linearGradient>
<linearGradient id="paint7_linear_733_1764" x1="68.2307" y1="63.2859" x2="95.1661" y2="36.4002" gradientUnits="userSpaceOnUse">
<stop stop-color="#E94F2F"/>
<stop offset="1" stop-color="#F4983C"/>
</linearGradient>
<linearGradient id="paint8_linear_733_1764" x1="65.6473" y1="60.6982" x2="92.5827" y2="33.8126" gradientUnits="userSpaceOnUse">
<stop stop-color="#E94F2F"/>
<stop offset="1" stop-color="#F4983C"/>
</linearGradient>
<linearGradient id="paint9_linear_733_1764" x1="51.9655" y1="46.9916" x2="78.9009" y2="20.1059" gradientUnits="userSpaceOnUse">
<stop stop-color="#E94F2F"/>
<stop offset="1" stop-color="#F4983C"/>
</linearGradient>
</defs>
</svg>
