<svg viewBox="0 0 83 21" fill="none" xmlns="http://www.w3.org/2000/svg">
<path d="M2.18213 1.54742C2.18782 1.75617 2.24601 2.03001 2.2902 2.28308C3.50486 3.46828 4.21107 5.39987 4.3912 8.03579C4.52115 9.93848 4.09308 11.6276 3.11879 13.062C3.825 12.6388 4.47506 12.196 4.84378 11.9703C5.61169 11.5412 6.38529 11.4382 7.15159 11.5436C7.62415 10.6136 7.95057 9.56926 8.05062 8.40172C8.07527 8.11386 8.08971 7.83465 8.09438 7.56375C6.3198 6.94181 5.24998 4.7054 4.25118 2.73556C3.9465 2.25729 3.58843 1.85778 3.16386 1.56923C2.91109 1.54638 2.68721 1.53911 2.50592 1.53911C2.37349 1.53911 2.26381 1.54292 2.18213 1.54742Z" fill="url(#paint0_linear_160_1861)"/>
<path d="M0 13.4634C0.0395259 14.3349 0.891449 14.1895 1.89199 13.7253C2.13148 13.4812 2.35595 13.2217 2.56145 12.9455C3.57891 11.5778 4.03032 9.9417 3.90329 8.08264C3.75218 5.87028 3.21764 4.19834 2.31146 3.09519C2.11718 6.63451 1.81294 10.5373 0 13.4634Z" fill="url(#paint1_linear_160_1861)"/>
<path d="M12.9975 7.21774C12.9503 7.75452 12.842 8.31501 12.6722 8.898C12.194 10.539 11.3353 12.1552 10.1198 13.7018C9.93822 13.9329 9.74875 14.1626 9.55127 14.3904C9.56746 14.4184 9.58365 14.4465 9.5994 14.4747C10.1076 14.9635 10.58 15.6571 11.0559 16.2998C12.8359 14.2441 14.852 11.6676 16.3857 9.01103C16.9191 8.08687 17.1614 7.17032 17.1105 6.27644C15.7732 6.70417 14.3727 6.95169 12.9975 7.21774Z" fill="url(#paint2_linear_160_1861)"/>
<path d="M8.83399 6.496C8.07381 7.33535 9.78334 7.15862 9.83862 7.65021C9.38458 7.74698 8.96744 7.75494 8.58138 7.68969C8.57467 7.94033 8.56037 8.19703 8.53776 8.46048C8.44194 9.57731 8.15301 10.6426 7.67505 11.6463C8.21937 11.785 8.75873 12.0162 9.28832 12.298C7.94969 12.4083 8.59567 12.9868 9.24952 13.9219C10.5012 12.4641 11.6271 10.7078 12.2097 8.70802C12.3503 8.22577 12.445 7.76169 12.4941 7.31631C12.3627 7.34262 12.2316 7.36928 12.1009 7.39663C11.4828 7.75078 10.9423 7.31821 10.4354 6.88547C10.0594 6.56455 9.70195 6.2438 9.34491 6.2438C9.17514 6.2438 9.00551 6.31633 8.83399 6.496Z" fill="url(#paint3_linear_160_1861)"/>
<path d="M22.2495 6.47496C22.3016 7.71399 21.8446 8.8225 20.8915 9.76969C19.1286 11.5218 17.5681 13.52 16.2783 15.39C16.8926 15.5496 17.7279 15.7722 18.8915 16.041C18.8525 16.1189 18.8268 16.2324 18.8126 16.3711C19.3142 15.3138 19.8954 14.3382 20.5493 13.4587C21.7306 11.8694 23.152 10.5905 24.7743 9.65769C25.7466 9.09859 26.3083 8.31013 26.4438 7.31465C26.5549 6.49815 26.3829 5.60566 26.0712 4.7355C23.5054 4.74087 22.7575 4.69292 21.3674 3.67425C21.852 4.53852 22.2084 5.49506 22.2495 6.47496Z" fill="url(#paint4_linear_160_1861)"/>
<path d="M31.6087 8.15658C31.2654 9.35667 30.4172 10.1694 29.0881 10.5722C26.25 11.4324 24.2843 13.2621 23.2219 16.0225C24.3109 15.9974 25.3977 15.9276 26.4785 15.7905C26.6334 15.2124 26.8345 14.6765 27.0823 14.189C28.2025 11.9848 30.2444 10.7011 33.1511 10.3736C34.5428 10.2168 35.4693 9.60333 35.9048 8.54986C36.2468 7.72263 36.2742 6.69114 36.1297 5.6214C34.6927 5.36487 33.1067 5.17931 31.556 5.04153C31.8053 6.12356 31.879 7.21199 31.6087 8.15658Z" fill="url(#paint5_linear_160_1861)"/>
<path d="M17.3781 5.0455C17.4074 5.13828 17.4344 5.23227 17.4586 5.32747C17.5028 5.50091 17.5367 5.67505 17.5614 5.84971C17.8474 5.82893 18.1872 5.76264 18.3932 5.79466C18.1295 5.91081 17.8617 6.0164 17.591 6.1135C17.6813 7.17719 17.4132 8.25887 16.7895 9.33917C15.2321 12.0367 13.1867 14.6496 11.3843 16.7302C11.7205 17.1549 12.0626 17.5254 12.4248 17.7534C14.7535 15.35 13.9227 14.8139 15.7413 15.2539C17.0783 13.2932 18.7161 11.1738 20.5773 9.32428C21.4062 8.50034 21.8044 7.55177 21.7606 6.5047C21.7008 5.07094 20.8457 3.64601 19.9618 2.54286C19.7098 2.33081 19.4362 2.09886 19.1343 1.84389C19.1296 1.84372 19.1248 1.84372 19.1201 1.84372C18.2583 1.84354 18.0741 4.17793 17.3781 5.0455Z" fill="url(#paint6_linear_160_1861)"/>
<path d="M37.3158 11.3256C34.2825 11.2413 32.2477 12.1695 31.2692 14.0822C30.9144 14.7761 30.7177 15.5651 30.6318 16.3891C31.2112 17.3636 31.8159 18.3168 32.2851 16.7178C32.8784 14.7221 32.0147 14.199 34.1876 13.6886C36.441 12.705 38.0981 11.8311 39.2601 11.0539C38.7033 11.2548 38.0547 11.346 37.3158 11.3256Z" fill="url(#paint7_linear_160_1861)"/>
<path d="M36.3447 8.80557C35.8291 10.0527 34.7704 10.7751 33.1975 10.9523C30.4545 11.2611 28.5385 12.4508 27.5025 14.4877C27.3027 14.8808 27.1422 15.2934 27.0149 15.7168C27.9056 15.5847 28.7917 15.4046 29.6709 15.1627C29.8432 15.2076 30.0304 15.4309 30.2252 15.7246C30.3502 15.0018 30.5587 14.3516 30.8502 13.7814C31.926 11.6776 34.1042 10.656 37.3268 10.7448C37.3904 10.7463 37.4535 10.7472 37.5155 10.7472C39.0742 10.7474 40.1516 10.1955 40.7199 9.10572C40.9583 8.64788 41.101 8.11543 41.1707 7.53971C40.4719 6.71092 38.7491 6.12966 36.6366 5.71631C36.7654 6.82811 36.7149 7.90945 36.3447 8.80557Z" fill="url(#paint8_linear_160_1861)"/>
<path d="M26.5994 4.73397C26.8918 5.62542 27.0441 6.54387 26.9267 7.40659C26.7643 8.60061 26.1119 9.53395 24.9876 10.1805C21.7052 12.0677 19.8635 15.1046 18.8628 17.5032C19.048 18.885 19.5979 20.5384 19.9902 19.624C20.8649 18.7166 21.0035 16.4978 21.685 16.031C22.0192 16.0346 22.3532 16.0351 22.6872 16.0317C23.0492 15.0327 23.5223 14.1363 24.1033 13.353C25.2906 11.7529 26.9268 10.6279 28.967 10.0096C30.1255 9.65858 30.8584 8.97225 31.1453 7.97054C31.3969 7.09155 31.3009 6.04466 31.0356 4.9969C29.548 4.87383 28.1129 4.79282 26.8959 4.73327C26.7942 4.73345 26.6961 4.73362 26.5994 4.73397Z" fill="url(#paint9_linear_160_1861)"/>
<path d="M70.0746 1.16656C69.8471 1.16656 69.6626 1.38535 69.6626 1.65555V5.77734C70.8005 4.22795 72.0648 2.65346 73.4351 1.16656H70.0746Z" fill="url(#paint10_linear_160_1861)"/>
<path d="M69.6614 6.95601V11.5543C69.6614 11.8259 69.8466 12.0454 70.0752 12.0454H71.217C71.3223 11.7338 71.4358 11.4174 71.5591 11.0965C71.7182 10.6786 71.8852 10.2679 72.0622 9.86422H71.752V4.19857C71.0121 5.11702 70.3139 6.04465 69.6614 6.95601Z" fill="url(#paint11_linear_160_1861)"/>
<path d="M74.4058 1.1677C73.7296 1.87359 73.0791 2.60527 72.4546 3.34647H74.01V6.26904C74.0995 6.13437 74.191 5.99988 74.2824 5.86763L75.9075 3.34647H76.3512C77.1369 2.53205 77.9841 1.80504 78.8852 1.1677H74.4058Z" fill="url(#paint12_linear_160_1861)"/>
<path d="M73.8509 9.86422H72.7987C72.5581 10.3906 72.3453 10.9028 72.1602 11.3868C72.0747 11.6087 71.9952 11.8282 71.9197 12.0454H76.6656C76.6992 11.8328 76.7372 11.618 76.7808 11.4032C76.8843 10.8744 77.0057 10.36 77.1489 9.86422H75.7366V6.90875L73.8509 9.86422Z" fill="url(#paint13_linear_160_1861)"/>
<path d="M77.3696 3.34622H77.9961V7.5459C78.3919 6.6818 78.8573 5.88867 79.3925 5.16876C79.6112 4.87363 79.844 4.59027 80.0866 4.31885V1.65593C80.0866 1.52628 80.0448 1.40822 79.9732 1.32098C79.0086 1.92994 78.1432 2.61454 77.3696 3.34622Z" fill="url(#paint14_linear_160_1861)"/>
<path d="M77.9959 9.33782C77.9382 9.51006 77.8826 9.68471 77.8289 9.86422C77.6698 10.4024 77.5305 10.9665 77.417 11.5519C77.3833 11.7172 77.3555 11.8825 77.3276 12.0454H79.6728C79.9015 12.0454 80.0864 11.8259 80.0864 11.5543V5.38844C79.1994 6.50734 78.5032 7.82461 77.9959 9.33782Z" fill="url(#paint15_linear_160_1861)"/>
<path d="M47.4915 8.95528H46.4273V7.8954H47.4915C47.8058 7.8954 47.9628 8.06764 47.9628 8.4147C47.9628 8.77595 47.8058 8.95528 47.4915 8.95528ZM46.4273 5.38602H47.2388C47.5532 5.38602 47.7102 5.556 47.7102 5.89821C47.7102 6.2264 47.5532 6.38929 47.2388 6.38929H46.4273V5.38602ZM49.6455 7.60979C49.4765 7.34305 49.2339 7.14226 48.9137 7.00776C49.1463 6.85197 49.3273 6.65361 49.4546 6.40815C49.582 6.16495 49.6455 5.88177 49.6455 5.56067C49.6455 5.00122 49.4507 4.56692 49.0648 4.2576C48.6769 3.94844 48.13 3.79491 47.4258 3.79491H44.5417V10.5464H47.581C48.317 10.5464 48.8878 10.3717 49.2916 10.02C49.6953 9.67052 49.8963 9.19363 49.8963 8.58935C49.8963 8.20231 49.8127 7.87654 49.6455 7.60979Z" fill="#252321"/>
<path d="M56.2451 3.79508H54.2442L53.0348 6.31157H52.448V3.79508H50.5305V10.5464H52.448V8.10554H52.9851L54.075 10.5464H56.2371L54.5544 7.07406L56.2451 3.79508Z" fill="#252321"/>
<path d="M60.6333 3.79499L59.4637 6.63949L58.3339 3.79499H56.3091L58.4871 8.55879C58.3956 8.69571 58.3001 8.79247 58.1987 8.84908C58.0993 8.9081 57.9779 8.93649 57.8367 8.93649C57.6855 8.93649 57.4906 8.89633 57.2519 8.82069L56.8063 10.4591C57.1784 10.6408 57.5482 10.7305 57.9102 10.7305C58.3816 10.7305 58.8134 10.5723 59.2072 10.2584C59.5989 9.94201 59.9312 9.48175 60.2017 8.87746L62.4871 3.79499H60.6333Z" fill="#252321"/>
<path d="M65.7612 8.85849C65.3614 8.85849 65.0392 8.70513 64.7945 8.40048C64.5518 8.096 64.4285 7.68524 64.4285 7.17062C64.4285 6.656 64.5518 6.24524 64.7945 5.94077C65.0392 5.63629 65.3614 5.48275 65.7612 5.48275C66.2386 5.48275 66.6523 5.74724 67.0063 6.27363L68.2157 4.99185C67.9352 4.5527 67.5772 4.21983 67.1436 3.98858C66.7099 3.75714 66.2167 3.64152 65.6637 3.64152C65.063 3.64152 64.522 3.79021 64.0387 4.09001C63.5574 4.38756 63.1793 4.80525 62.905 5.34358C62.6324 5.87932 62.4951 6.48844 62.4951 7.17062C62.4951 7.8528 62.6324 8.46193 62.905 8.99783C63.1793 9.53599 63.5574 9.95385 64.0387 10.2537C64.522 10.551 65.063 10.7021 65.6637 10.7021C66.2167 10.7021 66.7099 10.5865 67.1436 10.3528C67.5772 10.1214 67.9352 9.78854 68.2157 9.35182L67.0063 8.06761C66.6523 8.59417 66.2386 8.85849 65.7612 8.85849Z" fill="#252321"/>
<path d="M45.2896 13.3555L45.216 15.9876C45.2001 16.5093 45.1722 16.9294 45.1345 17.2529C45.0967 17.5739 45.0251 17.8312 44.9196 18.0223C44.8143 18.216 44.6612 18.3128 44.4602 18.3128C44.3886 18.3128 44.319 18.3033 44.2494 18.2844L44.1519 20.1068C44.4383 20.1895 44.7089 20.2319 44.9634 20.2319C45.4667 20.2319 45.8545 20.0597 46.1251 19.7151C46.3975 19.3727 46.5866 18.8911 46.6939 18.2751C46.8033 17.6566 46.8689 16.8657 46.8908 15.9002L46.9067 15.1188H48.2076V20.1068H50.0912V13.3555H45.2896Z" fill="#252321"/>
<path d="M55.0977 17.6235C54.9844 17.876 54.8313 18.0744 54.6402 18.2113C54.4472 18.3505 54.2326 18.419 53.9938 18.419C53.7552 18.419 53.5403 18.3505 53.3474 18.2113C53.1544 18.0744 53.0013 17.876 52.8879 17.6235C52.7745 17.3685 52.7169 17.0711 52.7169 16.7311C52.7169 16.3889 52.7745 16.0938 52.8879 15.8388C53.0013 15.5839 53.1544 15.3879 53.3474 15.251C53.5403 15.1118 53.7552 15.0433 53.9938 15.0433C54.2326 15.0433 54.4472 15.1118 54.6402 15.251C54.8313 15.3879 54.9844 15.5839 55.0977 15.8388C55.2131 16.0938 55.2688 16.3889 55.2688 16.7311C55.2688 17.0711 55.2131 17.3685 55.0977 17.6235ZM56.7885 14.9135C56.5119 14.3753 56.1301 13.955 55.6428 13.653C55.1554 13.3507 54.6065 13.1996 53.9938 13.1996C53.3812 13.1996 52.8302 13.3507 52.3429 13.653C51.8556 13.955 51.4736 14.3753 51.1972 14.9135C50.9207 15.4494 50.7834 16.0561 50.7834 16.7311C50.7834 17.4062 50.9207 18.0129 51.1972 18.5488C51.4736 19.087 51.8556 19.5049 52.3429 19.8071C52.8302 20.1091 53.3812 20.2603 53.9938 20.2603C54.6065 20.2603 55.1554 20.1091 55.6428 19.8071C56.1301 19.5049 56.5119 19.087 56.7885 18.5488C57.0648 18.0129 57.2041 17.4062 57.2041 16.7311C57.2041 16.0561 57.0648 15.4494 56.7885 14.9135Z" fill="#252321"/>
<path d="M60.852 18.419C60.4522 18.419 60.13 18.2657 59.8853 17.961C59.6426 17.6541 59.5193 17.2458 59.5193 16.7311C59.5193 16.2165 59.6426 15.8058 59.8853 15.5013C60.13 15.1968 60.4522 15.0433 60.852 15.0433C61.3294 15.0433 61.7432 15.3078 62.0971 15.8342L63.3065 14.55C63.0261 14.1132 62.668 13.7804 62.2344 13.5467C61.8008 13.3154 61.3075 13.1996 60.7546 13.1996C60.1538 13.1996 59.6128 13.3507 59.1295 13.6481C58.6482 13.9479 58.2701 14.3658 57.9956 14.9041C57.7232 15.4398 57.5859 16.049 57.5859 16.7311C57.5859 17.4133 57.7232 18.0225 57.9956 18.5584C58.2701 19.0965 58.6482 19.5144 59.1295 19.8118C59.6128 20.1116 60.1538 20.2603 60.7546 20.2603C61.3075 20.2603 61.8008 20.1446 62.2344 19.9134C62.668 19.6819 63.0261 19.3491 63.3065 18.9101L62.0971 17.6281C61.7432 18.1547 61.3294 18.419 60.852 18.419Z" fill="#252321"/>
<path d="M67.762 17.6235C67.6466 17.876 67.4935 18.0744 67.3026 18.2113C67.1096 18.3505 66.8948 18.419 66.6561 18.419C66.4174 18.419 66.2025 18.3505 66.0096 18.2113C65.8166 18.0744 65.6635 17.876 65.5502 17.6235C65.4368 17.3685 65.3791 17.0711 65.3791 16.7311C65.3791 16.3889 65.4368 16.0938 65.5502 15.8388C65.6635 15.5839 65.8166 15.3879 66.0096 15.251C66.2025 15.1118 66.4174 15.0433 66.6561 15.0433C66.8948 15.0433 67.1096 15.1118 67.3026 15.251C67.4935 15.3879 67.6466 15.5839 67.762 15.8388C67.8753 16.0938 67.931 16.3889 67.931 16.7311C67.931 17.0711 67.8753 17.3685 67.762 17.6235ZM69.4507 14.9135C69.1743 14.3753 68.7923 13.955 68.305 13.653C67.8177 13.3507 67.2687 13.1996 66.6561 13.1996C66.0434 13.1996 65.4944 13.3507 65.0051 13.653C64.5178 13.955 64.136 14.3753 63.8594 14.9135C63.583 15.4494 63.4458 16.0561 63.4458 16.7311C63.4458 17.4062 63.583 18.0129 63.8594 18.5488C64.136 19.087 64.5178 19.5049 65.0051 19.8071C65.4944 20.1091 66.0434 20.2603 66.6561 20.2603C67.2687 20.2603 67.8177 20.1091 68.305 19.8071C68.7923 19.5049 69.1743 19.087 69.4507 18.5488C69.7272 18.0129 69.8665 17.4062 69.8665 16.7311C69.8665 16.0561 69.7272 15.4494 69.4507 14.9135Z" fill="#252321"/>
<path d="M73.5141 18.419C73.1143 18.419 72.7921 18.2657 72.5474 17.961C72.3047 17.6541 72.1815 17.2458 72.1815 16.7311C72.1815 16.2165 72.3047 15.8058 72.5474 15.5013C72.7921 15.1968 73.1143 15.0433 73.5141 15.0433C73.9915 15.0433 74.4072 15.3078 74.7592 15.8342L75.9686 14.55C75.6882 14.1132 75.3301 13.7804 74.8965 13.5467C74.4629 13.3154 73.9696 13.1996 73.4167 13.1996C72.8159 13.1996 72.275 13.3507 71.7916 13.6481C71.3103 13.9479 70.9322 14.3658 70.6579 14.9041C70.3853 15.4398 70.248 16.049 70.248 16.7311C70.248 17.4133 70.3853 18.0225 70.6579 18.5584C70.9322 19.0965 71.3103 19.5144 71.7916 19.8118C72.275 20.1116 72.8159 20.2603 73.4167 20.2603C73.9696 20.2603 74.4629 20.1446 74.8965 19.9134C75.3301 19.6819 75.6882 19.3491 75.9686 18.9101L74.7592 17.6281C74.4072 18.1547 73.9915 18.419 73.5141 18.419Z" fill="#252321"/>
<path d="M79.7162 18.2988C79.591 18.4428 79.4318 18.516 79.2368 18.516H78.4333V17.0192H79.2368C79.6805 17.0192 79.9032 17.246 79.9032 17.6945C79.9032 17.9517 79.8415 18.1547 79.7162 18.2988ZM81.2518 15.9924C80.8679 15.6171 80.3209 15.4283 79.6108 15.4283H78.4333V13.3556H76.5476V20.1069H79.3662C80.1319 20.1069 80.7327 19.897 81.1723 19.4743C81.6098 19.0542 81.8307 18.4475 81.8307 17.6567C81.8307 16.9249 81.6377 16.3701 81.2518 15.9924Z" fill="#252321"/>
<defs>
<linearGradient id="paint0_linear_160_1861" x1="5.47673" y1="5.4046" x2="15.794" y2="-4.91429" gradientUnits="userSpaceOnUse">
<stop stop-color="#E94F2F"/>
<stop offset="1" stop-color="#F4983C"/>
</linearGradient>
<linearGradient id="paint1_linear_160_1861" x1="4.78519" y1="4.71315" x2="15.1024" y2="-5.60574" gradientUnits="userSpaceOnUse">
<stop stop-color="#E94F2F"/>
<stop offset="1" stop-color="#F4983C"/>
</linearGradient>
<linearGradient id="paint2_linear_160_1861" x1="12.0469" y1="11.9738" x2="22.3641" y2="1.65487" gradientUnits="userSpaceOnUse">
<stop stop-color="#E94F2F"/>
<stop offset="1" stop-color="#F4983C"/>
</linearGradient>
<linearGradient id="paint3_linear_160_1861" x1="9.58081" y1="9.50764" x2="19.898" y2="-0.811249" gradientUnits="userSpaceOnUse">
<stop stop-color="#E94F2F"/>
<stop offset="1" stop-color="#F4983C"/>
</linearGradient>
<linearGradient id="paint4_linear_160_1861" x1="16.4176" y1="16.3436" x2="26.7348" y2="6.02471" gradientUnits="userSpaceOnUse">
<stop stop-color="#E94F2F"/>
<stop offset="1" stop-color="#F4983C"/>
</linearGradient>
<linearGradient id="paint5_linear_160_1861" x1="22.3354" y1="22.2607" x2="32.6526" y2="11.9418" gradientUnits="userSpaceOnUse">
<stop stop-color="#E94F2F"/>
<stop offset="1" stop-color="#F4983C"/>
</linearGradient>
<linearGradient id="paint6_linear_160_1861" x1="13.903" y1="13.8294" x2="24.2202" y2="3.51048" gradientUnits="userSpaceOnUse">
<stop stop-color="#E94F2F"/>
<stop offset="1" stop-color="#F4983C"/>
</linearGradient>
<linearGradient id="paint7_linear_160_1861" x1="25.8553" y1="25.7799" x2="36.1726" y2="15.461" gradientUnits="userSpaceOnUse">
<stop stop-color="#E94F2F"/>
<stop offset="1" stop-color="#F4983C"/>
</linearGradient>
<linearGradient id="paint8_linear_160_1861" x1="24.8638" y1="24.7887" x2="35.181" y2="14.4698" gradientUnits="userSpaceOnUse">
<stop stop-color="#E94F2F"/>
<stop offset="1" stop-color="#F4983C"/>
</linearGradient>
<linearGradient id="paint9_linear_160_1861" x1="19.6127" y1="19.5385" x2="29.9299" y2="9.21965" gradientUnits="userSpaceOnUse">
<stop stop-color="#E94F2F"/>
<stop offset="1" stop-color="#F4983C"/>
</linearGradient>
<linearGradient id="paint10_linear_160_1861" x1="70.864" y1="2.82285" x2="80.505" y2="9.31002" gradientUnits="userSpaceOnUse">
<stop stop-color="#E94F2F"/>
<stop offset="1" stop-color="#F4983C"/>
</linearGradient>
<linearGradient id="paint11_linear_160_1861" x1="68.7397" y1="6.13044" x2="77.7544" y2="12.1962" gradientUnits="userSpaceOnUse">
<stop stop-color="#E94F2F"/>
<stop offset="1" stop-color="#F4983C"/>
</linearGradient>
<linearGradient id="paint12_linear_160_1861" x1="72.9574" y1="0.410557" x2="81.9442" y2="6.45747" gradientUnits="userSpaceOnUse">
<stop stop-color="#E94F2F"/>
<stop offset="1" stop-color="#F4983C"/>
</linearGradient>
<linearGradient id="paint13_linear_160_1861" x1="69.7602" y1="5.62176" x2="78.7757" y2="11.688" gradientUnits="userSpaceOnUse">
<stop stop-color="#E94F2F"/>
<stop offset="1" stop-color="#F4983C"/>
</linearGradient>
<linearGradient id="paint14_linear_160_1861" x1="75.223" y1="0.868312" x2="81.0576" y2="4.79421" gradientUnits="userSpaceOnUse">
<stop stop-color="#E94F2F"/>
<stop offset="1" stop-color="#F4983C"/>
</linearGradient>
<linearGradient id="paint15_linear_160_1861" x1="71.4949" y1="1.88164" x2="81.1381" y2="8.37026" gradientUnits="userSpaceOnUse">
<stop stop-color="#E94F2F"/>
<stop offset="1" stop-color="#F4983C"/>
</linearGradient>
</defs>
</svg>