<svg width="585" height="212" viewBox="0 0 585 212" fill="none" xmlns="http://www.w3.org/2000/svg">
<mask id="mask0_733_1458" style="mask-type:luminance" maskUnits="userSpaceOnUse" x="338" y="129" width="53" height="7">
<path d="M338.217 129.274H390.882V135.672H338.217V129.274Z" fill="white"/>
</mask>
<g mask="url(#mask0_733_1458)">
<path d="M390.88 132.473C390.88 134.24 379.091 135.672 364.548 135.672C350.006 135.672 338.215 134.24 338.215 132.473C338.215 130.706 350.006 129.274 364.548 129.274C379.091 129.274 390.88 130.706 390.88 132.473Z" fill="#E2E2E2"/>
</g>
<path d="M303.802 58.65C302.866 57.9406 301.909 57.2206 300.8 56.834C299.689 56.4486 298.381 56.446 297.416 57.1166C296.134 58.006 295.74 59.8366 294.409 60.65C293.232 61.3713 291.633 61.0366 290.548 60.1833C289.461 59.3313 288.792 58.062 288.234 56.798C287.808 55.8313 287.397 54.8006 286.581 54.13C286.032 53.678 285.34 53.4313 284.641 53.3046C281.997 52.8286 279.004 54.314 278.176 56.87C277.088 57.3113 276.045 57.9886 275.457 59.006C274.87 60.022 274.852 61.4246 275.642 62.2926C276.756 63.5166 279.028 63.0206 279.834 61.5753C280.64 60.13 280.141 58.21 278.988 57.0233" stroke="#252321" stroke-width="1.33333" stroke-miterlimit="10" stroke-linecap="round" stroke-linejoin="round"/>
<path d="M376.313 100.978C373.401 103.658 370.662 106.525 368.118 109.557C367.618 110.15 367.118 110.769 366.878 111.506C366.466 112.778 366.909 114.175 367.567 115.339C368.701 117.347 370.434 118.935 371.933 120.686C373.431 122.439 374.758 124.522 374.795 126.827C374.825 128.526 374.15 130.149 373.487 131.713C373.255 132.261 373.002 132.837 372.517 133.181C372.066 133.503 371.487 133.573 370.935 133.625C369.606 133.753 367.974 133.694 367.323 132.527C366.798 131.586 367.285 130.303 368.201 129.735C369.115 129.167 370.309 129.213 371.313 129.602C371.966 127.697 372.621 125.791 373.277 123.887" stroke="#252321" stroke-width="1.33333" stroke-miterlimit="10" stroke-linecap="round" stroke-linejoin="round"/>
<path d="M351.586 100.978C354.498 103.658 357.237 106.525 359.781 109.557C360.281 110.15 360.781 110.769 361.019 111.506C361.433 112.778 360.989 114.175 360.331 115.339C359.197 117.347 357.465 118.935 355.966 120.686C354.467 122.439 353.141 124.522 353.102 126.827C353.073 128.526 353.749 130.149 354.411 131.713C354.643 132.261 354.897 132.837 355.381 133.181C355.833 133.503 356.411 133.573 356.962 133.625C358.293 133.753 359.925 133.694 360.575 132.527C361.101 131.586 360.613 130.303 359.698 129.735C358.783 129.167 357.59 129.213 356.586 129.602C355.931 127.697 355.278 125.791 354.622 123.887" stroke="#252321" stroke-width="1.33333" stroke-miterlimit="10" stroke-linecap="round" stroke-linejoin="round"/>
<path d="M303.295 22.7569C301.957 17.2822 305.498 11.5515 310.274 8.55552C315.05 5.55952 320.814 4.68886 326.391 3.88352C338.197 2.17818 350.055 0.468849 361.982 0.575516C369.254 0.639519 376.503 1.37952 383.727 2.22218C398.425 3.93419 413.069 6.07285 427.667 8.47685C435.133 9.70486 443.391 11.4955 447.691 17.7209C450.975 22.4769 451.082 28.6729 450.895 34.4515C450.319 52.2995 448.085 70.0969 444.233 87.5355C443.434 91.1529 442.386 95.0422 439.457 97.3089C437.719 98.6529 435.534 99.2422 433.409 99.7982C425.315 101.916 417.109 103.99 408.743 104.068C392.466 104.221 376.838 96.7009 364.405 86.1942C351.973 75.6875 342.323 62.3235 333.143 48.8809C330.378 44.8302 327.495 40.6195 323.246 38.1702C319.847 36.2089 315.851 35.5475 312.314 33.8488C308.775 32.1515 305.489 28.7689 305.915 24.8675" fill="#252321"/>
<path d="M302.487 83.2726C302.68 86.5512 302.94 89.9326 304.451 92.8499C308.023 99.7512 316.923 101.549 324.655 102.33C349.514 104.841 374.543 104.982 399.526 105.123C401.551 105.134 403.607 105.141 405.556 104.591C409.332 103.525 412.286 100.445 414.063 96.9459C415.839 93.4472 416.591 89.5299 417.247 85.6619C420.192 68.2739 421.571 50.6206 421.359 32.9846C421.334 30.8152 421.279 28.6166 420.674 26.5312C419.216 21.5219 414.774 17.9046 410.05 15.6886C402.782 12.2766 394.604 11.4752 386.611 10.7232C363.45 8.54324 340.054 6.36591 316.988 9.39524C301.234 11.4646 302.988 25.3579 302.33 38.0846C301.55 53.1339 301.602 68.2286 302.487 83.2726Z" fill="#FEFEFE"/>
<path d="M372.477 45.7777C371.847 45.195 370.994 44.919 370.153 44.755C368.203 44.3723 366.195 44.4963 364.213 44.6217C355.614 45.1657 346.902 45.7297 338.719 48.4297C338.345 48.5537 337.954 48.6923 337.689 48.983C337.347 49.3577 337.282 49.9003 337.249 50.4057C337.119 52.3057 337.195 54.2217 337.474 56.107C337.526 56.4603 337.593 56.8283 337.817 57.1057C338.045 57.3897 338.398 57.5337 338.741 57.6577C340.894 58.4363 343.165 58.839 345.434 59.1337C352.415 60.0403 359.525 59.9603 366.486 58.8963C368.214 58.6323 370.038 58.255 371.309 57.055C373.034 55.423 372.893 53.2723 373.261 51.1337C373.582 49.2737 374.107 47.287 372.477 45.7777Z" fill="#FA6758"/>
<path d="M337.818 57.1057C338.046 57.3897 338.401 57.5337 338.742 57.6577C340.895 58.4363 343.166 58.839 345.435 59.1337C352.417 60.0403 359.526 59.9603 366.487 58.8963C368.215 58.6323 370.039 58.255 371.31 57.055C373.035 55.423 372.894 53.2723 373.262 51.1337C373.583 49.2737 374.109 47.287 372.478 45.7777C371.938 45.2777 371.233 45.011 370.513 44.839C370.21 45.0043 369.918 45.2043 369.646 45.463C368.945 46.1283 368.469 47.0497 368.441 48.0257C368.426 48.5337 368.461 49.1537 368.031 49.423C367.814 49.559 367.539 49.5537 367.285 49.5417C361.679 49.2897 356.083 48.327 350.486 48.7217C345.869 49.047 341.326 50.319 337.199 52.4123C337.209 53.6483 337.294 54.8843 337.475 56.107C337.527 56.4603 337.594 56.8283 337.818 57.1057Z" fill="#BC4842"/>
<path d="M370.961 49.8427C370.967 49.4067 370.977 48.9614 371.113 48.5454C371.31 47.9427 371.754 47.4521 372.233 47.0374C373.711 45.7601 375.651 45.0321 377.603 45.0187C379.425 45.0054 381.206 45.5934 382.834 46.4054C384.813 47.3894 386.682 48.7801 387.701 50.7401C389.09 53.4121 388.599 56.8841 386.683 59.2067C384.767 61.5307 381.59 62.6707 378.599 62.3174C376.139 62.0281 373.106 60.6227 371.679 58.4987C370.269 56.4027 370.925 52.3361 370.961 49.8427Z" fill="#ABCF8F"/>
<path d="M370.961 49.8427C370.925 52.3361 370.269 56.4027 371.679 58.4987C373.106 60.6227 376.139 62.0281 378.599 62.3174C381.59 62.6707 384.767 61.5307 386.683 59.2067C387.674 58.0054 388.274 56.4974 388.439 54.9521C383.482 55.2841 378.449 52.8401 374.269 50.4627C373.118 49.8081 372.317 48.7961 371.481 47.8507C371.326 48.0654 371.195 48.2934 371.113 48.5454C370.977 48.9614 370.967 49.4067 370.961 49.8427Z" fill="#7AA96C"/>
<path d="M324.655 102.33C349.513 104.84 374.543 104.982 399.525 105.123C401.551 105.135 403.607 105.14 405.556 104.591C409.332 103.524 412.285 100.444 414.063 96.9457C415.839 93.4471 416.591 89.5297 417.247 85.6617C420.192 68.2724 421.571 50.6204 421.359 32.9844C421.337 31.1444 421.273 29.2884 420.892 27.4937C419.247 28.7617 418.117 30.8657 417.829 32.8084C417.401 35.7124 418.383 38.6764 419.905 41.1871C417.996 43.0604 416.28 45.2551 415.601 47.8431C414.923 50.4297 415.476 53.4684 417.505 55.2137C413.975 56.4977 412.019 60.4831 411.949 64.2404C411.877 67.9964 413.301 71.6004 414.703 75.0857C412.185 74.7631 409.779 76.6831 408.849 79.0444C407.921 81.4057 408.192 84.0711 408.808 86.5311C404.535 83.5697 399.335 81.3257 394.224 82.2884C389.112 83.2497 384.633 88.4804 386.045 93.4857C385.181 91.6057 383.001 90.4257 380.955 90.7337C378.907 91.0391 377.168 92.8044 376.892 94.8577C374.931 92.6017 371.676 91.5617 368.771 92.2604C365.864 92.9604 363.439 95.3657 362.717 98.2657C359.328 95.7417 355.065 94.4137 350.841 94.5671C348.921 94.6351 346.532 95.5257 346.513 97.4457C341.808 91.9417 332.36 91.4751 327.137 96.4897C327.113 92.6684 323.575 89.4724 319.784 88.9977C315.991 88.5217 312.193 90.2911 309.364 92.8604C307.96 90.2844 305.572 88.3031 302.836 87.2551C303.099 89.2044 303.549 91.1111 304.451 92.8497C308.023 99.7511 316.923 101.548 324.655 102.33Z" fill="#DBE5ED"/>
<path d="M387.469 27.3506C385.277 26.8119 382.858 27.2839 381.03 28.6066C379.202 29.9319 377.997 32.0826 377.826 34.3319C377.778 34.9452 377.805 35.5692 377.971 36.1612C378.461 37.9026 380.066 39.1012 381.714 39.8492C383.45 40.6412 385.583 41.0492 387.205 40.0412C387.881 39.6212 388.399 38.9892 388.834 38.3239C389.497 37.3119 389.998 36.1532 390.011 34.9426C390.031 33.1052 388.827 31.3372 387.142 30.6052C385.457 29.8759 383.39 30.1786 381.934 31.2986C380.519 32.3839 379.731 34.5532 380.794 35.9879C381.306 36.6772 382.135 37.0612 382.961 37.2999C384.051 37.6132 385.366 37.6706 386.173 36.8746C386.914 36.1426 386.897 34.7866 386.135 34.0746C385.374 33.3626 384.021 33.4332 383.338 34.2226" stroke="#252321" stroke-width="1.33333" stroke-miterlimit="10" stroke-linecap="round" stroke-linejoin="round"/>
<path d="M338 27.3506C335.808 26.8119 333.389 27.2839 331.561 28.6066C329.733 29.9319 328.528 32.0826 328.357 34.3319C328.309 34.9452 328.337 35.5692 328.502 36.1612C328.992 37.9026 330.597 39.1012 332.245 39.8492C333.982 40.6412 336.116 41.0492 337.737 40.0412C338.412 39.6212 338.932 38.9892 339.366 38.3239C340.028 37.3119 340.529 36.1532 340.542 34.9426C340.562 33.1052 339.358 31.3372 337.673 30.6052C335.988 29.8759 333.921 30.1786 332.465 31.2986C331.05 32.3839 330.264 34.5532 331.325 35.9879C331.837 36.6772 332.666 37.0612 333.493 37.2999C334.582 37.6132 335.898 37.6706 336.704 36.8746C337.446 36.1426 337.428 34.7866 336.666 34.0746C335.906 33.3626 334.552 33.4332 333.87 34.2226" stroke="#252321" stroke-width="1.33333" stroke-miterlimit="10" stroke-linecap="round" stroke-linejoin="round"/>
<path d="M347.58 37.9691C347.58 37.9691 360.817 34.5731 372.389 38.7305" stroke="#252321" stroke-width="1.33333" stroke-miterlimit="10" stroke-linecap="round" stroke-linejoin="round"/>
<path d="M354.518 50.1318C346.099 50.2545 337.491 52.2225 330.653 57.1345C330.117 57.5185 329.555 57.9798 329.435 58.6265C329.335 59.1545 329.553 59.6825 329.767 60.1732C330.841 62.6572 331.917 65.1398 332.991 67.6225C333.173 68.0412 333.373 68.4825 333.751 68.7345C334.533 69.2585 335.553 68.7318 336.41 68.3465C337.547 67.8332 338.894 67.5852 340.037 68.0918C341.177 68.5985 341.929 70.0598 341.342 71.1625C343.959 68.7865 348.587 69.1945 350.749 71.9932C350.901 69.0772 353.391 66.4652 356.295 66.1718C359.199 65.8798 362.161 67.9425 362.893 70.7692C364.09 68.7478 366.303 67.3678 368.645 67.1825C370.986 66.9972 373.389 68.0132 374.887 69.8212C375.673 66.9092 377.049 63.4478 380.039 63.0572C381.195 62.9078 382.363 63.2852 383.525 63.1852C384.685 63.0852 385.958 62.1598 385.723 61.0172C385.586 60.3412 384.977 59.8812 384.41 59.4905C382.143 57.9252 381.379 56.0825 379.629 54.1945C378.194 52.6452 376.047 52.5612 374.054 52.1918C367.611 50.9945 361.087 50.0372 354.518 50.1318Z" fill="#F4983C"/>
<path d="M333.75 68.7346C334.532 69.2586 335.553 68.7319 336.409 68.3466C337.548 67.8333 338.893 67.5853 340.036 68.0919C341.176 68.5973 341.928 70.0599 341.341 71.1626C343.958 68.7866 348.586 69.1946 350.748 71.9919C350.9 69.0773 353.39 66.4653 356.294 66.1719C359.198 65.8786 362.161 67.9426 362.892 70.7679C364.089 68.7479 366.302 67.3679 368.644 67.1826C370.985 66.9973 373.389 68.0133 374.888 69.8199C375.672 66.9093 377.049 63.4479 380.038 63.0573C381.194 62.9066 382.362 63.2853 383.524 63.1853C384.684 63.0853 385.957 62.1586 385.722 61.0173C385.585 60.3413 384.977 59.8799 384.409 59.4893C382.142 57.9253 381.378 56.0826 379.628 54.1946C379.089 53.6106 378.448 53.2359 377.753 52.9759C377.67 55.3439 379.173 58.0306 378.248 60.3386C377.716 61.6666 376.313 62.7359 374.906 62.4693C373.806 62.2599 372.893 61.3066 371.774 61.3399C370.609 61.3759 369.786 62.4373 369.017 63.3146C368.249 64.1919 367.041 65.0266 366.002 64.4946C365.298 64.1359 364.87 63.2106 364.08 63.1906C363.637 63.1773 363.253 63.4693 362.852 63.6559C361.318 64.3733 359.549 63.5786 357.974 62.9533C356.398 62.3279 354.337 61.9813 353.233 63.2639C352.721 63.8599 352.546 64.6893 352.025 65.2759C351.048 66.3813 349.285 66.2253 347.878 65.7839C346.469 65.3426 344.985 64.7026 343.574 65.1359C342.657 65.4199 341.756 66.1479 340.848 65.8319C340.372 65.6666 340.032 65.2399 339.582 65.0093C338.712 64.5639 337.641 64.9453 336.825 65.4839C336.006 66.0239 335.266 66.7293 334.325 66.9986C333.804 67.1493 333.262 67.1413 332.734 67.0293C332.82 67.2266 332.905 67.4253 332.992 67.6226C333.172 68.0399 333.372 68.4813 333.75 68.7346Z" fill="#CC7A21"/>
<path d="M395.052 59.551C392.402 59.1737 389.624 59.3897 387.182 60.4857C386.66 60.719 386.144 61.0004 385.76 61.423C385.376 61.8457 385.138 62.435 385.251 62.995C387.327 61.283 390.1 60.631 392.79 60.5577C394.136 60.5217 395.531 60.6284 396.732 61.243C397.723 61.7497 398.514 62.5684 399.28 63.3737C399.468 63.5724 399.688 63.7844 399.96 63.7817C400.62 63.7777 400.716 62.859 400.503 62.419C400.267 61.9364 399.538 61.3844 399.119 61.0617C397.963 60.167 396.479 59.7537 395.052 59.551Z" fill="#DD88EE" fill-opacity="0.180392"/>
<path d="M324.071 57.107C322.859 56.9483 321.563 57.0843 320.537 57.7483C319.51 58.4123 318.823 59.6803 319.081 60.8763C318.874 59.6643 317.702 58.879 316.581 58.375C315.41 57.851 314.119 57.4657 312.853 57.6683C311.43 57.8963 310.179 58.8777 309.487 60.1417C308.794 61.4057 308.629 62.9203 308.881 64.3403C309.434 62.2683 311.007 60.4963 312.997 59.6977C314.539 59.079 316.43 59.0817 317.739 60.1043C318.925 61.027 319.418 62.5657 319.814 64.015C320.071 63.6337 320.054 63.139 320.117 62.683C320.323 61.1417 321.569 59.8377 323.059 59.3963C324.55 58.955 326.219 59.323 327.495 60.211C327.875 60.475 329.177 61.647 329.675 61.0643C330.102 60.563 328.846 59.5003 328.525 59.2043C327.297 58.079 325.725 57.323 324.071 57.107Z" fill="#DD88EE" fill-opacity="0.180392"/>
<path d="M421.251 23.5031C421.574 24.1417 421.97 24.7724 422.563 25.1711C423.156 25.5711 423.99 25.6871 424.582 25.2857C425.37 24.7524 425.423 23.6111 425.971 22.8337C426.851 21.5831 428.666 21.5964 430.195 21.5937C432.364 21.5884 434.532 21.2871 436.619 20.6977C437.791 20.3657 438.944 19.9444 440.15 19.7684C441.355 19.5937 442.65 19.6911 443.684 20.3337C444.984 21.1417 445.663 22.6804 445.904 24.1924C446.146 25.7031 446.026 27.2484 446.127 28.7764C446.15 29.1111 446.187 29.4604 446.378 29.7377C446.567 30.0137 446.956 30.1804 447.248 30.0164C447.446 29.9044 447.548 29.6791 447.624 29.4671C448.312 27.5911 448.239 25.5057 447.775 23.5631C447.31 21.6217 446.472 19.7924 445.64 17.9764C445.147 16.9017 444.643 15.8111 443.872 14.9151C443.1 14.0191 442.01 13.3271 440.828 13.3071C441.127 14.2164 441.399 15.1377 441.646 16.0631C436.382 16.4551 431.39 18.4591 426.26 19.7004C425.904 19.7871 425.506 19.8644 425.192 19.6751C424.97 19.5391 424.839 19.2977 424.712 19.0697C424.303 18.3404 423.812 17.6564 423.254 17.0364C422.148 15.8084 420.187 15.6417 419.871 17.5657C419.566 19.4191 420.435 21.8871 421.251 23.5031Z" fill="#2C2A28"/>
<mask id="mask1_733_1458" style="mask-type:luminance" maskUnits="userSpaceOnUse" x="386" y="40" width="19" height="12">
<path d="M386.838 40.6389H404.867V51.3589H386.838V40.6389Z" fill="white"/>
</mask>
<g mask="url(#mask1_733_1458)">
<g opacity="0.600006">
<path d="M404.867 45.9989C404.867 48.9589 400.831 51.3589 395.853 51.3589C390.874 51.3589 386.838 48.9589 386.838 45.9989C386.838 43.0376 390.874 40.6376 395.853 40.6376C400.831 40.6376 404.867 43.0376 404.867 45.9989Z" fill="#F6C9D9"/>
</g>
</g>
<mask id="mask2_733_1458" style="mask-type:luminance" maskUnits="userSpaceOnUse" x="313" y="40" width="19" height="12">
<path d="M313.551 40.6389H331.58V51.3589H313.551V40.6389Z" fill="white"/>
</mask>
<g mask="url(#mask2_733_1458)">
<g opacity="0.600006">
<path d="M331.58 45.9989C331.58 48.9589 327.544 51.3589 322.565 51.3589C317.587 51.3589 313.551 48.9589 313.551 45.9989C313.551 43.0376 317.587 40.6376 322.565 40.6376C327.544 40.6376 331.58 43.0376 331.58 45.9989Z" fill="#F6C9D9"/>
</g>
</g>
<path d="M441.485 62.3077C441.473 62.3223 441.458 62.337 441.446 62.3517C440.406 63.4197 440.086 65.053 440.698 66.1517C441.013 66.717 441.683 67.1357 442.403 67.2197C443.005 67.2863 443.53 67.1143 443.862 66.749C444.41 66.1463 444.457 65.0557 443.967 64.2103C443.522 63.4397 442.713 62.8117 441.562 62.3437C441.535 62.3343 441.51 62.321 441.485 62.3077ZM442.659 68.5063C442.527 68.5063 442.395 68.501 442.259 68.485C441.126 68.3543 440.103 67.697 439.586 66.773C438.695 65.1743 439.093 62.9437 440.533 61.4637C440.635 61.3583 440.765 61.2957 440.901 61.2783C439.931 59.5263 437.61 58.4357 435.449 58.8157C434.761 58.941 434.206 59.173 433.799 59.5077C433.161 60.0317 432.799 60.8543 432.418 61.725L432.325 61.941C431.769 63.1997 431.038 64.6143 429.822 65.569C428.425 66.665 426.538 66.8783 425.234 66.0783C424.421 65.581 423.937 64.8143 423.466 64.073C423.078 63.4597 422.711 62.881 422.197 62.5223C421.486 62.0303 420.435 61.9557 419.387 62.3197C418.359 62.677 417.445 63.3717 416.559 64.0437C416.282 64.2543 415.881 64.201 415.667 63.9197C415.454 63.6397 415.509 63.2397 415.79 63.0277C416.709 62.3317 417.75 61.541 418.967 61.117C420.398 60.6183 421.878 60.753 422.923 61.477C423.65 61.9823 424.105 62.6983 424.542 63.3903C424.953 64.0383 425.339 64.6503 425.899 64.993C426.901 65.605 428.226 65.2037 429.037 64.5663C430.027 63.789 430.642 62.5983 431.159 61.4263L431.251 61.2143C431.657 60.289 432.117 59.241 432.991 58.5223C433.567 58.0503 434.318 57.725 435.222 57.561C438.186 57.0303 441.291 58.6823 442.305 61.277C443.589 61.845 444.518 62.6157 445.07 63.5717C445.838 64.8997 445.726 66.5957 444.803 67.6077C444.274 68.189 443.509 68.5063 442.659 68.5063Z" fill="#070A0F"/>
<mask id="mask3_733_1458" style="mask-type:luminance" maskUnits="userSpaceOnUse" x="438" y="170" width="123" height="36">
<path d="M438.268 170.01H560.558V205.287H438.268V170.01Z" fill="white"/>
</mask>
<g mask="url(#mask3_733_1458)">
<path d="M560.558 187.649C560.558 197.39 533.182 205.287 499.413 205.287C465.642 205.287 438.268 197.39 438.268 187.649C438.268 177.906 465.642 170.01 499.413 170.01C533.182 170.01 560.558 177.906 560.558 187.649Z" fill="#E2E2E2"/>
</g>
<path d="M437.913 104.034V180.409C437.913 180.409 436.885 201.731 500.584 201.731C564.281 201.731 560.172 182.525 560.172 182.525V104.034C560.172 104.034 500.584 69.0195 437.913 104.034Z" fill="#252321"/>
<path d="M495 180C495 180 499.161 168.75 503.39 180" stroke="#FFF7F8" stroke-width="1.33333" stroke-miterlimit="10" stroke-linecap="round" stroke-linejoin="round"/>
<path d="M560.173 182.525V104.034C560.173 104.034 521.869 81.565 474.393 90.6757C471.657 101.314 471.985 115.753 483.223 118.997C486.973 120.08 491.281 119.217 494.257 116.673C497.283 119.834 502.795 120.162 506.172 117.381C506.664 119.637 509.307 120.885 511.596 120.596C513.887 120.305 515.861 118.886 517.655 117.434C519.569 122.936 527.705 124.945 531.961 120.968C534.245 124.232 539.359 125.037 542.535 122.633C541.028 124.732 540.996 127.78 542.459 129.909C543.923 132.04 546.779 133.105 549.279 132.45C547.611 141.954 549.949 151.636 551.664 161.132C553.379 170.628 554.395 180.824 550.345 189.582C549.225 192.002 547.72 194.186 545.983 196.182C561.853 190.509 560.173 182.525 560.173 182.525Z" fill="#10161E"/>
<path d="M470.822 100.029C473.563 100.212 477.098 101.525 476.828 104.258C476.744 105.105 476.272 105.856 475.788 106.554C473.487 109.874 470.628 112.808 467.37 115.194C465.386 116.649 462.968 118.528 463.448 120.94C465.263 121.977 467.43 122.242 469.28 123.216C471.13 124.188 472.686 126.394 471.815 128.294C471.175 129.69 469.556 130.273 468.23 131.045C466.902 131.816 465.646 133.398 466.359 134.758C466.788 135.574 467.747 135.92 468.527 136.412C470.998 137.968 471.76 141.689 470.102 144.093C468.718 146.097 465.85 148.126 467.131 150.197C467.951 151.521 470.139 151.693 470.592 153.182C471.294 155.492 467.13 156.41 466.606 158.766C466.046 161.28 469.847 162.661 470.41 165.174C471.248 168.908 464.634 171.892 466.427 175.273C466.888 176.141 467.894 176.886 467.68 177.845C467.571 178.337 467.156 178.694 466.898 179.126C465.862 180.854 467.531 182.965 469.25 184.013C477.127 188.818 487.508 186.252 496.175 189.416C497.336 189.84 498.652 190.665 498.563 191.898C498.464 193.252 496.81 193.82 495.467 194.009C479.768 196.237 463.948 191.809 448.85 186.965C447.396 186.5 445.824 185.938 445.024 184.637C444.408 183.634 444.383 182.39 444.375 181.214C444.276 166.068 444.176 150.922 444.076 135.778C444.028 128.38 443.708 120.926 443.947 113.532C444.103 108.685 444.576 104.325 449.447 102.512C455.962 100.088 463.962 99.5729 470.822 100.029Z" fill="#2C2A28"/>
<path d="M437.301 105.347C440.526 108.488 445.873 108.313 449.945 106.393C450.642 110.165 454.409 112.84 458.227 113.197C462.049 113.553 465.821 112.004 469.019 109.888C469.211 113.376 471.635 116.641 474.919 117.833C478.203 119.027 482.158 118.076 484.542 115.523C485.943 117.403 488.566 118.273 490.815 117.604C493.063 116.936 494.785 114.775 494.933 112.433C499.926 117.088 509.206 115.563 512.447 109.555C514.575 111.655 516.855 113.841 519.762 114.541C522.667 115.243 526.318 113.771 526.855 110.829C528.019 114.093 531.537 116.345 534.986 116.04C538.437 115.735 541.501 112.897 542.073 109.483C544.123 111.036 546.594 112.257 549.161 112.081C551.725 111.905 554.282 109.945 554.417 107.376C558.79 109.04 563.894 104.408 563.253 99.7719C562.609 95.1373 557.314 92.0066 552.742 93.0039C553.498 89.6639 551.947 85.9293 549.049 84.1066C546.15 82.2866 542.109 82.5106 539.43 84.6413C537.565 80.2559 533.21 77.0333 528.47 76.5306C523.73 76.0279 518.798 78.2653 516.054 82.1626C512.811 78.9879 507.126 78.7666 503.646 81.6786C500.098 76.4466 491.051 76.5239 487.593 81.8173C483.587 76.9866 474.449 78.4853 472.197 84.3413C469.073 79.7573 462.838 77.5586 457.53 79.1719C452.221 80.7853 448.263 86.0799 448.218 91.6266C448.251 87.6453 438.937 94.0053 438.286 94.7706C435.73 97.7786 433.823 101.959 437.301 105.347Z" fill="#FEFEFE"/>
<path d="M469.019 109.888C469.211 113.376 471.635 116.64 474.919 117.834C478.203 119.026 482.157 118.076 484.541 115.523C485.943 117.403 488.565 118.274 490.815 117.604C493.063 116.936 494.784 114.775 494.932 112.434C499.925 117.087 509.205 115.563 512.447 109.555C514.575 111.655 516.855 113.842 519.761 114.542C522.667 115.243 526.317 113.771 526.855 110.83C528.019 114.092 531.536 116.346 534.985 116.039C538.436 115.735 541.5 112.898 542.072 109.482C544.121 111.035 546.593 112.256 549.159 112.082C551.724 111.906 554.281 109.946 554.416 107.376C558.789 109.039 563.893 104.408 563.252 99.7723C562.608 95.1376 557.313 92.0069 552.741 93.0043C553.497 89.6643 551.947 85.9283 549.047 84.1069C546.195 82.3149 542.243 82.5136 539.564 84.5509C540.608 84.6723 542.368 84.6336 542.931 84.8803C544.295 85.4829 545.468 86.5856 546.091 87.9483C547.329 90.6563 546.624 93.9816 544.843 96.3683C542.643 94.3016 539.009 93.9643 536.467 95.5909C533.923 97.2203 532.708 100.659 533.664 103.524C532.269 101.82 529.881 100.994 527.732 101.47C525.581 101.944 523.767 103.699 523.217 105.834C520.075 101.754 514.971 98.9696 509.849 99.5136C504.728 100.058 500.021 104.471 500.004 109.62C497.696 108.11 494.981 107.054 492.228 107.239C489.476 107.424 486.721 109.048 485.731 111.624C482.613 109.728 478.067 110.782 476.101 113.855C473.644 109.579 468.488 106.884 463.631 107.742C460.632 108.271 457.956 110.24 456.391 112.824C456.995 112.999 457.607 113.139 458.227 113.196C462.047 113.552 465.82 112.004 469.019 109.888Z" fill="#DBE5ED"/>
<path d="M473.01 167.513C473.01 169.975 471.014 171.971 468.551 171.971C466.091 171.971 464.094 169.975 464.094 167.513C464.094 165.051 466.091 163.055 468.551 163.055C471.014 163.055 473.01 165.051 473.01 167.513Z" fill="#FFF7F8"/>
<path d="M537.471 167.513C537.471 169.975 535.475 171.971 533.013 171.971C530.552 171.971 528.555 169.975 528.555 167.513C528.555 165.051 530.552 163.055 533.013 163.055C535.475 163.055 537.471 165.051 537.471 167.513Z" fill="#FFF7F8"/>
<path d="M502.33 82.0771C499.245 81.0611 495.737 81.4051 492.906 82.9998C492.277 83.3558 491.676 83.7718 491.188 84.3051C489.897 85.7078 489.54 87.7078 489.28 89.5944C489.198 90.1811 489.137 90.8331 489.486 91.3118C489.705 91.6104 490.049 91.7864 490.385 91.9411C494.326 93.7504 498.876 93.9091 503.133 93.0838C505.172 92.6864 507.238 92.0358 508.788 90.6531C510.673 88.9691 508.893 87.1611 507.61 85.6531C506.217 84.0144 504.376 82.7504 502.33 82.0771Z" fill="#ABCF8F"/>
<path d="M489.486 91.3115C489.705 91.6115 490.049 91.7861 490.385 91.9421C494.326 93.7501 498.876 93.9088 503.132 93.0835C505.172 92.6861 507.237 92.0355 508.788 90.6528C510.673 88.9688 508.893 87.1608 507.61 85.6528C507.412 85.4195 507.185 85.2128 506.969 84.9955C497.365 90.2835 492.064 87.6035 490.105 86.0528C489.65 87.1581 489.445 88.3981 489.28 89.5941C489.198 90.1808 489.137 90.8341 489.486 91.3115Z" fill="#7AA96C"/>
<path d="M494.555 91.8532C502.931 87.9439 511.648 84.7705 520.577 82.3799C520.881 82.2985 521.204 82.2159 521.509 82.2959C522.061 82.4399 522.348 83.0319 522.564 83.5585C523.843 86.6772 525.121 89.7945 526.4 92.9132C524.94 92.2559 523.289 91.7532 521.752 92.2052C520.215 92.6572 518.987 94.4092 519.621 95.8812C518.953 93.3492 515.772 92.3665 513.179 92.7292C511.76 92.9279 510.316 93.4359 509.365 94.5065C508.415 95.5772 508.111 97.3052 508.963 98.4572C506.589 97.5079 503.559 99.3079 503.256 101.844C503.364 100.931 500.313 102.468 500.345 102.467C498.852 102.571 498.897 101.721 498.321 100.229C497.22 97.3719 495.963 94.5745 494.555 91.8532Z" fill="#E24F4D"/>
<path d="M498.321 100.229C498.897 101.721 498.851 102.571 500.345 102.467C500.313 102.468 503.364 100.929 503.256 101.844C503.559 99.3081 506.589 97.5081 508.961 98.4574C508.111 97.3054 508.413 95.5774 509.365 94.5068C510.316 93.4361 511.76 92.9268 513.179 92.7294C515.772 92.3668 518.953 93.3494 519.621 95.8801C518.987 94.4094 520.215 92.6561 521.752 92.2041C523.289 91.7534 524.94 92.2561 526.4 92.9134C525.919 91.7401 525.437 90.5668 524.957 89.3934C524.199 89.3388 523.436 89.3374 522.624 89.5948C521.103 90.0774 519.744 91.2001 519.208 92.7014C518.1 90.9241 515.781 90.3041 513.687 90.3481C511.801 90.3881 509.877 90.8708 508.38 92.0161C506.881 93.1614 505.875 95.0348 506.06 96.9108C505.12 97.0414 504.568 95.9214 504.224 95.0348C503.395 92.8934 502.059 90.9988 500.684 89.1521C498.623 90.0094 496.577 90.9094 494.555 91.8534C495.961 94.5748 497.22 97.3708 498.321 100.229Z" fill="#CA2A2B"/>
<path d="M478.101 93.5797C478.055 92.8944 478.009 92.1891 478.224 91.5371C478.749 89.9304 480.6 89.2117 482.257 88.8717C487.864 87.7237 493.86 88.5837 498.92 91.2597C500.265 91.9717 501.684 93.0237 501.8 94.5424C501.903 95.8571 500.977 97.0117 500.051 97.9491C497.995 100.03 495.645 101.822 493.095 103.254C493.443 101.948 493.189 100.47 492.332 99.4277C491.472 98.3851 489.997 97.8517 488.696 98.2184C487.397 98.5837 486.392 99.8904 486.48 101.238C485.98 100.717 485.343 100.264 484.62 100.225C483.897 100.188 483.117 100.706 483.083 101.429C483.113 100.793 481.504 100.168 481.073 100.07C480.161 99.8624 479.443 100.248 478.603 100.268C478.184 98.1211 478.251 95.7677 478.101 93.5797Z" fill="#F8BD34"/>
<path d="M478.224 91.5368C478.009 92.1888 478.055 92.8955 478.101 93.5782C478.252 95.7675 478.185 98.1208 478.603 100.267C479.443 100.247 480.161 99.8622 481.073 100.07C481.505 100.169 483.113 100.793 483.084 101.429C483.117 100.706 483.897 100.187 484.62 100.226C485.343 100.263 485.98 100.717 486.48 101.238C486.392 99.8915 487.397 98.5835 488.696 98.2182C489.997 97.8515 491.473 98.3862 492.332 99.4275C493.191 100.47 493.443 101.949 493.095 103.254C495.645 101.822 497.995 100.03 500.051 97.9502C500.977 97.0115 501.903 95.8568 501.801 94.5422C501.752 93.8902 501.452 93.3275 501.029 92.8382C499.023 95.3142 495.815 96.6648 492.62 96.8475C489.3 97.0408 485.999 96.1048 482.96 94.7542C482.116 94.3795 481.271 93.9595 480.625 93.3022C479.755 92.4155 479.417 91.1208 479.564 89.8982C478.949 90.3035 478.455 90.8315 478.224 91.5368Z" fill="#D39B2A"/>
<path d="M460.716 194.754C458.292 195.734 456.289 197.509 454.34 199.251C450.043 203.091 445.747 206.931 441.451 210.771C439.787 208.241 439.088 205.094 439.527 202.098C439.671 201.115 439.955 200.109 440.624 199.374C441.295 198.639 442.435 198.262 443.319 198.717C444.079 199.109 444.459 199.978 444.676 200.806C445.347 203.369 444.984 206.187 443.687 208.498" stroke="#252321" stroke-width="1.33333" stroke-miterlimit="10" stroke-linecap="round" stroke-linejoin="round"/>
<path d="M440.6 177.392C437.054 180.529 433.286 183.413 429.332 186.019C428.958 186.264 428.57 186.515 428.128 186.6C427.642 186.696 427.143 186.581 426.654 186.499C423.28 185.931 419.672 186.959 417.103 189.219C416.092 190.109 415.262 191.789 416.276 192.673C416.59 192.945 417.01 193.056 417.418 193.132C422.143 194.013 427.288 191.023 428.86 186.48" stroke="#252321" stroke-width="1.33333" stroke-miterlimit="10" stroke-linecap="round" stroke-linejoin="round"/>
<path d="M538.65 194.754C541.073 195.734 543.076 197.509 545.025 199.251C549.322 203.091 553.62 206.931 557.914 210.771C559.578 208.241 560.277 205.094 559.84 202.098C559.694 201.115 559.412 200.109 558.741 199.374C558.07 198.639 556.93 198.262 556.048 198.717C555.286 199.109 554.906 199.978 554.689 200.806C554.018 203.369 554.381 206.187 555.68 208.498" stroke="#252321" stroke-width="1.33333" stroke-miterlimit="10" stroke-linecap="round" stroke-linejoin="round"/>
<path d="M558.766 177.392C562.311 180.529 566.079 183.413 570.032 186.019C570.407 186.264 570.795 186.515 571.236 186.6C571.723 186.696 572.222 186.581 572.711 186.499C576.084 185.931 579.694 186.959 582.262 189.219C583.272 190.109 584.103 191.789 583.088 192.673C582.776 192.945 582.355 193.056 581.947 193.132C577.223 194.013 572.076 191.023 570.506 186.48" stroke="#252321" stroke-width="1.33333" stroke-miterlimit="10" stroke-linecap="round" stroke-linejoin="round"/>
<mask id="mask4_733_1458" style="mask-type:luminance" maskUnits="userSpaceOnUse" x="148" y="192" width="152" height="10">
<path d="M148.971 192.012H299.029V201.49H148.971V192.012Z" fill="white"/>
</mask>
<g mask="url(#mask4_733_1458)">
<path d="M299.031 196.75C299.031 199.368 265.439 201.489 224.001 201.489C182.563 201.489 148.971 199.368 148.971 196.75C148.971 194.134 182.563 192.012 224.001 192.012C265.439 192.012 299.031 194.134 299.031 196.75Z" fill="#E2E2E2"/>
</g>
<path d="M198.768 166.253C196.862 170.477 194.18 174.348 190.893 177.614C187.142 181.341 182.658 184.245 178.077 186.885C176.824 187.606 175.485 188.389 174.86 189.694C173.978 191.54 174.982 193.938 176.78 194.914C178.577 195.892 180.89 195.58 182.608 194.468C183.633 193.804 184.546 192.505 183.962 191.433C183.578 190.729 182.668 190.452 181.877 190.58C181.085 190.706 180.386 191.152 179.721 191.598C179.42 191.801 179.029 192.01 178.717 191.825C178.513 191.702 178.432 191.452 178.364 191.225C178.038 190.11 177.713 188.997 177.388 187.884" stroke="#252321" stroke-width="1.33333" stroke-miterlimit="10" stroke-linecap="round" stroke-linejoin="round"/>
<path d="M276.97 175.12C278.945 174.82 280.813 176.151 282.084 177.692C284.365 180.457 285.481 184.039 285.802 187.608C286.122 191.179 285.701 194.771 285.2 198.319C285.158 198.616 285.106 198.932 284.902 199.149C284.68 199.388 284.333 199.452 284.012 199.501C282.961 199.667 281.91 199.832 280.858 199.996C279.568 200.2 278.21 200.396 276.984 199.945C275.757 199.495 274.752 198.157 275.142 196.911C275.578 195.52 277.31 195.097 278.761 194.947C280.046 194.815 281.377 194.721 282.601 195.135C283.825 195.547 284.925 196.591 285.016 197.877" stroke="#252321" stroke-width="1.33333" stroke-miterlimit="10" stroke-linecap="round" stroke-linejoin="round"/>
<g filter="url(#filter0_d_733_1458)">
<path d="M163.63 116.756C163.794 118.177 164.247 119.602 163.999 121.012C163.743 122.461 162.784 123.669 162.008 124.92C158.152 131.14 158.611 139.005 159.199 146.301C159.331 147.937 159.523 149.712 160.658 150.894C161.495 151.768 162.802 152.269 163.208 153.406C163.57 154.42 163.062 155.508 162.762 156.541C161.268 161.674 165.058 166.865 169.298 170.12C179.508 177.957 193.027 180.052 205.896 179.95C218.767 179.848 231.611 177.821 244.462 178.544C252.443 178.993 260.342 180.5 268.33 180.82C276.316 181.141 284.63 180.174 291.491 176.073C298.352 171.973 303.428 164.204 302.552 156.257C302.194 153.005 300.89 149.812 301.272 146.561C301.494 144.686 302.276 142.853 302.067 140.976C301.756 138.206 299.414 136.138 298.318 133.576C296.72 129.844 297.772 125.082 295.192 121.948C293.916 120.396 291.875 119.454 291.068 117.614C290.514 116.349 290.659 114.894 290.358 113.548C289.763 110.877 287.52 108.92 285.296 107.326C273.57 98.9222 259.022 95.1729 244.622 94.2929C230.222 93.4128 215.807 95.2275 201.494 97.0382C191.722 98.2755 161.83 101.174 163.63 116.756Z" fill="#FEFEFE"/>
</g>
<path d="M302.552 156.257C302.193 153.005 300.889 149.812 301.272 146.562C301.493 144.686 302.276 142.853 302.067 140.976C301.756 138.206 299.413 136.138 298.317 133.576C296.72 129.844 297.772 125.082 295.192 121.948C293.916 120.396 291.875 119.454 291.068 117.614C290.513 116.349 290.659 114.896 290.357 113.548C289.763 110.877 287.521 108.92 285.297 107.326C273.569 98.9222 259.021 95.1729 244.621 94.2929C230.221 93.4129 215.807 95.2275 201.495 97.0382C191.721 98.2755 161.829 101.176 163.629 116.756C163.793 118.176 164.247 119.602 163.999 121.01C163.743 122.461 162.784 123.669 162.008 124.92C161.787 125.277 161.584 125.64 161.391 126.006C162.329 128.372 163.403 130.717 165.603 132.152C168.109 133.785 172.531 133.841 173.895 130.653C179.412 134.454 187.961 132.66 191.483 126.958C195.832 131.792 205.016 130.51 207.876 124.67C212.016 130.368 221.935 130.253 225.941 124.461C228.755 129.196 236.508 129.785 240.004 125.53C243.348 129.85 250.321 130.741 254.643 127.397C255.951 131.03 259.224 133.888 263.001 134.69C266.779 135.496 270.932 134.22 273.607 131.434C275.845 136.957 284.141 138.74 288.452 134.624C287.677 136.716 288.919 139.124 290.748 140.401C292.577 141.678 294.855 142.092 297.053 142.47C292.533 147.529 293.832 156.574 299.592 160.158C295.6 161.784 292.881 166.106 293.143 170.406C292.06 171.885 291.861 173.773 292.301 175.554C298.745 171.341 303.393 163.885 302.552 156.257Z" fill="#D7E1E9"/>
<path d="M311.022 142.752C314.288 144.506 318.614 146.12 321.374 143.645C324.478 140.86 322.615 135.761 320.562 132.118C321.94 132.018 323.318 131.917 324.696 131.817L324.36 128.234C326.346 128.762 328.466 128.768 330.454 128.253C331.641 125.394 329.272 122.354 326.915 120.353C318.897 113.548 308.758 109.305 298.311 108.384C295.733 108.156 293.101 108.117 290.645 107.3C288.106 106.456 285.912 104.83 283.793 103.192C274.215 95.781 264.829 87.353 253.164 84.177C247.637 82.673 241.784 82.4183 236.429 80.3796C233.022 79.0823 229.795 77.061 226.165 76.7556C224.236 76.593 222.296 76.9316 220.362 76.8143C216.748 76.597 213.433 74.8236 209.98 73.7236C206.527 72.621 202.39 72.3156 199.623 74.6583C196.244 72.1543 191.756 71.7303 187.577 72.0996C177.857 72.957 168.312 77.977 163.116 86.269C159.869 91.4503 158.441 97.5463 157.067 103.514C155.893 108.602 154.716 113.874 155.713 119.002C156.712 124.13 160.507 129.102 165.671 129.713C169.52 130.168 173.177 128.212 176.747 126.7C179.652 125.469 182.667 124.504 185.745 123.82C192.604 122.293 199.687 122.17 206.712 122.054C219.103 121.849 231.492 121.645 243.882 121.441C245.857 121.408 247.86 121.38 249.776 121.866C251.562 122.321 253.21 123.209 254.968 123.764C259.776 125.277 264.946 124.189 269.962 123.726C284.542 122.382 298.793 136.181 311.022 142.752Z" fill="#FB9491"/>
<path d="M258.41 90.1201C257.942 91.4774 256.913 92.5787 256.43 93.9294C255.946 95.2801 256.338 97.1827 257.73 97.5081C260.4 95.4987 264.653 93.0094 268.842 91.8254C265.316 89.4347 261.654 87.3187 257.754 85.7467C258.605 87.0467 258.942 88.5774 258.41 90.1201Z" fill="#F75D3D"/>
<path d="M238.025 81.7125C238.646 84.2911 237.242 87.6245 239.281 89.3098C241.729 86.8271 244.399 84.2511 247.554 82.9791C244.229 82.3858 240.89 81.8538 237.695 80.8071C237.83 81.0898 237.946 81.3871 238.025 81.7125Z" fill="#FA6758"/>
<path d="M220.363 76.8141C217.133 76.6194 214.142 75.1861 211.078 74.0981C212.006 75.1368 212.745 76.4074 213.203 77.7034C214.29 80.7661 214.477 84.1328 215.899 87.0554C220.085 85.4581 222.923 81.5354 226.765 79.2274C227.918 78.5341 229.298 78.0928 230.694 77.9248C229.227 77.3474 227.734 76.8874 226.166 76.7554C224.237 76.5928 222.295 76.9314 220.363 76.8141Z" fill="#FA6758"/>
<path d="M180.205 87.8389C182.237 83.4389 186.045 79.9015 190.57 78.2082C191.093 81.1762 191.614 84.1429 192.137 87.1095C198.278 86.6775 198.951 76.5575 203.322 73.0309C201.965 73.2522 200.691 73.7549 199.622 74.6575C196.243 72.1535 191.757 71.7309 187.577 72.0989C178.062 72.9389 168.741 77.7895 163.477 85.7722C163.662 86.1162 163.875 86.4522 164.122 86.7775C168.703 83.0375 176.138 83.5295 180.205 87.8389Z" fill="#F75D3D"/>
<path d="M155.713 119.002C156.712 124.131 160.507 129.102 165.671 129.712C169.519 130.168 173.177 128.211 176.747 126.699C179.652 125.47 182.667 124.504 185.745 123.819C192.604 122.294 199.685 122.171 206.712 122.054C219.103 121.85 231.492 121.644 243.882 121.44C245.857 121.408 247.86 121.379 249.776 121.866C251.562 122.32 253.21 123.208 254.968 123.762C259.776 125.276 264.946 124.19 269.962 123.727C284.542 122.382 298.793 136.182 311.022 142.751C314.288 144.507 318.614 146.12 321.374 143.644C324.478 140.86 322.614 135.76 320.562 132.119C321.94 132.018 323.318 131.918 324.696 131.816L324.36 128.235C326.346 128.762 328.466 128.767 330.454 128.252C331.641 125.395 329.27 122.355 326.915 120.354C318.897 113.547 308.758 109.306 298.31 108.383C297.321 108.296 296.324 108.228 295.33 108.142C295.496 111.186 302.677 114.835 300.68 118.283C298.721 117.752 296.966 116.49 295.832 114.8C295.209 117.794 292.028 119.996 289.02 119.52C286.776 119.163 284.945 117.591 282.961 116.478C278.197 113.806 272.482 113.758 267.105 112.836C261.729 111.915 255.906 109.496 253.924 104.39C253.441 103.147 253.138 101.695 252.038 100.95C249.562 99.2749 246.912 102.739 244.197 103.976C238.834 106.42 233.998 99.7616 231.778 94.2749C231.352 99.5763 226.103 103.978 220.833 103.451C215.564 102.923 211.268 97.5669 211.874 92.2829C206.252 92.2723 207.224 102.099 202.593 105.295C199.881 107.164 195.945 105.971 193.709 103.542C191.472 101.115 190.516 97.799 189.631 94.6123C188.173 96.9976 188.041 99.9403 187.224 102.616C186.408 105.294 184.341 108.047 181.556 107.936C177.172 107.76 176.3 101.63 176.807 97.2509C173.489 101.53 168.083 104.768 162.817 103.554C160.329 102.98 158.903 101.464 158.024 99.4856C157.689 100.827 157.376 102.174 157.067 103.515C155.893 108.602 154.716 113.874 155.713 119.002Z" fill="#E94F2F"/>
<path d="M165.67 129.713C169.519 130.169 173.177 128.211 176.746 126.699C179.651 125.469 182.667 124.505 185.745 123.819C192.603 122.294 199.686 122.171 206.711 122.054C219.102 121.85 231.491 121.645 243.882 121.441C245.858 121.407 247.861 121.379 249.777 121.866C251.562 122.321 253.21 123.209 254.967 123.762C259.775 125.277 264.947 124.189 269.962 123.727C284.542 122.382 298.793 136.182 311.022 142.751C314.287 144.507 318.614 146.121 321.374 143.645C324.478 140.859 322.614 135.761 320.562 132.119C321.941 132.018 323.318 131.917 324.695 131.817L324.359 128.235C326.346 128.762 328.466 128.767 330.454 128.253C330.774 127.482 330.819 126.699 330.693 125.927C326.874 125.226 322.883 126.161 320.469 129.191C319.202 130.782 317.059 132.99 315.715 131.462C317.289 132.713 316.171 135.537 314.278 136.194C312.385 136.853 310.321 136.098 308.457 135.351C301.934 132.734 295.071 129.862 290.873 124.203C289.429 125.713 286.991 124.362 285.161 123.359C281.854 121.55 278.002 121.118 274.259 120.718C255.154 118.679 235.958 116.637 216.77 117.542C206.486 118.027 196.207 119.359 185.925 118.787C184.365 118.699 182.763 118.574 181.271 119.038C179.937 119.455 178.791 120.313 177.566 120.989C172.109 124.005 164.753 123.046 160.227 118.734C156.539 115.217 156.162 111.529 156.187 107.533C155.429 111.347 154.975 115.213 155.713 119.002C156.711 124.13 160.506 129.102 165.67 129.713Z" fill="#BD353E"/>
<path d="M159.57 101.801C159.57 101.801 209.63 62.3265 294.309 117.6" stroke="#BD353E" stroke-width="1.33333" stroke-miterlimit="10" stroke-linecap="round" stroke-linejoin="round"/>
<path d="M287.012 127.093C289.872 125.194 292.15 122.426 293.466 119.245C294.782 116.065 295.133 112.489 294.458 109.109" stroke="#BD353E" stroke-width="1.33333" stroke-miterlimit="10" stroke-linecap="round" stroke-linejoin="round"/>
<path d="M173.597 107.875C174.784 102.81 175.99 97.718 177.698 92.7713C179.401 87.8366 181.636 83.0286 184.784 78.85C184.824 78.7966 184.9 78.7873 184.953 78.8273C185.006 78.866 185.017 78.9406 184.98 78.994C182.001 83.2513 179.961 88.0753 178.448 93.0153C176.929 97.9673 175.908 103.057 174.901 108.157C174.829 108.518 174.478 108.753 174.117 108.681C173.756 108.611 173.521 108.259 173.593 107.899C173.594 107.893 173.596 107.882 173.597 107.875Z" fill="#BD353E"/>
<path d="M188.863 107.044C187.781 97.1898 190.088 87.0698 195.26 78.7445C195.309 78.6645 195.415 78.6405 195.495 78.6898C195.573 78.7391 195.597 78.8405 195.552 78.9191C190.704 87.3471 188.812 97.3671 190.185 106.876C190.239 107.24 189.985 107.578 189.621 107.631C189.256 107.683 188.919 107.431 188.865 107.067C188.864 107.06 188.863 107.051 188.863 107.044Z" fill="#BD353E"/>
<path d="M207.634 105.49C208.479 101.282 209.336 97.0073 210.908 92.9566C212.468 88.9286 214.795 85.0926 218.152 82.3686C214.943 85.2633 212.864 89.1553 211.535 93.182C210.199 97.2353 209.574 101.471 208.947 105.719C208.894 106.082 208.555 106.335 208.19 106.282C207.827 106.227 207.575 105.889 207.628 105.523C207.63 105.514 207.632 105.501 207.634 105.49Z" fill="#BD353E"/>
<path d="M228.257 107.089C229.558 98.7941 233.722 91.0501 239.837 85.4567C239.911 85.3901 240.027 85.3941 240.095 85.4687C240.162 85.5421 240.158 85.6541 240.089 85.7234C234.258 91.4887 230.514 99.2381 229.578 107.27C229.534 107.635 229.203 107.897 228.838 107.854C228.473 107.811 228.21 107.481 228.253 107.115C228.254 107.107 228.255 107.097 228.257 107.089Z" fill="#BD353E"/>
<path d="M246.419 108.548C248.173 105.26 250.351 102.21 252.868 99.4831C254.127 98.1204 255.471 96.8378 256.891 95.6458C257.605 95.0564 258.331 94.4818 259.079 93.9351C259.472 93.6658 259.791 93.3991 260.247 93.1258C260.473 93.0018 260.72 92.8938 261.016 92.8498C261.303 92.7978 261.711 92.8791 261.952 93.1484L261.985 93.1871C262.113 93.3298 262.1 93.5484 261.957 93.6764C261.813 93.8018 261.595 93.7911 261.468 93.6471C261.463 93.6404 261.456 93.6324 261.451 93.6271C261.336 93.4738 260.957 93.5444 260.611 93.7604C260.283 93.9658 259.896 94.2924 259.543 94.5524C258.825 95.1098 258.129 95.6938 257.447 96.2924C256.089 97.4991 254.812 98.7924 253.621 100.159C251.241 102.894 249.212 105.924 247.604 109.159C247.441 109.488 247.041 109.624 246.711 109.46C246.381 109.298 246.245 108.898 246.409 108.567C246.412 108.563 246.416 108.554 246.419 108.548Z" fill="#BD353E"/>
<path d="M274.259 114.374C274.363 114.443 274.747 114.387 274.871 114.197C274.994 114.038 274.984 113.961 274.992 113.899C274.982 113.791 274.996 113.678 274.763 113.502C274.703 113.465 274.638 113.441 274.568 113.431C274.531 113.426 274.512 113.427 274.483 113.429C274.43 113.433 274.38 113.451 274.354 113.465C274.296 113.498 274.303 113.51 274.318 113.495C274.344 113.481 274.446 113.339 274.526 113.233L274.774 112.898C275.103 112.449 275.423 111.994 275.738 111.534C276.364 110.614 276.959 109.669 277.52 108.703C278.644 106.771 279.636 104.753 280.484 102.669C279.846 104.826 279.054 106.947 278.112 109.01C277.643 110.039 277.135 111.057 276.592 112.055C276.318 112.554 276.038 113.049 275.748 113.539L275.528 113.905C275.448 114.029 275.408 114.131 275.25 114.33C275.171 114.419 275.07 114.527 274.886 114.619C274.795 114.665 274.676 114.699 274.554 114.709C274.488 114.713 274.435 114.71 274.363 114.701C274.259 114.683 274.16 114.649 274.07 114.591C273.719 114.338 273.686 114.069 273.682 113.826C273.695 113.694 273.703 113.545 273.871 113.331C274.04 113.085 274.506 113.017 274.675 113.109C275.026 113.223 275.215 113.601 275.1 113.95C274.986 114.299 274.608 114.49 274.259 114.374Z" fill="#BD353E"/>
<mask id="mask5_733_1458" style="mask-type:luminance" maskUnits="userSpaceOnUse" x="171" y="77" width="81" height="15">
<path d="M171.559 77.6337H251.616V91.2097H171.559V77.6337Z" fill="white"/>
</mask>
<g mask="url(#mask5_733_1458)">
<g opacity="0.5">
<path d="M177.574 86.4601C182.626 86.0108 187.509 84.4614 192.5 83.5614C200.169 82.1801 208.024 82.3428 215.817 82.5121C224.569 82.7014 233.63 82.9614 241.525 86.7721C244.225 88.0774 246.734 89.7748 249.498 90.9361C250.028 91.1588 250.658 91.3561 251.15 91.0588C252.1 90.4868 251.436 88.9894 250.585 88.2734C248.821 86.7854 246.608 85.9588 244.42 85.2334C233.104 81.4841 221.144 79.7134 209.238 80.0268C204.133 80.1601 198.985 80.6708 193.946 79.8241C191.233 79.3694 188.593 78.5241 185.873 78.1028C182.526 77.5868 176.16 76.9668 173.352 79.4468C169.046 83.2508 173.309 86.8374 177.574 86.4601Z" fill="#F9B9B9"/>
</g>
</g>
<path d="M211.12 72.1578C211.12 72.1578 182.177 90.7484 180.765 124.775C180.765 124.775 179.974 167.14 191.654 180.959C191.654 180.959 208.666 186.01 227.558 180.686C226.99 175.095 226.345 169.514 225.668 163.935C224.982 158.292 224.252 152.654 223.441 147.026C222.708 141.942 221.705 136.972 220.9 131.903C220.224 127.646 219.554 123.307 219.966 118.988C220.384 114.599 222.401 110.643 224.014 106.595C226.109 101.342 228.368 96.1324 231.037 91.1418C233.132 87.2231 235.514 82.8764 239.044 80.0484C239.044 80.0484 235.464 70.5978 211.12 72.1578Z" fill="#252321"/>
<path d="M241.45 147.864C241.45 150.033 239.692 151.79 237.522 151.79C235.354 151.79 233.596 150.033 233.596 147.864C233.596 145.694 235.354 143.937 237.522 143.937C239.692 143.937 241.45 145.694 241.45 147.864Z" fill="#252321"/>
<path d="M289.805 147.864C289.805 150.033 288.047 151.79 285.877 151.79C283.708 151.79 281.949 150.033 281.949 147.864C281.949 145.694 283.708 143.937 285.877 143.937C288.047 143.937 289.805 145.694 289.805 147.864Z" fill="#252321"/>
<path d="M272.318 152.72C272.318 152.72 263.665 146.295 253.838 152.72" stroke="#252321" stroke-width="1.33333" stroke-miterlimit="10" stroke-linecap="round" stroke-linejoin="round"/>
<path d="M169.942 136.563C168.973 136.41 167.952 136.39 167.038 136.751C166.125 137.111 165.341 137.914 165.22 138.888C165.097 139.863 165.798 140.93 166.776 141.019C166.154 141.14 165.54 141.396 165.097 141.85C164.653 142.303 164.404 142.974 164.557 143.59C164.712 144.204 165.321 144.704 165.952 144.636C165.526 144.778 165.106 144.996 164.854 145.367C164.601 145.736 164.569 146.282 164.876 146.607C165.045 146.787 165.286 146.876 165.521 146.951C166.384 147.228 167.281 147.394 168.185 147.443" stroke="#D8E2EA" stroke-width="1.33333" stroke-miterlimit="10" stroke-linecap="round" stroke-linejoin="round"/>
<path d="M175.304 149.46C173.991 149.848 172.943 151.021 172.703 152.371C172.644 152.7 172.635 153.055 172.795 153.349C172.956 153.643 173.331 153.836 173.636 153.701C172.865 154.235 172.231 155.052 172.173 155.988C172.115 156.923 172.797 157.919 173.732 157.981C172.953 158.608 172.34 159.508 172.279 160.505C172.219 161.503 172.824 162.567 173.788 162.828C173.235 163.468 172.697 164.432 173.231 165.089C173.515 165.437 173.997 165.537 174.441 165.613C175.252 165.753 176.065 165.893 176.877 166.035" stroke="#D8E2EA" stroke-width="1.33333" stroke-miterlimit="10" stroke-linecap="round" stroke-linejoin="round"/>
<path d="M230.311 134.387C229.602 134.063 228.677 134.326 228.245 134.974C227.813 135.623 227.926 136.579 228.498 137.107C227.669 137.042 226.966 137.936 227.083 138.76C227.201 139.584 227.97 140.218 228.791 140.35" stroke="#D8E2EA" stroke-width="1.33333" stroke-miterlimit="10" stroke-linecap="round" stroke-linejoin="round"/>
<path d="M240.348 159.822C241.106 159.527 242.045 159.513 242.66 160.046C243.274 160.579 243.281 161.753 242.546 162.103C243.092 162.357 243.648 162.619 244.08 163.037C244.513 163.454 244.809 164.063 244.696 164.653C244.584 165.243 243.964 165.738 243.384 165.577C244.12 166.309 245.416 166.503 245.778 167.475C246.081 168.29 245.474 169.214 244.682 169.571C243.892 169.93 242.982 169.871 242.117 169.806" stroke="#D8E2EA" stroke-width="1.33333" stroke-miterlimit="10" stroke-linecap="round" stroke-linejoin="round"/>
<path d="M269.578 162.745C270.17 163.025 270.725 163.384 271.226 163.805C271.515 164.049 271.81 164.425 271.65 164.768C271.586 164.901 271.463 164.996 271.338 165.079C270.842 165.407 270.262 165.607 269.67 165.66C270.11 165.94 270.55 166.22 270.99 166.5C271.303 166.701 271.623 166.907 271.85 167.201C272.479 168.013 272.207 169.177 271.909 170.161C271.815 170.464 271.717 170.779 271.495 171.007C271.03 171.488 270.249 171.393 269.593 171.264" stroke="#D8E2EA" stroke-width="1.33333" stroke-miterlimit="10" stroke-linecap="round" stroke-linejoin="round"/>
<path d="M286.406 160.68C286.728 160.768 287.057 160.861 287.325 161.06C287.593 161.26 287.788 161.592 287.729 161.92C287.645 162.397 287.113 162.627 286.741 162.939C286.696 162.979 286.649 163.024 286.64 163.083C286.626 163.184 286.726 163.26 286.816 163.311C287.384 163.629 288.013 163.867 288.494 164.308C288.976 164.751 289.27 165.491 288.957 166.065C288.634 166.656 287.85 166.793 287.176 166.797" stroke="#D8E2EA" stroke-width="1.33333" stroke-miterlimit="10" stroke-linecap="round" stroke-linejoin="round"/>
<path d="M184.849 119.334C186.056 117.871 188.054 117.383 189.914 117.016C197.561 115.511 205.333 114.639 213.124 114.414C214.277 114.379 215.669 114.491 216.212 115.511C216.829 116.67 215.752 118.112 214.497 118.496C213.241 118.882 211.892 118.602 210.578 118.61C207.077 118.628 203.79 120.698 200.293 120.506C198.866 120.427 197.417 119.972 196.034 120.336C194.652 120.699 193.512 122.448 194.414 123.556C192.428 124.08 189.929 123.674 188.662 125.294C187.588 126.67 188.126 128.635 188.364 130.364C188.601 132.095 188.005 134.392 186.265 134.524C182.901 134.776 183.733 129.62 183.869 127.75C184.068 125.006 182.924 121.667 184.849 119.334Z" fill="#2C2A28"/>
<path d="M220.67 73.5239C222.339 73.5826 224.018 73.6439 225.654 73.9759C229.123 74.6786 232.223 76.5546 235.244 78.4012C235.435 78.5172 235.636 78.6466 235.732 78.8492C235.908 79.2239 235.65 79.6506 235.403 79.9839C230.671 86.3626 225.94 92.7412 221.208 99.1186C220.716 98.3919 221.192 97.4226 221.666 96.6826C223.296 94.1346 224.926 91.5866 226.556 89.0399C227.959 86.8452 229.412 84.4892 229.402 81.8852C229.4 81.4199 229.344 80.9372 229.103 80.5386C228.847 80.1146 228.41 79.8359 227.962 79.6279C225.223 78.3532 221.788 79.2546 219.16 77.7666C218.198 77.2212 217.344 76.3599 216.243 76.2679C215.81 76.2292 215.376 76.3199 214.951 76.4079C212.16 76.9906 209.263 77.6199 207.014 79.3719C205.634 80.4439 204.584 81.8786 203.555 83.2906C199.691 88.5892 195.812 93.9092 192.714 99.6879C192.363 100.343 191.679 101.117 191.035 100.748C190.42 100.393 190.68 99.4599 191.023 98.8399C193.27 94.7719 195.816 90.8786 198.395 87.0119C201.108 82.9479 203.956 78.8159 207.795 75.7199C209.311 74.4972 210.911 73.2679 212.914 73.2012C215.468 73.1186 218.112 73.4319 220.67 73.5239Z" fill="#2C2A28"/>
<path d="M250.055 175.12C248.08 174.82 246.212 176.151 244.941 177.692C242.66 180.457 241.544 184.039 241.223 187.608C240.903 191.179 241.324 194.771 241.825 198.319C241.867 198.616 241.919 198.932 242.123 199.149C242.345 199.388 242.692 199.452 243.013 199.501C244.064 199.667 245.115 199.832 246.167 199.996C247.457 200.2 248.815 200.396 250.041 199.945C251.268 199.495 252.273 198.157 251.883 196.911C251.447 195.52 249.715 195.097 248.264 194.947C246.979 194.815 245.648 194.721 244.424 195.135C243.2 195.547 242.1 196.591 242.009 197.877" stroke="#252321" stroke-width="1.33333" stroke-miterlimit="10" stroke-linecap="round" stroke-linejoin="round"/>
<path d="M183.734 174.022C180.718 177.541 177.055 180.501 172.983 182.713C168.336 185.234 163.218 186.762 158.079 188.006C156.672 188.346 155.168 188.721 154.202 189.798C152.836 191.322 153.126 193.905 154.576 195.348C156.027 196.79 158.335 197.142 160.295 196.557C161.464 196.209 162.707 195.218 162.448 194.026C162.278 193.244 161.482 192.721 160.686 192.62C159.891 192.52 159.095 192.75 158.331 192.993C157.984 193.104 157.551 193.194 157.304 192.928C157.143 192.753 157.134 192.49 157.134 192.252C157.135 191.092 157.136 189.932 157.136 188.772" stroke="#252321" stroke-width="1.33333" stroke-miterlimit="10" stroke-linecap="round" stroke-linejoin="round"/>
<mask id="mask6_733_1458" style="mask-type:luminance" maskUnits="userSpaceOnUse" x="13" y="113" width="137" height="41">
<path d="M13.7402 113.659H149.046V153.223H13.7402V113.659Z" fill="white"/>
</mask>
<g mask="url(#mask6_733_1458)">
<path d="M14.1231 138.404C14.1231 138.404 11.3485 144.269 20.7378 146.041C30.1271 147.813 103.738 155.624 113.794 152.488C123.85 149.355 150.658 125.993 148.97 116.709C147.28 107.427 27.0978 120.672 14.1231 138.404Z" fill="#E2E2E2"/>
</g>
<path d="M19.113 106.677C15.6117 108.679 13.6397 112.705 13.185 116.712C12.729 120.72 13.5837 124.753 14.577 128.661C14.969 130.207 15.301 132.085 14.1584 133.199C13.6677 133.677 12.9917 133.905 12.333 134.093C9.89304 134.787 7.35037 135.117 4.81437 135.073C3.86504 135.056 2.82237 134.945 2.16104 134.261C1.28371 133.356 1.51437 131.763 2.37171 130.839C3.23037 129.913 4.52371 129.531 5.77304 129.353C8.85571 128.917 12.077 129.525 14.789 131.055" stroke="#252321" stroke-width="1.33333" stroke-miterlimit="10" stroke-linecap="round" stroke-linejoin="round"/>
<g filter="url(#filter1_d_733_1458)">
<path d="M36.2252 52.6358C30.3158 55.3731 25.3679 59.1451 20.6679 63.6878C18.9599 65.3371 17.2785 67.1345 16.4745 69.3705C15.9159 70.9211 15.8132 72.5931 15.7172 74.2371C14.5039 94.9078 15.3359 115.698 14.0865 136.458C14.0412 137.912 14.0319 139.488 14.8959 140.657C15.9265 142.049 17.8305 142.393 19.5465 142.628C49.0559 146.637 78.7785 149.07 108.547 149.916C111.704 150.004 114.557 149.962 117.359 148.393C120.183 146.812 122.524 144.498 124.808 142.24C130.781 136.332 136.756 130.424 142.731 124.514C144.567 122.7 146.419 120.865 147.833 118.705C153.171 110.55 151.515 99.4491 151.741 90.2185C152.021 78.8065 152.301 67.3945 152.581 55.9838C152.623 54.2691 152.615 52.3971 151.548 51.0558C150.2 49.3625 147.739 49.1811 145.576 49.1385C121.521 48.6678 97.4678 48.1971 73.4132 47.7251C60.7972 47.4785 47.6745 47.3318 36.2252 52.6358Z" fill="#FEFEFE"/>
</g>
<path d="M124.807 142.24C130.782 136.332 136.755 130.424 142.73 124.515C144.567 122.7 146.418 120.865 147.832 118.704C153.17 110.549 151.515 99.4493 151.742 90.2173C152.022 78.8066 152.3 67.3946 152.58 55.9839C152.622 54.2679 152.614 52.3973 151.547 51.0559C151.475 50.9653 151.387 50.8946 151.308 50.8133C150.062 52.1866 149.231 54.0746 147.482 54.6079C146.363 54.9493 145.036 54.6466 144.082 55.3226C142.578 56.3839 143.232 58.7933 142.411 60.4399C140.666 63.9359 134.455 61.4893 131.887 64.4346C130.28 66.2773 131.012 69.2426 129.82 71.3759C128.492 73.7493 125.39 74.2613 122.754 74.9386C120.12 75.6159 117.116 77.4546 117.431 80.1559C117.595 81.5639 118.663 83.0386 117.942 84.2573C117.448 85.0879 116.374 85.2986 115.464 85.6213C114.555 85.9439 113.578 86.7493 113.838 87.6786C113.976 88.1746 114.428 88.5039 114.808 88.8519C116.739 90.6066 117.212 93.7586 115.883 96.0026C115.435 96.7599 114.802 97.4346 114.604 98.2919C113.932 101.192 118.476 103.372 117.823 106.275C117.407 108.123 114.987 109.196 115.03 111.089C115.074 113.045 117.64 113.897 118.471 115.669C119.9 118.717 115.551 121.835 116.108 125.156C116.571 127.923 120.324 129.907 119.444 132.569C119.014 133.873 117.568 134.621 117.084 135.907C116.495 137.469 117.504 139.119 118.066 140.691C119.042 143.419 118.394 146.111 117.06 148.541C117.16 148.489 117.259 148.448 117.359 148.393C120.183 146.812 122.524 144.499 124.807 142.24Z" fill="#C6D0D8"/>
<path d="M28.1253 90.9625C26.1547 90.5159 24.1573 92.0292 23.388 93.8972C23.08 94.6452 22.9187 95.4812 23.1133 96.2652C23.308 97.0479 23.9133 97.7612 24.7067 97.9185C23.5067 98.1065 22.4507 99.0252 22.0987 100.188C21.748 101.351 22.1173 102.701 23.0133 103.523C21.6093 104.429 21.0573 106.44 21.7987 107.937C22.5413 109.435 24.4773 110.212 26.048 109.644" stroke="#D8E2EA" stroke-width="1.33333" stroke-miterlimit="10" stroke-linecap="round" stroke-linejoin="round"/>
<path d="M32.7483 112.883C31.3309 113.102 30.1189 114.296 29.8789 115.708C29.6376 117.123 30.3883 118.65 31.6536 119.323C30.4829 120.064 29.7029 121.507 30.0069 122.858C30.3123 124.21 31.8816 125.215 33.1656 124.696C32.4683 125.298 31.7549 125.918 31.3243 126.731C30.8923 127.543 30.7976 128.602 31.3323 129.352C31.9536 130.224 33.1576 130.399 34.2243 130.496" stroke="#D8E2EA" stroke-width="1.33333" stroke-miterlimit="10" stroke-linecap="round" stroke-linejoin="round"/>
<path d="M105.819 91.357C106.897 91.6316 107.691 92.753 107.591 93.861C107.489 94.9676 106.508 95.929 105.399 96.005C105.86 96.7983 106.717 97.4116 106.817 98.325C106.921 99.2783 105.927 100.181 104.985 99.985C105.451 100.454 105.871 100.994 106.068 101.625C106.265 102.256 106.209 102.994 105.799 103.512C105.113 104.374 103.812 104.324 102.719 104.193" stroke="#D8E2EA" stroke-width="1.33333" stroke-miterlimit="10" stroke-linecap="round" stroke-linejoin="round"/>
<path d="M103.794 121.176C104.668 121.389 105.504 121.752 106.256 122.243C106.488 122.393 106.72 122.565 106.85 122.809C107.1 123.272 106.901 123.873 106.529 124.245C106.157 124.616 105.649 124.812 105.156 124.995C106.774 125.297 108.016 126.959 107.845 128.596C107.673 130.235 106.116 131.604 104.469 131.564C105.47 131.853 106.544 132.188 107.172 133.019C107.694 133.711 107.812 134.637 107.72 135.5C107.628 136.371 107.309 137.265 106.628 137.815C105.776 138.504 104.55 138.507 103.489 138.239C102.538 137.999 101.637 137.569 100.852 136.983" stroke="#D8E2EA" stroke-width="1.33333" stroke-miterlimit="10" stroke-linecap="round" stroke-linejoin="round"/>
<path d="M142.316 74.352C143.075 74.1773 143.877 74.492 144.479 74.988C145.045 75.4547 145.499 76.1853 145.324 76.9C145.068 77.9427 143.768 78.2467 142.899 78.8773C142.811 78.94 142.719 79.0227 142.709 79.1307C142.7 79.2573 142.803 79.36 142.897 79.4427C143.419 79.9 143.941 80.3573 144.463 80.8147C144.767 81.0813 145.099 81.4133 145.061 81.8173C145.003 82.4373 144.191 82.6147 143.567 82.6293C143.421 82.9693 143.635 83.3707 143.932 83.592C144.229 83.812 144.596 83.912 144.927 84.0747C145.623 84.4187 146.183 85.12 146.169 85.896C146.153 86.784 145.399 87.5213 144.557 87.8067C143.715 88.0907 142.801 88.02 141.916 87.9467" stroke="#7FA6AD" stroke-width="1.33333" stroke-miterlimit="10" stroke-linecap="round" stroke-linejoin="round"/>
<path d="M129.167 87.8492C129.343 87.4799 129.926 87.6812 130.174 88.0079C130.667 88.6599 130.717 89.5852 130.406 90.3425C130.097 91.0999 129.47 91.6972 128.755 92.0959C129.51 92.6265 130.35 93.3185 130.306 94.2412C130.278 94.8399 129.863 95.3799 129.882 95.9799C129.901 96.5279 130.279 97.0119 130.313 97.5599C130.362 98.3519 129.65 99.0279 128.881 99.2185C128.11 99.4092 127.302 99.2359 126.527 99.0625" stroke="#A0B3C1" stroke-width="1.33333" stroke-miterlimit="10" stroke-linecap="round" stroke-linejoin="round"/>
<path d="M138.767 105.162C139.341 105.219 139.935 105.295 140.423 105.6C140.911 105.908 141.261 106.514 141.091 107.064C140.947 107.532 140.493 107.823 140.071 108.075C139.454 108.44 138.838 108.806 138.221 109.174C139.23 109.2 140.059 110.068 140.373 111.027C140.686 111.987 140.597 113.026 140.502 114.031C140.486 114.199 140.467 114.375 140.375 114.515C140.27 114.672 140.089 114.758 139.913 114.826C138.775 115.262 137.518 115.216 136.301 115.163" stroke="#A0B3C1" stroke-width="1.33333" stroke-miterlimit="10" stroke-linecap="round" stroke-linejoin="round"/>
<mask id="mask7_733_1458" style="mask-type:luminance" maskUnits="userSpaceOnUse" x="14" y="61" width="102" height="31">
<path d="M14.0273 61.5856H115.644V91.4802H14.0273V61.5856Z" fill="white"/>
</mask>
<g mask="url(#mask7_733_1458)">
<g opacity="0.600006">
<path d="M29.2819 86.2243C31.2446 86.7856 33.3086 85.9656 35.1846 85.159C36.4419 84.619 37.6993 84.079 38.9566 83.5376C40.7526 82.767 42.5753 81.9776 44.0713 80.7216C46.5033 81.9123 49.6713 81.3616 51.5593 79.4203C51.8833 79.087 52.2019 78.699 52.6539 78.5883C53.0273 78.4976 53.4153 78.615 53.7873 78.7096C56.7793 79.4736 60.1166 78.7123 62.4819 76.7283C66.1206 78.675 70.7993 78.5096 74.2913 76.3083C74.2579 77.7683 75.9619 78.6883 77.4219 78.6563C78.8819 78.6256 80.2873 78.0163 81.7486 78.0203C85.0726 78.027 87.8739 81.1496 91.1873 80.871C91.8553 80.815 92.5299 80.619 93.1833 80.763C93.8193 80.903 94.3393 81.3416 94.8966 81.679C96.4139 82.5963 98.3606 82.7643 100.011 82.1203C101.446 84.1296 103.989 85.2896 106.446 85.0576C106.937 85.011 107.459 84.919 107.901 85.1376C108.393 85.379 108.634 85.9283 108.977 86.3576C110.318 88.035 113.245 87.5296 114.539 85.8136C115.835 84.0976 115.83 81.7176 115.338 79.6256C114.499 76.059 112.383 72.8056 109.462 70.5923C107.337 68.983 104.847 67.9363 102.367 66.9603C97.7326 65.135 93.0033 63.4896 88.1059 62.5856C82.8659 61.6163 77.5059 61.5096 72.1793 61.623C62.2553 61.835 52.2886 62.8203 42.7513 65.567C33.2126 68.311 24.0873 72.8843 16.8339 79.6576C14.6179 81.7256 13.4953 83.727 14.2739 86.759C14.7233 88.5136 15.4753 90.6003 17.3366 91.2536C20.0259 92.2003 21.3099 89.919 23.3379 89.2656C24.3686 88.9336 25.5433 89.4203 26.7086 88.863C27.8393 88.3216 28.8006 87.3923 29.2819 86.2243Z" fill="#C6D0D8"/>
</g>
</g>
<path d="M7.109 71.2777C4.57033 76.0204 2.765 82.1977 6.01966 86.479C8.585 89.855 13.4863 90.643 17.605 89.6417C21.7237 88.6404 25.3183 86.207 28.9917 84.091C53.873 69.7617 86.3623 69.7137 111.288 83.9697C116.89 87.1737 122.164 91.0564 128.198 93.3457C133.694 95.431 139.609 96.1124 145.466 96.6097C148.674 96.883 152.081 97.0697 154.936 95.5764C157.13 94.427 158.738 92.4057 160.022 90.2857C164.869 82.2844 165.832 72.227 163.433 63.1857C162.284 58.851 160.364 54.655 157.366 51.3204C153.976 47.547 149.398 45.0644 144.796 42.9297C123.424 33.023 99.301 29.139 75.8997 31.8377C49.9743 34.827 19.9103 47.359 7.109 71.2777Z" fill="#F4983C"/>
<path d="M37.5366 64.2906C40.0326 53.0306 50.3446 42.6293 61.0526 34.5306C58.0539 35.2733 55.0553 36.1493 52.0833 37.144C42.0006 46.012 35.9313 54.848 34.0113 63.5093C30.1166 81.0826 16.1446 86.5773 8.00195 88.296C9.89529 89.5586 12.2766 90.1 14.6566 90.0293C23.4086 86.824 34.1046 79.776 37.5366 64.2906Z" fill="#FEFCC4"/>
<path d="M85.5577 31.1098C83.2964 31.1951 81.0391 31.3484 78.7857 31.5564C68.8857 39.1404 60.6204 48.3058 54.4124 56.3071C47.6791 64.9831 42.5057 73.3444 39.1777 79.1831C40.9271 78.4884 42.6991 77.8591 44.4924 77.2871C52.1911 64.5018 66.5297 43.9698 85.5577 31.1098Z" fill="#FEFCC4"/>
<path d="M98.0984 36.9756C101.242 35.0436 104.45 33.4489 107.505 32.1396C105.273 31.8422 103.033 31.6129 100.789 31.4329C87.1184 38.5609 72.6064 51.3209 72.5957 73.3449C73.801 73.3782 75.005 73.4422 76.2077 73.5249C76.133 58.2449 83.4624 45.9689 98.0984 36.9756Z" fill="#FEFCC4"/>
<path d="M158.231 70.9236C160.187 67.4289 161.601 63.9382 162.619 60.5502C161.977 58.7062 161.183 56.9156 160.201 55.2382C159.297 59.7156 157.707 64.4796 155.053 69.2076C149.456 79.1822 140.272 87.1809 127.664 93.1222C127.843 93.1942 128.017 93.2782 128.199 93.3449C129.637 93.8929 131.107 94.3382 132.593 94.7129C144.191 88.6236 152.776 80.6716 158.231 70.9236Z" fill="#FEFCC4"/>
<path d="M147.385 44.1863C146.527 43.753 145.663 43.3317 144.796 42.9303C144.533 42.809 144.265 42.6997 144.003 42.5797C140.899 58.861 129.588 72.5237 110.227 83.385C110.58 83.581 110.937 83.769 111.288 83.969C112.148 84.4597 112.999 84.9703 113.847 85.4863C132.761 74.4357 143.981 60.6117 147.385 44.1863Z" fill="#FEFCC4"/>
<path d="M110.62 63.9691C122.263 57.9945 130.231 48.4238 135.604 39.1171C134.424 38.6785 133.241 38.2518 132.049 37.8491C126.952 46.5251 119.549 55.3291 108.971 60.7571C101.252 64.7185 95.272 70.0651 90.6387 75.7745C91.948 76.0958 93.2493 76.4478 94.54 76.8318C98.7373 71.9091 104.009 67.3611 110.62 63.9691Z" fill="#FEFCC4"/>
<path d="M36.9459 43.5252C35.2099 44.4292 33.5059 45.3812 31.8406 46.3866C31.7739 46.5266 31.7166 46.6599 31.6473 46.7999C28.4539 53.2372 21.4779 62.5839 6.38859 72.7199C5.56459 74.4679 4.88458 76.3492 4.53125 78.2266C26.0926 64.7879 34.0939 52.0866 36.9459 43.5252Z" fill="#FEFCC4"/>
<path d="M6.0193 86.4794C8.58463 89.8541 13.4873 90.6434 17.6046 89.6421C21.7233 88.6408 25.318 86.2074 28.9913 84.0914C53.874 69.7621 86.362 69.7141 111.287 83.9688C116.891 87.1741 122.163 91.0568 128.199 93.3448C133.694 95.4314 139.61 96.1128 145.466 96.6101C148.675 96.8834 152.081 97.0688 154.935 95.5754C157.13 94.4274 158.739 92.4048 160.022 90.2848C161.881 87.2194 163.161 83.8501 163.907 80.3528C163.677 80.5114 163.445 80.6741 163.209 80.8248C157.914 84.2181 151.549 85.6288 145.266 85.8848C135.122 86.2954 124.877 83.7848 116.075 78.7274C113.585 77.2954 111.213 75.6701 108.726 74.2314C89.43 63.0754 65.0713 64.4034 43.902 71.3821C35.438 74.1714 27.1113 77.8261 18.2313 78.5821C15.3446 78.8288 12.022 78.5741 10.2126 76.3114C9.09797 74.9181 8.81397 73.0461 8.71797 71.2648C8.6713 70.3728 8.71397 69.3914 8.80463 68.3594C8.21397 69.3154 7.64063 70.2834 7.10863 71.2781C4.5713 76.0194 2.76463 82.1981 6.0193 86.4794Z" fill="#B76121"/>
<mask id="mask8_733_1458" style="mask-type:luminance" maskUnits="userSpaceOnUse" x="4" y="58" width="161" height="39">
<path d="M4.26367 58.8297H164.694V96.7964H4.26367V58.8297Z" fill="white"/>
</mask>
<g mask="url(#mask8_733_1458)">
<g opacity="0.300003">
<path d="M6.0193 86.4797C8.58463 89.8543 13.4873 90.6437 17.6046 89.6423C21.7233 88.641 25.318 86.2077 28.9913 84.0917C53.874 69.7623 86.362 69.7143 111.287 83.969C116.891 87.1743 122.163 91.057 128.199 93.345C133.694 95.4317 139.61 96.113 145.466 96.6103C148.675 96.8837 152.081 97.069 154.935 95.5757C157.13 94.4277 158.739 92.405 160.022 90.285C164.869 82.285 165.831 72.2277 163.434 63.185C163.394 63.037 163.347 62.8903 163.306 62.7423C159.798 67.117 154.305 70.229 148.69 71.1943C139.29 72.8103 129.758 69.9503 120.661 67.0797C106.527 62.6223 92.0166 58.0143 77.2273 58.953C66.7966 59.6157 56.7486 63.0157 46.4366 64.7223C36.126 66.4263 24.8153 66.2143 16.1566 60.3597C15.8726 60.169 15.59 59.969 15.3086 59.7663C12.1273 63.265 9.34863 67.093 7.10863 71.2783C4.5713 76.0197 2.76463 82.1983 6.0193 86.4797Z" fill="#F4983C"/>
</g>
</g>
<path d="M44.8 90.0342C44.8 92.2035 43.0413 93.9622 40.8733 93.9622C38.704 93.9622 36.9453 92.2035 36.9453 90.0342C36.9453 87.8662 38.704 86.1075 40.8733 86.1075C43.0413 86.1075 44.8 87.8662 44.8 90.0342Z" fill="#252321"/>
<path d="M93.1535 90.0342C93.1535 92.2035 91.3962 93.9622 89.2268 93.9622C87.0575 93.9622 85.2988 92.2035 85.2988 90.0342C85.2988 87.8662 87.0575 86.1075 89.2268 86.1075C91.3962 86.1075 93.1535 87.8662 93.1535 90.0342Z" fill="#252321"/>
<path d="M60.1445 95.0131C60.1445 95.0131 63.5805 85.7238 67.0725 95.0131" stroke="#252321" stroke-width="1.33333" stroke-miterlimit="10" stroke-linecap="round" stroke-linejoin="round"/>
<path d="M80.5168 146.041C72.9074 150.61 66.1021 156.514 60.5061 163.402C60.0341 163.983 59.4234 164.634 58.6821 164.523C58.2354 164.458 57.8808 164.121 57.5808 163.782C55.0354 160.91 54.2154 156.615 55.5234 153.007C55.9594 151.806 56.9807 150.503 58.2261 150.79C59.5487 151.094 59.8221 152.831 59.8154 154.189C59.7994 157.23 59.7834 160.269 59.7674 163.309" stroke="#252321" stroke-width="1.33333" stroke-miterlimit="10" stroke-linecap="round" stroke-linejoin="round"/>
<path d="M56.6496 143.241C49.0402 147.811 42.2349 153.715 36.6389 160.603C36.1669 161.184 35.5562 161.835 34.8149 161.724C34.3682 161.659 34.0136 161.321 33.7136 160.983C31.1682 158.111 30.3482 153.817 31.6562 150.208C32.0922 149.007 33.1136 147.704 34.3576 147.991C35.6802 148.295 35.9549 150.032 35.9482 151.389C35.9322 154.431 35.9162 157.469 35.9002 160.509" stroke="#252321" stroke-width="1.33333" stroke-miterlimit="10" stroke-linecap="round" stroke-linejoin="round"/>
<path d="M139.609 106.677C143.109 108.679 145.081 112.705 145.537 116.712C145.992 120.72 145.137 124.753 144.145 128.661C143.752 130.207 143.421 132.085 144.564 133.199C145.055 133.677 145.731 133.905 146.389 134.093C148.829 134.787 151.372 135.117 153.908 135.073C154.857 135.056 155.9 134.945 156.561 134.261C157.439 133.356 157.208 131.763 156.349 130.839C155.492 129.913 154.199 129.531 152.949 129.353C149.867 128.917 146.644 129.525 143.932 131.055" stroke="#252321" stroke-width="1.33333" stroke-miterlimit="10" stroke-linecap="round" stroke-linejoin="round"/>
<defs>
<filter id="filter0_d_733_1458" x="148.809" y="87.0637" width="163.842" height="106.813" filterUnits="userSpaceOnUse" color-interpolation-filters="sRGB">
<feFlood flood-opacity="0" result="BackgroundImageFix"/>
<feColorMatrix in="SourceAlpha" type="matrix" values="0 0 0 0 0 0 0 0 0 0 0 0 0 0 0 0 0 0 127 0" result="hardAlpha"/>
<feOffset dy="3"/>
<feGaussianBlur stdDeviation="5"/>
<feComposite in2="hardAlpha" operator="out"/>
<feColorMatrix type="matrix" values="0 0 0 0 0 0 0 0 0 0 0 0 0 0 0 0 0 0 0.03 0"/>
<feBlend mode="normal" in2="BackgroundImageFix" result="effect1_dropShadow_733_1458"/>
<feBlend mode="normal" in="SourceGraphic" in2="effect1_dropShadow_733_1458" result="shape"/>
</filter>
<filter id="filter1_d_733_1458" x="4.07031" y="40.6318" width="158.523" height="122.311" filterUnits="userSpaceOnUse" color-interpolation-filters="sRGB">
<feFlood flood-opacity="0" result="BackgroundImageFix"/>
<feColorMatrix in="SourceAlpha" type="matrix" values="0 0 0 0 0 0 0 0 0 0 0 0 0 0 0 0 0 0 127 0" result="hardAlpha"/>
<feOffset dy="3"/>
<feGaussianBlur stdDeviation="5"/>
<feComposite in2="hardAlpha" operator="out"/>
<feColorMatrix type="matrix" values="0 0 0 0 0 0 0 0 0 0 0 0 0 0 0 0 0 0 0.03 0"/>
<feBlend mode="normal" in2="BackgroundImageFix" result="effect1_dropShadow_733_1458"/>
<feBlend mode="normal" in="SourceGraphic" in2="effect1_dropShadow_733_1458" result="shape"/>
</filter>
</defs>
</svg>
