<svg width="161" height="131" viewBox="0 0 161 131" fill="none" xmlns="http://www.w3.org/2000/svg">
<mask id="mask0_733_1567" style="mask-type:luminance" maskUnits="userSpaceOnUse" x="51" y="105" width="59" height="7">
<path d="M51.127 105H109.958V111.952H51.127V105Z" fill="white"/>
</mask>
<g mask="url(#mask0_733_1567)">
<path d="M51.127 105C51.127 105 55.7883 112.417 82.0336 111.929C108.28 111.44 109.959 105 109.959 105H51.127Z" fill="#D2DCE4"/>
</g>
<path d="M130.576 79.1021C131.706 85.3287 134.634 91.2181 138.916 95.8781C140.708 96.4607 142.564 95.3341 144.106 94.2514C145.692 93.1367 147.444 91.6754 147.356 89.7394C147.344 89.4981 147.302 89.2541 147.186 89.0434C146.958 88.6301 146.487 88.4101 146.026 88.3047C144.035 87.8541 141.971 89.1407 140.903 90.8807C139.835 92.6194 139.631 93.9661 139.442 95.9981" stroke="#252321" stroke-width="1.33333" stroke-miterlimit="10" stroke-linecap="round" stroke-linejoin="round"/>
<path d="M34.1394 79.1021C33.0114 85.3287 30.0834 91.2181 25.8007 95.8781C24.0087 96.4607 22.1514 95.3341 20.61 94.2514C19.0234 93.1367 17.2714 91.6754 17.3607 89.7394C17.3714 89.4981 17.414 89.2541 17.53 89.0434C17.758 88.6301 18.23 88.4101 18.6914 88.3047C20.6807 87.8541 22.746 89.1407 23.8127 90.8807C24.8807 92.6194 25.0847 93.9661 25.274 95.9981" stroke="#252321" stroke-width="1.33333" stroke-miterlimit="10" stroke-linecap="round" stroke-linejoin="round"/>
<path d="M50.5664 99.7818C50.5664 99.7818 53.2971 111.028 80.4171 110.623C107.537 110.218 113.501 99.7818 113.501 99.7818H50.5664Z" fill="#CECCCC"/>
<path d="M0.710938 12.3442C0.710938 12.3442 2.3216 103.858 80.4163 106.006C158.512 108.151 160.123 12.3442 160.123 12.3442H0.710938Z" fill="#F1F1F1"/>
<path d="M160.124 12.3445H144C143.517 34.9018 134.78 75.7072 83.9863 106.035C158.561 105.21 160.124 12.3445 160.124 12.3445Z" fill="#E6E7E8"/>
<path d="M160.123 12.3445C160.123 19.0139 124.436 24.4219 80.4176 24.4219C36.3976 24.4219 0.710938 19.0139 0.710938 12.3445C0.710938 5.67521 36.3976 0.268543 80.4176 0.268543C124.436 0.268543 160.123 5.67521 160.123 12.3445Z" fill="#E8E8E8"/>
<path d="M149.119 13.1877C149.119 18.085 117.741 22.0557 79.0327 22.0557C40.3234 22.0557 8.94336 18.085 8.94336 13.1877C8.94336 8.29033 40.3234 4.31966 79.0327 4.31966C117.741 4.31966 149.119 8.29033 149.119 13.1877Z" fill="#C1BFBF"/>
<path d="M139.72 17.622C127.6 14.9726 104.97 13.1873 79.0317 13.1873C53.0931 13.1873 30.4637 14.9726 18.3438 17.622C30.4637 20.2713 53.0931 22.0566 79.0317 22.0566C104.97 22.0566 127.6 20.2713 139.72 17.622Z" fill="#512B08"/>
<path d="M61.7179 68.2527C61.7179 70.422 59.9593 72.1807 57.7899 72.1807C55.6219 72.1807 53.8633 70.422 53.8633 68.2527C53.8633 66.0847 55.6219 64.326 57.7899 64.326C59.9593 64.326 61.7179 66.0847 61.7179 68.2527Z" fill="#252321"/>
<path d="M105.46 68.2527C105.46 70.422 103.701 72.1807 101.533 72.1807C99.3635 72.1807 97.6035 70.422 97.6035 68.2527C97.6035 66.0847 99.3635 64.326 101.533 64.326C103.701 64.326 105.46 66.0847 105.46 68.2527Z" fill="#252321"/>
<path d="M93.1973 74.9455C93.1973 74.9455 80.0586 66.2549 65.7546 74.9455H93.1973Z" fill="#252321"/>
<path d="M64.7486 100.938C61.7872 97.2835 57.0046 95.6969 52.4259 94.6195C49.8766 94.0195 47.1286 93.5342 44.6992 94.5142C42.4126 95.4382 40.7632 97.5755 39.9846 99.9155C39.2059 102.257 39.2072 104.789 39.4806 107.24C39.9686 111.608 41.3046 115.881 43.3926 119.748C44.0592 120.984 44.8206 122.237 44.9166 123.637C44.9926 124.722 44.6512 125.805 44.1286 126.76C43.2459 128.368 41.6992 129.729 39.8712 129.889C38.0446 130.049 36.0766 128.656 36.0472 126.821C36.0232 125.312 37.2006 124.053 38.4486 123.202C40.2352 121.985 42.6112 121.237 44.5486 122.197" stroke="#252321" stroke-width="1.33333" stroke-miterlimit="10" stroke-linecap="round" stroke-linejoin="round"/>
<path d="M95.6016 102.126C103.931 104.736 111.23 109.874 117.979 115.408C121.959 118.67 125.855 122.162 128.602 126.514C130.594 126.704 132.643 126.256 134.375 125.249C135.211 124.764 136.002 124.117 136.391 123.233C136.782 122.348 136.67 121.19 135.93 120.569C135.003 119.789 133.574 120.132 132.54 120.764C130.684 121.9 129.355 123.857 128.984 126" stroke="#252321" stroke-width="1.33333" stroke-miterlimit="10" stroke-linecap="round" stroke-linejoin="round"/>
</svg>
