<svg width="400" height="417" viewBox="0 0 400 417" fill="none" xmlns="http://www.w3.org/2000/svg">
<path d="M382.217 397.879L257.225 385.727L145.253 386.306L36.7539 398.602L39.3562 31.4381L382.217 28.256V397.879Z" fill="#F1F1F1"/>
<path d="M29.1875 384.907H370.817V25.8802H29.1875V384.907Z" fill="#F2EFEB"/>
<mask id="mask0_699_2585" style="mask-type:luminance" maskUnits="userSpaceOnUse" x="29" y="25" width="342" height="360">
<path d="M29.1875 384.907H370.817V25.8802H29.1875V384.907Z" fill="white"/>
</mask>
<g mask="url(#mask0_699_2585)">
<path d="M222.795 302.979C221.794 302.979 220.868 302.402 220.437 301.477L211.429 282.187C210.82 280.884 211.384 279.334 212.686 278.726C213.991 278.115 215.54 278.68 216.147 279.983L224.351 297.549L283.078 289.979C284.5 289.799 285.81 290.803 285.994 292.229C286.177 293.656 285.17 294.961 283.744 295.145L223.129 302.958C223.017 302.972 222.905 302.979 222.795 302.979Z" fill="#C9C9C9"/>
<path d="M222.759 302.653C221.76 302.653 220.807 302.075 220.376 301.103C219.794 299.788 220.388 298.25 221.702 297.668L278.449 272.532C279.764 271.948 281.302 272.544 281.884 273.858C282.467 275.173 281.873 276.711 280.558 277.294L223.812 302.429C223.469 302.581 223.11 302.653 222.759 302.653Z" fill="#C9C9C9"/>
<path d="M207.458 59.0713C207.048 59.0713 206.633 58.9741 206.245 58.7692L175.576 42.5663C174.304 41.8944 173.817 40.319 174.49 39.0474C175.162 37.7749 176.737 37.2906 178.008 37.9615L208.677 54.1645C209.949 54.8363 210.436 56.4117 209.763 57.6834C209.296 58.567 208.393 59.0713 207.458 59.0713Z" fill="#C9C9C9"/>
<path d="M26.167 82.1889C26.167 82.1889 92.0092 84.6254 98.0982 86.4734C104.188 88.3196 111.382 50.2049 111.382 50.2049L103.79 15.03L18.0469 17.8154" fill="#F2DCBD"/>
<path d="M218.973 161.382L223.185 203.4L261.888 194.467L298.731 171.463L293.194 144.054L299.888 117.735C299.888 117.735 259.43 116.658 246.16 127.81C237.283 138.253 244.408 153.205 244.408 153.205L218.973 161.382Z" fill="#F2DCBD"/>
<path d="M46.7548 255.931L60.6792 299.211L50.534 303.421L56.8939 341.547L12.5938 363.465L19.9023 276.095C19.9023 276.095 29.7263 260.916 46.7548 255.931Z" fill="#F2DCBD"/>
<path d="M378.198 164.012C374.306 166.333 311.98 198.453 310.511 200.449C310.511 200.449 331.749 237.044 331.785 237.11C331.824 237.174 285.938 250.948 285.938 250.948L314.382 315.778L383.305 291.063L378.198 164.012Z" fill="#F2DCBD"/>
<path d="M130.722 386.323C126.941 382.73 108.318 357.083 110.754 356.62C113.191 356.155 133.727 359.172 138.6 356.62C143.473 354.067 190.363 336.222 196.679 332.439C204.109 333.034 210.211 333.56 213.776 332.439C217.34 331.319 238.179 324.766 239.01 324.506C239.84 324.244 234.499 376.179 237.283 378.086C240.069 379.99 290.706 363.773 292.795 364.816C294.883 365.861 287.609 392.231 287.609 392.231L316.126 385.395C316.126 385.395 298.989 350.947 298.72 348.845C298.451 346.744 292.852 320.829 292.852 320.829C292.852 320.829 343.972 319.606 349.542 315.778C355.111 311.948 382.608 303.42 382.608 303.42L385.743 399.319L130.722 386.323Z" fill="#A5CB53"/>
<path d="M263.757 16.5948C254.285 22.4851 233.628 29.2476 243.607 60.776C250.569 63.9937 254.978 65.1551 254.978 65.1551C254.978 65.1551 263.104 66.7773 267.279 66.3147C271.454 65.8512 303.479 52.3903 303.71 51.695C303.942 50.9988 306.263 15.0298 306.263 15.0298L263.757 16.5948Z" fill="#A5CB53"/>
<path d="M95.7821 319.606L75.9414 292.804L86.0362 283.058L78.1696 253.768L136.509 237.456L156.002 222.838L161.572 233.628L188.722 219.009L217.614 211.351L225.767 223.883L168.882 256.255L171.665 266.001C171.665 266.001 108.662 320.65 95.7821 319.606Z" fill="#A5CB53"/>
<path d="M105.762 135.237C105.762 136.629 105.761 160.066 105.994 161.458C106.226 162.851 120.612 193.714 121.775 195.572C122.934 197.427 135.002 214.136 135.002 214.136C135.002 214.136 165.866 201.604 175.148 190.93C184.661 182.344 200.441 168.653 200.441 168.653C200.441 168.653 201.19 150.147 200.441 147.172C200.079 145.731 194.636 116.671 194.636 116.671C194.636 116.671 178.534 122.239 160.759 134.077C154.959 137.325 108.547 134.307 105.762 135.237Z" fill="#A5CB53"/>
<path d="M20.1542 265.76L15.9375 257.194C25.1418 252.662 39.344 247.767 55.7882 242.098C94.2415 228.844 146.904 210.691 179.187 182.244C202.432 161.761 220.12 144.871 230.898 129.013C241.776 113.009 244.981 99.1022 241.289 83.92C236.41 63.8657 235.466 50.0766 238.225 39.2076C241.549 26.1164 250.46 16.7628 265.466 10.6122L269.087 19.4475C246.206 28.8246 241.532 44.524 250.566 81.6632C259.938 120.196 229.51 150.625 185.5 189.407C151.8 219.103 98.1059 237.611 58.9 251.125C42.7596 256.688 28.8204 261.493 20.1542 265.76Z" fill="#29ABE2"/>
<path d="M164.65 82.667C159.363 82.667 158.338 81.8459 157.857 81.4605C156.822 80.6324 155.846 79.8503 155.185 66.5456C154.913 61.0712 154.813 55.6522 154.793 54.0855C153.735 51.5744 146.359 38.3677 143.805 34.5598C137.553 35.9295 110.923 42.8579 94.4492 47.1441C74.0825 52.4432 74.0503 52.4432 73.5044 52.4432C73.0834 52.4649 67.5681 52.9059 61.1814 53.4171C49.2082 54.3754 31.1147 55.8232 24.2445 56.2659C22.8167 56.3614 21.5711 55.2712 21.4782 53.8355C21.3853 52.3998 22.4738 51.1621 23.9095 51.0692C30.7398 50.6291 48.8089 49.183 60.7665 48.2256C69.6591 47.5139 72.3413 47.3021 73.1797 47.25C74.5165 46.9488 83.5697 44.593 93.1377 42.1036C144.269 28.8007 144.523 28.8805 145.686 29.2676C146.743 29.62 147.381 29.8327 153.787 41.161C159.998 52.1429 159.998 52.9883 159.998 53.668C159.998 58.3161 160.508 73.4497 161.402 77.3236C163.605 77.6187 169.589 77.3435 174.533 76.8366C175.966 76.6908 177.243 77.7307 177.389 79.1611C177.536 80.5925 176.495 81.871 175.065 82.0177C170.442 82.4917 167.091 82.667 164.65 82.667Z" fill="#C9C9C9"/>
<path d="M157.394 56.2722C156.947 56.2722 156.496 56.1576 156.084 55.9163C154.842 55.1916 154.422 53.597 155.147 52.3549C157.02 49.1459 160.485 41.2246 161.793 38.1935L152.371 22.2735C151.639 21.0358 152.048 19.4386 153.286 18.7069C154.526 17.9735 156.121 18.384 156.853 19.6209L166.948 36.6789C167.369 37.3906 167.428 38.2603 167.105 39.0216C166.902 39.4972 162.138 50.7092 159.645 54.9806C159.161 55.8096 158.289 56.2722 157.394 56.2722Z" fill="#C9C9C9"/>
<path d="M27.1495 150.604C26.3613 150.604 25.5827 150.248 25.0706 149.571C24.2026 148.424 24.4291 146.791 25.5766 145.923C28.7917 143.491 94.9541 95.0494 98.7273 93.6866C99.374 93.4523 99.9972 93.4601 101.128 93.4748C105.609 93.5365 119.218 93.7118 130.139 76.6304C143.089 56.3748 142.271 32.0873 142.261 31.8451C142.204 30.4086 143.32 29.196 144.757 29.137C146.192 29.0979 147.405 30.1933 147.465 31.6299C147.509 32.6862 148.385 57.7601 134.527 79.4358C122.046 98.9571 106.253 98.7523 101.06 98.6828C100.825 98.6802 100.558 98.6724 100.353 98.6768C94.587 101.969 36.1385 144.462 28.7188 150.076C28.2483 150.432 27.6963 150.604 27.1495 150.604Z" fill="#C9C9C9"/>
<path d="M116.669 95.954C115.276 95.954 114.121 94.8508 114.069 93.4472C114.04 92.6825 113.37 74.7001 113.37 73.0449C113.32 72.2315 112.276 67.2553 111.586 63.963C110.294 57.808 109.914 55.8888 109.891 55.026C109.82 54.448 109.237 52.2615 108.767 50.4994C107.522 45.8331 106.641 42.3888 106.641 40.5582C106.641 39.1199 107.807 37.9542 109.245 37.9542C110.683 37.9542 111.849 39.1199 111.849 40.5582C111.849 41.8472 113.07 46.4233 113.799 49.1566C114.781 52.8369 115.098 54.0973 115.098 54.9445C115.153 55.6059 116.037 59.8183 116.683 62.8936C118.129 69.7855 118.578 72.0848 118.578 73.0449C118.578 74.3382 119.08 88.0708 119.273 93.2528C119.327 94.6902 118.206 95.8984 116.768 95.9522C116.735 95.954 116.702 95.954 116.669 95.954Z" fill="#C9C9C9"/>
<path d="M200.68 163.986C200.577 163.986 200.472 163.98 200.367 163.968C198.939 163.796 197.92 162.5 198.092 161.072C198.57 157.079 198.937 152.117 198.731 150.992C197.701 147.971 192.263 120.878 192.05 118.532C191.878 116.638 193.218 112.808 197.333 102.257C198.673 98.821 199.94 95.5747 200.247 94.4202C201.201 90.8484 205.296 61.418 205.3 58.1943C205.002 56.8055 205.653 54.7466 210.19 43.4808C211.457 40.3352 213.033 36.4196 213.209 35.6297C213.827 32.537 218.891 24.7059 223.833 19.2072C224.795 18.1369 226.442 18.0492 227.51 19.011C228.58 19.9719 228.668 21.6185 227.707 22.6879C222.803 28.1441 218.624 35.1089 218.314 36.6583C218.1 37.7268 217.194 40.0305 215.02 45.4268C213.427 49.3875 210.789 55.934 210.471 57.5545C210.57 58.7663 210.331 62.2765 208.418 75.9865C207.289 84.0771 205.826 93.7171 205.28 95.7613C204.917 97.1266 203.867 99.8383 202.184 104.151C200.388 108.76 197.39 116.441 197.245 118.142C197.566 120.973 202.953 147.229 203.628 149.223C203.824 149.698 204.503 151.349 203.262 161.692C203.104 163.015 201.98 163.986 200.68 163.986Z" fill="#C9C9C9"/>
<path d="M346.613 397.268C344.938 397.268 343.54 396.082 343.213 394.503C341.488 389.161 307.05 308.686 279.343 243.94C260.145 199.078 243.564 160.334 239.467 150.364C239.424 150.258 239.386 150.151 239.353 150.041C236.991 142.168 240.169 129.354 244.355 125.169C248.574 120.949 265.112 115.977 271.134 115.42C279.455 114.648 375.015 113.259 379.079 113.2C379.096 113.199 379.113 113.199 379.13 113.199C381.025 113.199 382.573 114.721 382.601 116.622C382.628 118.538 381.097 120.115 379.18 120.143C378.187 120.158 279.829 121.588 271.774 122.333C265.391 122.925 251.359 127.986 249.266 130.079C247.148 132.195 244.266 141.918 245.96 147.893C250.154 158.083 266.647 196.623 285.726 241.208C346.968 384.317 350.085 392.165 350.085 393.796C350.085 395.713 348.531 397.268 346.613 397.268Z" fill="#F4973C"/>
<path d="M131.639 296.971C130.602 296.971 129.577 296.51 128.892 295.626C117.566 281.011 117.208 278.867 117.074 278.059C116.634 275.416 117.362 255.812 118.203 252.866C118.796 250.79 121.19 248.207 129.717 239.759C132.922 236.584 136.235 233.3 138.457 230.84C139.741 229.418 141.936 229.303 143.36 230.588C144.785 231.873 144.897 234.068 143.611 235.492C141.26 238.098 137.877 241.45 134.605 244.693C130.885 248.376 125.835 253.38 124.842 254.95C124.312 257.78 123.716 273.826 123.909 276.724C124.815 278.596 129.947 285.651 134.381 291.373C135.555 292.888 135.278 295.07 133.763 296.244C133.13 296.734 132.382 296.971 131.639 296.971Z" fill="#F4973C"/>
<path d="M287.23 411.669C285.839 411.669 284.686 410.57 284.629 409.169C284.055 394.783 285.525 372.682 295.799 349.093C295.916 348.824 296.015 348.601 296.09 348.424C295.65 344.981 291.263 325.44 288.114 311.794L211.085 336.014C210.766 336.113 210.43 336.153 210.097 336.125L166.586 332.644C165.618 332.567 164.773 331.958 164.395 331.064L157.771 315.405L153.927 317.112C153.258 317.41 152.496 317.411 151.827 317.119C151.157 316.827 150.641 316.267 150.405 315.575L140.66 287.031C140.195 285.67 140.921 284.19 142.282 283.726C143.643 283.259 145.124 283.987 145.588 285.348L154.414 311.198L158.078 309.569C158.717 309.285 159.443 309.268 160.093 309.527C160.743 309.784 161.262 310.291 161.535 310.934L168.576 327.579L210.006 330.893L289.237 305.982C289.927 305.767 290.678 305.846 291.309 306.206C291.939 306.565 292.389 307.171 292.553 307.878C301.745 347.477 301.431 348.729 301.245 349.478C301.153 349.842 300.995 350.203 300.574 351.173C290.694 373.856 289.28 395.119 289.834 408.961C289.89 410.398 288.772 411.61 287.336 411.667C287.3 411.668 287.265 411.669 287.23 411.669Z" fill="#C9C9C9"/>
<path d="M290.017 311.939C288.57 311.939 287.219 311.027 286.729 309.581C286.492 308.88 262.879 239.226 258.417 226.871C255.332 218.33 249.319 212.45 240.543 209.395C220.623 202.461 191.562 211.788 186.375 214.999C184.744 216.008 182.604 215.506 181.595 213.875C180.585 212.244 181.089 210.105 182.72 209.095C187.681 206.024 219.16 194.6 242.826 202.837C253.675 206.614 261.118 213.908 264.948 224.513C269.433 236.931 293.068 306.649 293.305 307.352C293.921 309.169 292.948 311.139 291.132 311.755C290.762 311.88 290.387 311.939 290.017 311.939Z" fill="#F4973C"/>
<path d="M314.385 319.25C313.052 319.25 311.78 318.478 311.207 317.179C310.432 315.425 311.227 313.375 312.981 312.601L363.455 290.323C363.735 290.199 364.031 290.113 364.335 290.067L380.346 287.631C382.247 287.341 384.012 288.645 384.3 290.541C384.59 292.436 383.287 294.207 381.39 294.495L365.836 296.862L315.785 318.954C315.329 319.156 314.854 319.25 314.385 319.25Z" fill="#F4973C"/>
<path d="M168.011 309.897C165.61 309.897 164.243 307.213 162.447 303.689C161.082 301.011 159.358 297.394 157.692 293.896C155.32 288.919 152.869 283.771 151.632 281.711C150.645 280.067 151.178 277.934 152.822 276.947C154.467 275.96 156.6 276.494 157.586 278.137C158.995 280.484 161.407 285.548 163.961 290.909C165.661 294.476 167.808 298.985 169.228 301.696C169.75 301.371 170.315 301.019 170.889 300.658C181.246 294.183 202.797 280.709 212.802 277.755C214.64 277.208 216.571 278.263 217.114 280.102C217.658 281.941 216.607 283.872 214.768 284.415C205.673 287.1 183.878 300.728 174.571 306.547C170.118 309.331 169.871 309.477 169.281 309.673C168.826 309.825 168.404 309.897 168.011 309.897Z" fill="#F4973C"/>
<path d="M213.787 284.558C212.467 284.558 211.218 283.801 210.636 282.544C208.423 277.763 170.508 190.032 168.982 183.415C167.393 176.539 173.063 37.3434 174.235 18.987C174.356 17.073 176.009 15.6131 177.921 15.7433C179.834 15.8656 181.287 17.5157 181.165 19.4297C179.679 42.7155 174.591 174.839 175.762 181.921C176.907 186.861 208.097 259.651 215.619 276.685C217.841 275.833 221.123 274.568 224.859 273.128C249.786 263.518 301.655 243.521 320.073 237.742C344.002 230.235 373.559 218.301 379.007 214.53C380.584 213.439 382.747 213.833 383.838 215.409C384.929 216.986 384.536 219.149 382.958 220.24C376.35 224.815 345.662 236.991 322.152 244.367C303.945 250.08 252.217 270.023 227.357 279.607C219.198 282.752 215.563 284.152 214.885 284.379C214.522 284.5 214.152 284.558 213.787 284.558Z" fill="#F4973C"/>
<path d="M308.449 104.95C307.862 104.95 307.273 104.753 306.786 104.349C303.533 101.645 287.23 87.7916 285.728 80.5759C284.882 76.505 285.065 63.3765 285.44 43.8135C285.63 33.9487 285.809 24.6298 285.675 19.2734C285.639 17.836 286.775 16.6407 288.213 16.6052C288.235 16.6043 288.257 16.6043 288.279 16.6043C289.688 16.6043 290.846 17.7275 290.881 19.1432C291.018 24.6151 290.838 33.9895 290.647 43.9142C290.375 58.0808 290.036 75.7134 290.827 79.5143C291.66 83.5149 302.608 94.1028 310.115 100.344C311.22 101.263 311.372 102.905 310.453 104.01C309.938 104.63 309.196 104.95 308.449 104.95Z" fill="#C9C9C9"/>
<path d="M358.288 175.406C357.417 175.406 356.567 174.97 356.073 174.175C352.583 168.553 348.08 161.989 346.441 160.476C343.649 160.279 331.578 162.423 322.671 164.003C309.183 166.397 300.778 167.822 297.787 167.477C296.359 167.311 295.336 166.019 295.502 164.59C295.668 163.161 296.962 162.142 298.389 162.304C300.833 162.587 312.438 160.53 321.761 158.876C343.071 155.095 347.157 154.651 349.071 155.929C351.928 157.833 358.54 168.274 360.498 171.428C361.256 172.65 360.881 174.255 359.658 175.014C359.231 175.279 358.757 175.406 358.288 175.406Z" fill="#C9C9C9"/>
<path d="M73.6768 291.16C73.3704 291.31 73.1213 291.503 72.9216 291.717C73.1317 291.493 73.3852 291.302 73.6768 291.16ZM74.8226 296.104C73.8573 296.104 72.9295 295.565 72.479 294.639C72.2932 294.257 72.209 293.852 72.216 293.456C71.7177 290.467 65.2919 266.411 61.2714 251.631C60.8946 250.243 61.7132 248.813 63.1011 248.435C64.489 248.057 65.9195 248.876 66.2979 250.265C66.3266 250.371 69.2092 260.973 71.9972 271.468C73.6369 277.638 74.9233 282.566 75.8208 286.115C76.3581 288.236 76.7617 289.887 77.0212 291.025C77.4951 293.101 77.9048 294.895 75.9596 295.841C75.5933 296.02 75.2045 296.104 74.8226 296.104Z" fill="#C9C9C9"/>
<path d="M23.146 275.622C22.3856 275.622 21.6192 275.374 20.9786 274.861C19.4813 273.663 19.2391 271.478 20.4369 269.981C27.0016 261.778 34.8162 256.249 44.3278 253.078C46.7695 252.264 51.2787 250.781 56.748 248.981C72.1819 243.901 98.0127 235.401 101.804 233.886C107.829 231.477 114.69 228.596 120.202 226.282C123.712 224.809 126.484 223.646 128.138 222.982C129.227 222.545 130.463 222.686 131.422 223.36C132.391 224.038 133.38 224.756 134.357 225.466C136.246 226.838 138.964 228.811 140.387 229.515C144.123 226.95 157.567 216.38 165.877 209.845C173.548 203.814 177.941 200.366 179.024 199.645C182.559 197.035 210.491 168.546 215.753 161.38C214.162 159.457 210.94 155.91 208.13 152.938C206.811 151.545 206.873 149.348 208.265 148.03C209.659 146.712 211.857 146.775 213.173 148.166C222.822 158.365 223.019 159.447 223.21 160.493C223.591 162.581 223.867 164.089 204.105 184.58C196.532 192.433 184.942 204.044 182.875 205.423C181.966 206.029 175.969 210.744 170.17 215.304C145.05 235.055 143.284 236.182 141.874 236.535C138.967 237.265 135.897 235.167 130.276 231.084C129.844 230.77 129.409 230.454 128.974 230.142C127.363 230.807 125.239 231.699 122.89 232.685C117.353 235.009 110.462 237.903 104.381 240.334C100.389 241.93 75.4334 250.142 58.9189 255.577C53.46 257.373 48.9603 258.854 46.5238 259.666C38.2075 262.439 31.6411 267.095 25.8585 274.319C25.1728 275.176 24.1641 275.622 23.146 275.622Z" fill="#F4973C"/>
<path d="M19.9007 315.422C18.3999 315.422 17.0163 314.441 16.5719 312.929C16.0303 311.089 17.0832 309.159 18.9233 308.617C19.3955 308.478 20.1212 308.269 21.0612 307.998C64.2338 295.54 74.7374 290.176 77.1557 288.087C83.6223 282.502 95.5599 274.712 100.311 274.712C102.181 274.712 112.995 273.448 119.372 272.651C121.282 272.408 123.01 273.763 123.247 275.665C123.485 277.568 122.135 279.303 120.233 279.54C118.515 279.756 103.473 281.625 100.384 281.656C98.2524 281.958 88.9796 287.05 81.6936 293.342C76.562 297.775 57.3592 304.751 22.9864 314.67C22.062 314.936 21.3476 315.143 20.8815 315.28C20.5552 315.376 20.2253 315.422 19.9007 315.422Z" fill="#F4973C"/>
<path d="M35.4512 179.61C35.3106 179.61 35.1691 179.599 35.0259 179.576C33.6067 179.342 32.6458 178.002 32.8785 176.584L39.4926 136.359C39.7253 134.94 41.0602 133.977 42.4855 134.211C43.9038 134.445 44.8655 135.785 44.6321 137.204L38.0179 177.428C37.8078 178.705 36.7037 179.61 35.4512 179.61Z" fill="#C9C9C9"/>
<path d="M75.5298 163.619C72.5959 163.619 64.4254 162.908 39.5026 159.473C38.0782 159.277 37.0817 157.963 37.2788 156.538C37.4749 155.113 38.7882 154.112 40.2135 154.315C55.3384 156.399 72.4223 158.501 75.5211 158.464C76.5176 157.908 79.5773 156.038 82.5458 154.224C94.7152 146.787 100.462 143.39 102.347 142.919C105.258 142.193 132.076 144.417 143.472 145.406C144.905 145.53 145.964 146.792 145.84 148.226C145.716 149.658 144.453 150.718 143.021 150.594C125.695 149.091 106.083 147.674 103.571 147.984C101.718 148.611 91.0244 155.146 85.2609 158.668C79.9271 161.929 77.9992 163.095 77.3179 163.387C77.0792 163.49 76.778 163.619 75.5298 163.619Z" fill="#C9C9C9"/>
<path d="M23.1515 360.093C21.8842 360.093 20.662 359.396 20.051 358.189C19.1847 356.478 19.8695 354.389 21.5804 353.523C32.6856 347.901 42.5486 343.78 52.0871 339.794C74.4633 330.444 95.5991 321.612 126.712 295.036C155.955 270.057 194.309 252.756 228.147 237.491C245.901 229.481 262.671 221.917 275.239 214.404C314.924 190.685 363.491 165.09 377.136 160.706C378.965 160.12 380.918 161.125 381.503 162.95C382.09 164.776 381.086 166.731 379.26 167.318C366.248 171.498 317.427 197.278 278.801 220.365C265.89 228.081 248.943 235.727 231.002 243.82C197.587 258.895 159.714 275.98 131.221 300.316C99.2811 327.599 77.6575 336.635 54.764 346.201C45.341 350.139 35.596 354.211 24.7165 359.717C24.2139 359.972 23.6783 360.093 23.1515 360.093Z" fill="#F4973C"/>
<path d="M298.086 167.495C296.899 167.495 295.826 166.677 295.55 165.47C295.231 164.067 296.108 162.671 297.51 162.352C300.499 161.67 313.85 154.136 322.783 147.321L323.383 146.864C332.286 140.085 344.478 130.804 344.501 102.166C343.701 88.1067 344.271 84.8899 344.485 83.6782L344.503 83.5766C344.533 82.9873 344.913 81.4683 349.781 68.858C350.168 67.8546 351.133 67.1923 352.21 67.1923H361.358L377.062 59.5634C378.353 58.935 379.914 59.4732 380.542 60.7673C381.171 62.0607 380.631 63.6196 379.337 64.2472L363.095 72.1381C362.74 72.3109 362.351 72.4003 361.957 72.4003H353.999C351.998 77.6135 350.012 82.9456 349.691 84.0723C349.672 84.2563 349.642 84.4229 349.613 84.5861C349.163 87.1354 349.192 92.9753 349.705 101.944C349.707 101.993 349.709 102.042 349.709 102.092C349.707 133.369 335.764 143.983 326.538 151.008L325.943 151.461C317.257 158.088 302.983 166.445 298.668 167.429C298.473 167.474 298.278 167.495 298.086 167.495Z" fill="#C9C9C9"/>
<path d="M361.956 72.4003C360.571 72.4003 359.42 71.3109 359.356 69.9143L358.194 44.3873C358.176 43.9759 358.255 43.5653 358.426 43.1903C358.516 42.9916 367.5 23.2593 369.79 18.1442C370.378 16.8309 371.919 16.2424 373.231 16.8318C374.544 17.4194 375.131 18.9601 374.544 20.2725C372.466 24.9085 364.925 41.4812 363.425 44.777L364.559 69.6782C364.624 71.1148 363.513 72.3317 362.077 72.3977C362.036 72.3994 361.996 72.4003 361.956 72.4003Z" fill="#C9C9C9"/>
<path d="M160.695 186.711C158.933 186.711 157.942 186.236 157.151 185.05C154.527 181.114 129.052 126.283 127.895 120.881C127.082 117.094 116.26 98.8207 114.154 95.7888C110.996 93.9304 93.0635 88.12 89.5186 88.12C87.8442 88.12 80.4064 87.7911 70.1119 87.3354C53.2492 86.5897 27.7674 85.4596 23.1999 85.6801C21.2834 85.773 19.6576 84.2922 19.5665 82.3773C19.4754 80.4617 20.9536 78.835 22.8692 78.7439C27.7517 78.5113 51.4117 79.5572 70.4191 80.3983C79.8517 80.8158 87.9979 81.176 89.5186 81.176C93.5019 81.176 116.735 87.8718 119.381 91.1815C120.753 92.8958 133.452 113.678 134.684 119.424C135.759 124.073 157.061 170.064 162.057 179.635C164.315 179.335 168.475 178.558 172.127 177.79C174.043 176.684 175.609 176.132 177.129 175.596C180.544 174.392 184.076 173.148 193.577 163.646C206.542 150.681 214.643 140.868 216.26 138.434C216.638 128.635 220.997 39.0885 244.927 18.325C246.377 17.069 248.568 17.2244 249.825 18.6722C251.081 20.12 250.926 22.3135 249.477 23.5703C229.366 41.0197 223.497 123.773 223.174 139.343C223.174 140.492 223.174 141.523 215.847 150.008C210.994 155.626 204.83 162.213 198.488 168.555C187.871 179.172 183.39 180.752 179.437 182.145C177.998 182.653 176.754 183.091 175.216 184.031C174.882 184.235 174.515 184.381 174.131 184.463C173.998 184.491 170.818 185.169 167.521 185.771C164.391 186.345 162.245 186.711 160.695 186.711Z" fill="#F4973C"/>
<path d="M331.788 240.583C330.635 240.583 329.507 240.008 328.847 238.96C308.524 206.686 285.362 162.365 290.429 134.498C294.638 111.341 318.937 80.1599 333.046 63.634L333.66 62.9127C335.079 61.043 336.982 50.174 338.243 42.9808C340.228 31.6499 341.546 24.561 343.58 21.7148C344.694 20.1533 346.863 19.7939 348.424 20.9076C349.983 22.0221 350.345 24.1895 349.232 25.7502C348.001 27.5174 346.244 37.5437 345.082 44.1795C342.893 56.6761 341.427 64.4838 338.961 67.3977L338.327 68.1424C315.091 95.3586 300.123 119.998 297.261 135.74C293.619 155.769 306.924 191.112 334.723 235.259C335.745 236.882 335.258 239.026 333.635 240.048C333.061 240.41 332.421 240.583 331.788 240.583Z" fill="#F4973C"/>
<path d="M12.3047 88.5244C35.8596 87.7119 69.8514 88.4011 71.8052 97.805C75.0672 113.506 44.6768 110.802 41.7759 126.413C39.5382 138.468 5.69141 144.943 5.69141 144.943L12.3047 88.5244Z" fill="#29ABE2"/>
<path d="M29.1878 391.247C28.154 391.247 27.1767 390.627 26.7687 389.609C26.2349 388.273 26.885 386.759 28.22 386.225C29.9708 385.523 33.3516 384.156 37.7793 382.366C96.6427 358.56 108.891 354.016 110.766 354.016H110.777C111.449 354.023 112.719 354.124 114.642 354.279C119.911 354.7 133.909 355.821 137.558 354.232C142.924 351.895 197.432 331.205 199.75 330.325C201.095 329.818 202.598 330.491 203.108 331.836C203.618 333.18 202.942 334.684 201.598 335.194C201.032 335.409 144.89 356.72 139.637 359.007C135.167 360.954 124.178 360.268 114.226 359.47C112.775 359.354 111.503 359.252 110.903 359.228C106.287 360.277 58.0106 379.802 39.7314 387.194C35.2959 388.988 31.9081 390.359 30.1539 391.059C29.8371 391.187 29.5099 391.247 29.1878 391.247Z" fill="#C9C9C9"/>
<path d="M111.434 199.875C109.689 199.875 107.71 199.841 105.461 199.767C99.4297 199.567 89.643 198.924 87.7265 198.284C87.033 198.053 84.9958 197.375 75.6231 187.19C74.2048 187.703 72.3178 188.413 70.7406 189.115C68.0064 190.331 63.1256 189.535 50.7497 186.686C47.8671 186.023 45.1424 185.395 43.7788 185.201C41.2312 184.836 37.8425 183.411 33.9183 181.76C29.8578 180.052 24.8034 177.925 22.3392 177.925C20.4218 177.925 18.8672 176.371 18.8672 174.453C18.8672 172.536 20.4218 170.981 22.3392 170.981C26.2044 170.981 31.4948 173.207 36.6108 175.36C39.8007 176.702 43.0991 178.089 44.7605 178.326C46.4149 178.563 49.1456 179.192 52.3078 179.919C56.7346 180.938 65.8824 183.041 68.0767 182.7C71.3031 181.281 75.3688 179.921 75.5424 179.863C76.8478 179.427 78.2887 179.805 79.2131 180.825C83.2971 185.33 88.4756 190.617 90.0484 191.711C94.0273 192.451 116.063 193.652 120.283 192.328C120.925 191.5 121.615 190.347 122.285 189.228C124.077 186.236 125.771 183.41 128.598 182.603C131.538 181.762 156.116 179.763 161.806 179.763C163.723 179.763 165.278 181.318 165.278 183.235C165.278 185.152 163.723 186.707 161.806 186.707C156.094 186.707 133.842 188.617 130.669 189.246C130.053 189.775 128.929 191.652 128.243 192.797C127.306 194.362 126.336 195.98 125.201 197.277C124.222 198.396 122.929 199.875 111.434 199.875Z" fill="#F4973C"/>
<mask id="mask1_699_2585" style="mask-type:luminance" maskUnits="userSpaceOnUse" x="233" y="216" width="16" height="3">
<path d="M233.305 216.103H248.594V218.626H233.305V216.103Z" fill="white"/>
</mask>
<g mask="url(#mask1_699_2585)">
<g opacity="0.5">
<path d="M248.593 217.366C248.593 218.061 245.171 218.626 240.947 218.626C236.727 218.626 233.305 218.061 233.305 217.366C233.305 216.668 236.727 216.104 240.947 216.104C245.171 216.104 248.593 216.668 248.593 217.366Z" fill="#C9C9C9"/>
</g>
</g>
</g>
<g filter="url(#filter0_d_699_2585)">
<path fill-rule="evenodd" clip-rule="evenodd" d="M240.504 172C230.839 172 223.004 179.474 223.004 188.694C223.004 197.841 228.589 208.515 237.304 212.333C239.335 213.222 241.673 213.222 243.704 212.333C252.419 208.515 258.004 197.841 258.004 188.694C258.004 179.474 250.169 172 240.504 172ZM240.504 195.429C243.726 195.429 246.337 192.806 246.337 189.571C246.337 186.337 243.726 183.714 240.504 183.714C237.282 183.714 234.671 186.337 234.671 189.571C234.671 192.806 237.282 195.429 240.504 195.429Z" fill="url(#paint0_linear_699_2585)"/>
</g>
<g filter="url(#filter1_d_699_2585)">
<path d="M32.6588 381.436H367.344V29.3522H32.6588V381.436ZM374.288 388.38H25.7148V22.4082H374.288V388.38Z" fill="white"/>
</g>
<mask id="mask2_699_2585" style="mask-type:luminance" maskUnits="userSpaceOnUse" x="256" y="22" width="119" height="367">
<path d="M374.289 388.38H256.941V22.4082H374.289V388.38Z" fill="white"/>
</mask>
<g mask="url(#mask2_699_2585)">
<mask id="mask3_699_2585" style="mask-type:luminance" maskUnits="userSpaceOnUse" x="-28460" y="-28012" width="56885" height="56885">
<path d="M-28459.6 -28011.8H28424.8V28872.6H-28459.6V-28011.8Z" fill="url(#paint1_linear_699_2585)"/>
</mask>
<g mask="url(#mask3_699_2585)">
<path d="M374.289 388.379H256.941V22.4076H374.289V388.379Z" fill="url(#paint2_linear_699_2585)"/>
</g>
</g>
<defs>
<filter id="filter0_d_699_2585" x="188.004" y="140" width="105" height="111" filterUnits="userSpaceOnUse" color-interpolation-filters="sRGB">
<feFlood flood-opacity="0" result="BackgroundImageFix"/>
<feColorMatrix in="SourceAlpha" type="matrix" values="0 0 0 0 0 0 0 0 0 0 0 0 0 0 0 0 0 0 127 0" result="hardAlpha"/>
<feOffset dy="3"/>
<feGaussianBlur stdDeviation="17.5"/>
<feComposite in2="hardAlpha" operator="out"/>
<feColorMatrix type="matrix" values="0 0 0 0 0 0 0 0 0 0 0 0 0 0 0 0 0 0 0.04 0"/>
<feBlend mode="normal" in2="BackgroundImageFix" result="effect1_dropShadow_699_2585"/>
<feBlend mode="normal" in="SourceGraphic" in2="effect1_dropShadow_699_2585" result="shape"/>
</filter>
<filter id="filter1_d_699_2585" x="0.714844" y="0.408203" width="398.574" height="415.971" filterUnits="userSpaceOnUse" color-interpolation-filters="sRGB">
<feFlood flood-opacity="0" result="BackgroundImageFix"/>
<feColorMatrix in="SourceAlpha" type="matrix" values="0 0 0 0 0 0 0 0 0 0 0 0 0 0 0 0 0 0 127 0" result="hardAlpha"/>
<feOffset dy="3"/>
<feGaussianBlur stdDeviation="12.5"/>
<feComposite in2="hardAlpha" operator="out"/>
<feColorMatrix type="matrix" values="0 0 0 0 0 0 0 0 0 0 0 0 0 0 0 0 0 0 0.03 0"/>
<feBlend mode="normal" in2="BackgroundImageFix" result="effect1_dropShadow_699_2585"/>
<feBlend mode="normal" in="SourceGraphic" in2="effect1_dropShadow_699_2585" result="shape"/>
</filter>
<linearGradient id="paint0_linear_699_2585" x1="240.504" y1="163.8" x2="240.504" y2="213" gradientUnits="userSpaceOnUse">
<stop stop-color="#E94F2F"/>
<stop offset="1" stop-color="#F18038"/>
</linearGradient>
<linearGradient id="paint1_linear_699_2585" x1="254.764" y1="205.392" x2="363.607" y2="205.392" gradientUnits="userSpaceOnUse">
<stop stop-color="white" stop-opacity="0.0999924"/>
<stop offset="0.122449" stop-color="white" stop-opacity="0.0999924"/>
<stop offset="0.80102" stop-color="white" stop-opacity="0"/>
<stop offset="1" stop-color="white" stop-opacity="0"/>
</linearGradient>
<linearGradient id="paint2_linear_699_2585" x1="254.763" y1="205.393" x2="363.606" y2="205.393" gradientUnits="userSpaceOnUse">
<stop stop-color="#666666"/>
<stop offset="0.122449" stop-color="#666666"/>
<stop offset="0.80102" stop-color="#666666"/>
<stop offset="1" stop-color="#666666"/>
</linearGradient>
</defs>
</svg>
