<svg viewBox="0 0 1320 395" preserveAspectRatio="none" fill="none" xmlns="http://www.w3.org/2000/svg">
<path d="M1319.5 394.5H2.8396C3.87012 394.127 5.19226 393.65 6.79431 393.074C11.1313 391.516 17.5194 389.237 25.7224 386.354C42.1283 380.589 65.7936 372.408 94.8296 362.748C152.902 343.428 232.456 318.19 318.382 294.519C404.311 270.847 496.603 248.746 580.155 235.695C663.725 222.642 738.484 218.655 789.38 231.166C840.509 243.733 899.269 235.555 958.607 216.266C1017.95 196.974 1077.93 166.552 1131.51 134.573C1185.09 102.592 1232.29 69.0449 1266.1 43.4939C1283 30.7181 1296.56 19.9406 1305.89 12.3566C1310.55 8.56458 1314.16 5.57086 1316.6 3.52481C1317.83 2.5018 1318.76 1.7157 1319.38 1.18518C1319.42 1.15033 1319.46 1.11655 1319.5 1.08389V394.5Z" fill="url(#paint0_linear_465_1925)" stroke="#F9F9F9"/>
<defs>
<linearGradient id="paint0_linear_465_1925" x1="37.5102" y1="429.76" x2="919.272" y2="-387.18" gradientUnits="userSpaceOnUse">
<stop stop-color="#E94F2F"/>
<stop offset="1" stop-color="#F4983C"/>
</linearGradient>
</defs>
</svg>
