<svg width="402" height="278" viewBox="0 0 402 278" fill="none" xmlns="http://www.w3.org/2000/svg">
<g clip-path="url(#clip0_748_16353)">
<mask id="mask0_748_16353" style="mask-type:luminance" maskUnits="userSpaceOnUse" x="56" y="209" width="323" height="66">
<path d="M56.25 209.891H378.992V274.057H56.25V209.891Z" fill="white"/>
</mask>
<g mask="url(#mask0_748_16353)">
<g opacity="0.300003">
<path d="M378.992 241.974C378.992 259.695 306.741 274.056 217.621 274.056C128.5 274.056 56.25 259.695 56.25 241.974C56.25 224.256 128.5 209.891 217.621 209.891C306.741 209.891 378.992 224.256 378.992 241.974Z" fill="#E2E2E2"/>
</g>
</g>
<path d="M36.25 121.106C36.25 121.106 105.57 84.6141 220.362 84.6141C335.153 84.6141 398.002 127.059 398.002 127.059C398.002 127.059 279.344 203.634 185.276 181.699C91.208 159.762 36.25 121.106 36.25 121.106Z" fill="#E4862C"/>
<path d="M128.595 81.3461C128.595 81.3461 117.753 92.2791 96.0694 98.2608C96.0694 98.2608 91.484 99.0308 93.3075 103.04C97.3776 106.675 99.2432 101.186 99.2432 101.186C99.2432 101.186 113.264 97.51 130.65 84.6137" fill="#252321"/>
<path d="M153.637 158.977C153.753 158.977 153.868 158.955 153.981 158.944C152.129 158.329 150.329 157.699 148.578 157.059C149.938 158.239 151.693 158.977 153.637 158.977Z" fill="white"/>
<path d="M289.221 62.263C289.221 61.7458 289.177 61.2382 289.112 60.7383C288.983 62.4124 288.826 64.1171 288.641 65.8447C289.008 64.7147 289.221 63.5156 289.221 62.263Z" fill="white"/>
<path d="M293.184 145.012V40.3915C293.184 40.3915 298.892 4.00049 209.866 4.00049C120.841 4.00049 122.313 40.3915 122.313 40.3915V145.012C122.313 145.012 205.594 192.976 293.184 145.012Z" fill="#252321"/>
<path d="M293.066 79.511C293.066 75.5845 291.113 72.1214 288.127 70.0203C285.799 87.3449 280.318 107.232 269.54 129.008C245.701 177.182 191.298 171.246 154.508 159.122C154.456 159.559 154.406 159.995 154.406 160.443C154.406 166.693 159.471 171.754 165.722 171.754C166.713 171.754 167.67 171.614 168.592 171.373C169.396 174.799 172.453 177.358 176.125 177.358C179.143 177.358 181.727 175.619 183.014 173.104C184.907 176.943 188.851 179.59 193.419 179.59C197.125 179.59 200.417 177.847 202.544 175.14C204.453 178.942 208.374 181.559 212.917 181.559C217.15 181.559 220.839 179.289 222.868 175.906C224.208 177.015 225.907 177.707 227.781 177.707C231.985 177.707 235.385 174.363 235.519 170.197C235.622 170.175 235.728 170.154 235.835 170.135C237.903 172.784 241.121 174.502 244.749 174.502C249.049 174.502 252.786 172.106 254.703 168.57C256.783 170.539 259.582 171.754 262.673 171.754C269.084 171.754 274.282 166.557 274.282 160.147C274.282 158.076 273.732 156.136 272.784 154.452C277.757 153.263 281.457 148.8 281.457 143.462C281.457 140.686 280.455 138.15 278.801 136.181C284.65 135.584 289.215 130.642 289.215 124.632C289.215 122.956 288.854 121.368 288.213 119.924C288.833 118.813 289.215 117.547 289.215 116.183C289.215 113.589 287.933 111.312 285.983 109.9C287.933 108.493 289.215 106.211 289.215 103.62C289.215 101.513 288.368 99.6091 287.004 98.2128C288.37 96.8145 289.216 94.9068 289.216 92.798C289.216 91.4017 288.82 90.105 288.173 88.9749C291.132 86.8718 293.066 83.4203 293.066 79.511Z" fill="#D8E2EA"/>
<g filter="url(#filter0_d_748_16353)">
<path d="M269.548 129.008C280.325 107.232 285.807 87.3442 288.134 70.0196C287.732 69.738 287.315 69.4756 286.878 69.2439C287.638 68.2307 288.238 67.0814 288.64 65.846C288.826 64.1183 288.985 62.4136 289.111 60.7396C288.404 55.365 284.028 51.1512 278.569 50.7049C279.496 49.2282 280.042 47.4833 280.042 45.6119C280.042 40.3121 275.751 36.0159 270.45 36.0159C269.867 36.0159 269.304 36.0753 268.751 36.1749C269.821 34.4185 270.45 32.3594 270.45 30.1491C270.45 23.7383 265.253 18.5419 258.842 18.5419C256.404 18.5419 254.146 19.2927 252.278 20.576C251.459 17.1666 248.413 14.6307 244.757 14.6307C242.732 14.6307 240.907 15.4236 239.53 16.6878C238.719 13.2707 235.663 10.7252 231.997 10.7252C227.714 10.7252 224.239 14.1997 224.239 18.4844C224.239 19.285 224.398 20.0359 224.617 20.7618C224.465 20.7465 224.306 20.7292 224.153 20.712C223.498 15.0865 218.725 10.7252 212.925 10.7252C210.242 10.7252 207.784 11.6599 205.842 13.2209C203.925 9.45531 200.017 6.87337 195.503 6.87337C190.268 6.87337 185.844 10.3421 184.397 15.1038C183.581 14.8165 182.723 14.6307 181.815 14.6307C178.768 14.6307 176.161 16.4005 174.888 18.9575C173.468 17.3505 171.413 16.3143 169.101 16.3143C165.152 16.3143 161.926 19.2774 161.438 23.0928C160.202 22.6484 158.877 22.3918 157.488 22.3918C151.077 22.3918 145.879 27.5901 145.879 33.999C145.879 34.5755 145.935 35.1386 146.015 35.6922C145.969 35.6922 145.923 35.6864 145.879 35.6864C139.466 35.6864 134.27 40.8867 134.27 47.2975C134.27 49.5921 134.942 51.7239 136.09 53.5244C130.813 54.4801 126.808 59.0905 126.808 64.6431C126.808 68.6961 128.941 72.2376 132.138 74.2373C128.943 75.1969 126.601 78.1255 126.601 81.6345C126.601 83.9272 127.612 85.9671 129.194 87.3883C125.467 87.9514 122.598 91.1405 122.598 95.0345C122.598 98.9629 125.536 102.177 129.33 102.688C127.756 104.629 126.808 107.103 126.808 109.8C126.808 114.138 129.25 117.902 132.833 119.798C129.25 121.698 126.808 125.458 126.808 129.801C126.808 136.047 131.872 141.113 138.12 141.113C138.258 141.113 138.392 141.097 138.528 141.094C138.285 141.843 138.12 142.628 138.12 143.461C138.12 147.748 141.596 151.22 145.877 151.22L145.879 151.222C145.879 153.565 146.938 155.637 148.58 157.06C150.33 157.698 152.131 158.33 153.983 158.945C154.165 158.926 154.351 158.909 154.535 158.889C154.523 158.968 154.523 159.046 154.516 159.123C191.306 171.246 245.709 177.181 269.548 129.008Z" fill="white"/>
</g>
<path d="M286.174 82.7032C286.174 82.7032 298.963 91.2803 321.4 92.8605C321.4 92.8605 326.047 92.7111 325.051 96.9977C321.779 101.365 318.866 96.356 318.866 96.356C318.866 96.356 304.395 95.519 284.805 86.3118" fill="#252321"/>
<path d="M238.053 107.466C237.827 107.274 237.607 107.075 237.385 106.879C237.609 107.075 237.829 107.272 238.053 107.466ZM183.277 72.55C182.854 72.3738 182.438 72.188 182.017 72.0176C182.438 72.19 182.854 72.3738 183.277 72.55ZM211.581 87.5207C211.338 87.3655 211.094 87.2085 210.847 87.0495C211.094 87.2085 211.338 87.3636 211.581 87.5207ZM227.128 98.4977C226.89 98.31 226.651 98.1242 226.412 97.9403C226.651 98.1223 226.89 98.31 227.128 98.4977ZM195.812 78.4169C195.794 78.4035 195.769 78.392 195.748 78.3824L195.766 78.39C195.783 78.3996 195.798 78.4092 195.812 78.4169ZM257.381 111.543C257.376 111.549 257.374 111.551 257.37 111.553C257.483 108.9 257.416 106.266 257.219 103.713C257.222 103.713 257.224 103.709 257.228 103.708C257.209 102.945 257.111 102.06 257.002 101.321C257 101.327 256.996 101.332 256.994 101.334C256.958 101.005 256.931 100.664 256.889 100.34C256.613 98.0629 256.278 95.8028 255.851 93.5828C255.841 93.6001 255.83 93.6116 255.818 93.6269C255.7 93.0178 255.575 92.4125 255.441 91.8111C255.441 91.8092 255.443 91.8073 255.447 91.8073L255.349 91.405C255.259 91.0066 255.163 90.6082 255.068 90.2156L254.989 89.8919C254.987 89.8938 254.987 89.8938 254.987 89.8938C253.926 85.7125 252.428 81.7477 250.212 78.187C250.214 78.1851 250.214 78.1851 250.218 78.1832L250.055 77.9323C249.881 77.6603 249.701 77.3883 249.519 77.1163L249.281 76.7639C249.279 76.7658 249.277 76.7658 249.276 76.7677C247.088 73.6476 244.28 70.8741 240.633 68.6005C240.633 68.6005 240.635 68.6005 240.637 68.5986L240.587 68.5718C237.385 66.5836 233.529 64.9843 228.898 63.86C228.902 63.8542 228.907 63.8523 228.909 63.8504L228.164 63.6838C227.842 63.6091 227.521 63.5363 227.189 63.4654L226.854 63.3888C226.852 63.3907 226.848 63.3964 226.844 63.3984C222.885 62.592 218.384 62.1151 213.278 62.0174C213.282 62.0155 213.286 62.0097 213.291 62.0059L211.885 61.9906C211.866 61.9906 211.851 61.9886 211.832 61.9886C211.832 61.9886 211.577 61.9791 211.121 61.9791H211.052C208.982 61.9771 202.99 62.1151 195.894 63.5439C195.894 63.5439 195.896 63.542 195.898 63.542L193.051 64.1166C193 64.1473 192.956 64.1837 192.91 64.2143C187.886 65.4497 182.536 67.3613 177.757 70.3282C170.084 75.0879 163.886 82.4851 162.896 93.9966C162.216 101.922 162.668 109.059 164.269 115.351C165.813 121.411 168.429 126.686 172.157 131.092C180.753 141.255 195.239 146.828 215.984 146.953C240.38 147.104 251.197 136.593 255.296 123.869C250.708 119.096 245.929 114.493 240.995 110.061C240.451 109.574 239.894 109.092 239.346 108.609L239.369 108.626C239.909 109.103 240.459 109.578 240.995 110.061C240.999 110.061 240.999 110.059 241.003 110.057C245.937 114.487 250.708 119.096 255.296 123.869C256.213 121.019 256.793 118.058 257.113 115.081C257.115 115.081 257.115 115.081 257.115 115.079V115.068C257.238 113.941 257.314 112.811 257.366 111.685C257.37 111.643 257.376 111.582 257.381 111.543Z" fill="#F7F7F7"/>
<path d="M235.62 88.8647C235.394 88.6713 235.168 88.4663 234.938 88.271C235.169 88.4663 235.394 88.6694 235.623 88.8647H235.62ZM179.547 53.3785C179.118 53.1965 178.689 53.0069 178.258 52.8307C178.689 53.0088 179.118 53.1965 179.547 53.3785ZM191.198 58.7301C191.167 58.7186 191.143 58.7033 191.118 58.6898C191.143 58.7033 191.171 58.7186 191.198 58.7282V58.7301ZM192.382 59.3372C192.361 59.3296 192.338 59.3162 192.317 59.3047L192.336 59.3162C192.351 59.3219 192.367 59.3334 192.382 59.3372Z" fill="#636C7C"/>
<path d="M174.598 118.246C172.61 121.425 170.9 124.718 169.574 128.145C178.027 137.655 192.262 142.868 212.655 142.989C236.634 143.125 247.266 133.289 251.296 121.385C246.787 116.924 242.091 112.613 237.241 108.468C219.432 122.621 196.121 124.58 174.598 118.246Z" fill="#89CA59"/>
<path d="M174.598 118.246C196.121 124.58 219.431 122.62 237.24 108.468C227.552 100.186 217.203 92.6026 206.188 86.073C194.169 95.5408 182.229 106.035 174.598 118.246Z" fill="#B5F685"/>
<path d="M169.576 128.144C170.899 124.717 172.612 121.425 174.6 118.245C170.248 116.964 165.967 115.344 161.82 113.415C163.341 119.086 165.91 124.024 169.576 128.144Z" fill="#89CA59"/>
<path d="M206.19 86.0725C196.337 80.2325 185.962 75.2276 175.079 71.2896C167.54 75.7409 161.445 82.665 160.474 93.4352C159.803 100.85 160.248 107.53 161.822 113.413C165.969 115.343 170.25 116.964 174.6 118.245C182.233 106.035 194.171 95.5402 206.19 86.0725Z" fill="#B5F685"/>
<path d="M237.25 108.46C242.1 112.608 246.791 116.924 251.299 121.385C253.722 114.221 253.759 106.311 252.868 99.3713C252.592 97.2433 252.267 95.1249 251.849 93.0486C247.999 97.7835 243.791 102.292 239.434 106.654C238.717 107.28 237.984 107.878 237.25 108.46Z" fill="#E14E27"/>
<path d="M208.578 63.487C208.578 63.487 189.267 62.9143 175.082 71.2902C198.124 79.6317 218.891 92.775 237.244 108.466C237.981 107.882 238.719 107.483 239.435 106.853C243.792 102.497 248.001 97.9887 251.849 93.252C248.652 77.316 240.09 63.6555 208.578 63.487Z" fill="#EB5831"/>
<path d="M291 78.1725C291.613 74.4634 289.5 70.4995 286.5 68.4995C283.455 85.6629 277.118 105.26 265.451 126.505C239.646 173.506 185.578 165.324 149.352 151.71C149.282 152.143 149.214 152.576 149.195 153.022C148.935 159.249 153.781 164.502 160.022 164.763C161.011 164.804 161.973 164.704 162.903 164.502C163.563 167.95 166.509 170.627 170.175 170.78C173.188 170.906 175.84 169.281 177.23 166.829C178.96 170.732 182.787 173.534 187.348 173.725C191.048 173.879 194.408 172.28 196.643 169.672C198.391 173.54 202.197 176.31 206.733 176.5C210.959 176.676 214.737 174.569 216.902 171.283C218.195 172.444 219.862 173.204 221.733 173.282C225.93 173.457 229.463 170.267 229.771 166.122C229.875 166.106 229.981 166.089 230.089 166.074C232.044 168.8 235.185 170.646 238.807 170.797C243.1 170.976 246.931 168.745 248.992 165.302C250.987 167.351 253.73 168.677 256.816 168.806C263.217 169.074 268.623 164.113 268.89 157.726C268.976 155.663 268.508 153.707 267.631 151.99C272.645 151.013 276.526 146.721 276.748 141.402C276.863 138.637 275.969 136.069 274.398 134.038C280.263 133.687 285.026 128.954 285.276 122.966C285.346 121.296 285.053 119.699 284.472 118.233C285.138 117.152 285.571 115.907 285.628 114.548C285.736 111.964 284.551 109.642 282.663 108.154C284.669 106.833 286.043 104.613 286.151 102.032C286.239 99.9324 285.473 98.0003 284.169 96.5523C285.591 95.2162 286.515 93.3508 286.603 91.2498C286.661 89.8586 286.319 88.5502 285.72 87.3973C288.762 85.4254 290.837 82.0674 291 78.1725Z" fill="white"/>
<path d="M150.182 135.232C151.437 135.847 151.737 137.818 150.849 139.63C149.964 141.447 148.226 142.422 146.968 141.808C145.712 141.191 145.413 139.222 146.298 137.408C147.185 135.59 148.922 134.615 150.182 135.232Z" fill="#F0F1F2"/>
<path d="M236.483 147.261C237.741 147.876 238.347 149.22 237.837 150.264C237.326 151.312 235.891 151.662 234.637 151.048C233.376 150.431 232.773 149.086 233.282 148.042C233.794 146.995 235.227 146.646 236.483 147.261Z" fill="#F0F1F2"/>
<path d="M139.822 118.624C141.078 119.237 141.379 121.21 140.492 123.026C139.607 124.838 137.866 125.815 136.61 125.2C135.353 124.587 135.052 122.614 135.939 120.8C136.824 118.982 138.563 118.009 139.822 118.624Z" fill="#F0F1F2"/>
<path d="M260.066 131.1C261.325 131.709 261.624 133.684 260.737 135.502C259.852 137.314 258.113 138.291 256.854 137.674C255.598 137.061 255.299 135.092 256.186 133.274C257.071 131.459 258.81 130.484 260.066 131.1Z" fill="#F0F1F2"/>
<path d="M265.795 92.9152C267.053 93.5281 267.352 95.499 266.465 97.3167C265.578 99.1325 263.839 100.107 262.584 99.4926C261.326 98.8778 261.023 96.9068 261.914 95.0911C262.801 93.2734 264.54 92.3003 265.795 92.9152Z" fill="#F0F1F2"/>
<path d="M157.85 127.664C158.829 127.076 160.305 127.748 161.152 129.158C161.997 130.573 161.893 132.192 160.914 132.776C159.94 133.364 158.461 132.694 157.614 131.282C156.768 129.869 156.875 128.254 157.85 127.664Z" fill="#F0F1F2"/>
<path d="M186.282 27.0815C187.26 26.4916 188.737 27.162 189.588 28.5717C190.432 29.9891 190.325 31.6076 189.35 32.1898C188.375 32.7779 186.895 32.1094 186.048 30.6978C185.203 29.2861 185.307 27.6695 186.282 27.0815Z" fill="#F0F1F2"/>
<path d="M273.416 62.6093C274.395 62.0213 275.871 62.6917 276.718 64.1033C277.563 65.5169 277.459 67.1354 276.481 67.7196C275.506 68.3095 274.029 67.6372 273.182 66.2275C272.334 64.8139 272.441 63.1974 273.416 62.6093Z" fill="#F0F1F2"/>
<path d="M143.462 95.905C143.224 94.7902 144.335 93.6084 145.948 93.2675C147.559 92.9246 149.053 93.551 149.29 94.6657C149.528 95.7824 148.411 96.9584 146.802 97.3032C145.195 97.6441 143.699 97.0159 143.462 95.905Z" fill="#F0F1F2"/>
<path d="M149.882 54.1511C148.894 53.5842 148.754 51.9676 149.572 50.5387C150.392 49.1117 151.853 48.4126 152.841 48.9815C153.83 49.5446 153.968 51.1593 153.152 52.5901C152.334 54.017 150.87 54.7142 149.882 54.1511Z" fill="#F0F1F2"/>
<path d="M255.548 57.9467C255.309 56.832 256.421 55.6482 258.034 55.3073C259.645 54.9683 261.139 55.5927 261.377 56.7094C261.614 57.8203 260.497 59.0002 258.888 59.343C257.28 59.6859 255.784 59.0557 255.548 57.9467Z" fill="#F0F1F2"/>
<path d="M255.548 43.25C255.309 42.1352 256.421 40.9534 258.034 40.6125C259.645 40.2716 261.139 40.896 261.377 42.0107C261.614 43.1255 260.497 44.3054 258.888 44.6463C257.28 44.9872 255.784 44.3609 255.548 43.25Z" fill="#F0F1F2"/>
<path d="M199.148 48.7227C200.966 50.8545 203.671 52.2163 206.691 52.2163C210.92 52.2163 214.529 49.5539 215.952 45.8151C207.185 43.938 201.889 46.52 199.148 48.7227Z" fill="#FFA998"/>
<path d="M215.956 45.8156C216.376 44.72 216.611 43.5382 216.611 42.3009C216.611 41.6688 216.1 41.1536 215.468 41.1536H197.927C197.293 41.1536 196.777 41.6688 196.777 42.3009C196.777 44.7526 197.674 46.9897 199.152 48.7231C201.893 46.5185 207.189 43.9385 215.956 45.8156Z" fill="#252321"/>
<path d="M186.764 52.8876C186.318 55.3603 181.863 56.6187 176.818 55.7051C171.769 54.7896 168.041 52.0467 168.49 49.5759C168.938 47.107 173.393 45.8447 178.438 46.7603C183.485 47.6739 187.211 50.4206 186.764 52.8876Z" fill="#F9DEE8"/>
<path d="M225.08 52.8876C225.524 55.3603 229.981 56.6187 235.028 55.7051C240.073 54.7896 243.8 52.0467 243.352 49.5759C242.908 47.107 238.451 45.8447 233.404 46.7603C228.357 47.6739 224.631 50.4206 225.08 52.8876Z" fill="#F9DEE8"/>
<path d="M230.185 33.4812C235.495 33.4812 239.812 37.7984 239.812 43.1079C239.812 43.7208 239.316 44.2207 238.701 44.2207C238.088 44.2207 237.59 43.7208 237.59 43.1079C237.59 39.0243 234.271 35.7049 230.185 35.7049C226.104 35.7049 222.779 39.0243 222.779 43.1079C222.779 43.7208 222.284 44.2207 221.671 44.2207C221.055 44.2207 220.559 43.7208 220.559 43.1079C220.559 37.7984 224.876 33.4812 230.185 33.4812Z" fill="#252321"/>
<path d="M183.306 33.4812C188.618 33.4812 192.935 37.7984 192.935 43.1079C192.935 43.7208 192.437 44.2207 191.824 44.2207C191.209 44.2207 190.713 43.7208 190.713 43.1079C190.713 39.0243 187.394 35.7049 183.306 35.7049C179.231 35.7049 175.904 39.0243 175.904 43.1079C175.904 43.7208 175.406 44.2207 174.791 44.2207C174.18 44.2207 173.684 43.7208 173.684 43.1079C173.684 37.7984 177.999 33.4812 183.306 33.4812Z" fill="#252321"/>
<path d="M371.624 151.793C371.624 151.793 317.938 115.539 219.888 115.539C216.689 115.539 213.538 115.575 210.422 115.642C256.985 125.012 301.701 142.798 341.989 168.246C360.197 159.163 371.624 151.793 371.624 151.793Z" fill="#564941"/>
<path d="M210.42 115.641C118.041 117.541 62.625 146.709 62.625 146.709C62.625 146.709 109.567 179.726 189.915 198.462C243.301 210.912 305.943 186.225 341.985 168.245C301.697 142.798 256.982 125.011 210.42 115.641Z" fill="#493C33"/>
<path d="M396.142 134.821C397.548 129.947 398.002 127.058 398.002 127.058C398.002 127.058 177.569 193.097 36.25 121.105C36.25 121.105 36.6484 124.126 37.9317 129.219C63.389 142.795 119.797 164.314 223.745 164.029C311.835 163.784 367.151 147.162 396.142 134.821Z" fill="#FFAA50"/>
<path d="M212.672 244.475C293.114 244.475 339.878 217.188 366.54 187.346C306.198 220.293 238.717 239.248 169.66 241.146C182.704 243.277 196.989 244.475 212.672 244.475Z" fill="#ED8F35"/>
<path d="M223.747 164.028C119.799 164.314 63.3909 142.795 37.9336 129.218C44.0571 153.496 70.3399 224.894 169.664 241.146C238.719 239.247 306.2 220.293 366.542 187.346C385.008 166.679 392.984 145.754 396.144 134.821C367.153 147.162 311.837 163.783 223.747 164.028Z" fill="#F4963C"/>
<path d="M303.363 190.985C295.901 191.736 289.222 186.273 288.477 178.813C288.389 177.951 289.017 177.181 289.879 177.095C290.741 177.007 291.513 177.639 291.597 178.499C292.174 184.237 297.309 188.438 303.049 187.861C308.786 187.287 312.986 182.151 312.413 176.415C312.325 175.553 312.956 174.779 313.817 174.695C314.679 174.605 315.449 175.239 315.534 176.101C316.284 183.561 310.826 190.236 303.363 190.985Z" fill="#252321"/>
<path d="M277.757 177.733C278.418 184.341 273.601 190.234 266.987 190.901C260.383 191.564 254.485 186.743 253.823 180.133C253.16 173.523 257.983 167.629 264.589 166.964C271.199 166.302 277.094 171.121 277.757 177.733Z" fill="#252321"/>
<path d="M259.533 175.731C258.421 175.842 253.935 175.945 251.021 170.871C250.734 170.369 250.908 169.73 251.406 169.441C251.906 169.151 252.548 169.324 252.835 169.829C255.36 174.223 259.271 173.656 259.434 173.633C259.987 173.557 260.541 173.932 260.633 174.497C260.729 175.064 260.347 175.6 259.779 175.7C259.757 175.704 259.671 175.715 259.533 175.731Z" fill="#252321"/>
<path d="M260.038 180.774C258.923 180.885 254.439 180.985 251.526 175.915C251.238 175.413 251.411 174.773 251.911 174.486C252.411 174.193 253.05 174.367 253.342 174.869C255.864 179.269 259.775 178.702 259.934 178.679C260.492 178.589 261.043 178.974 261.135 179.539C261.231 180.108 260.852 180.644 260.283 180.742C260.262 180.746 260.176 180.759 260.038 180.774Z" fill="#252321"/>
<path d="M272.154 173.447C272.345 175.34 270.963 177.027 269.072 177.217C267.182 177.407 265.492 176.029 265.303 174.135C265.113 172.245 266.494 170.559 268.386 170.369C270.279 170.178 271.962 171.559 272.154 173.447Z" fill="white"/>
<path d="M276.262 194.629C275.988 198.06 270.082 200.391 263.072 199.833C256.06 199.274 250.599 196.041 250.873 192.606C251.145 189.176 257.052 186.849 264.061 187.406C271.073 187.964 276.533 191.195 276.262 194.629Z" fill="#F9DEE8"/>
<path d="M323.725 173.124C324.386 179.732 330.282 184.555 336.894 183.89C343.505 183.227 348.323 177.334 347.662 170.726C346.997 164.114 341.104 159.291 334.495 159.957C327.884 160.618 323.061 166.516 323.725 173.124Z" fill="#252321"/>
<path d="M341.187 167.545C341.051 167.558 340.963 167.562 340.94 167.564C340.359 167.581 339.875 167.123 339.86 166.547C339.848 165.972 340.35 165.493 340.869 165.47C341.028 165.459 344.976 165.241 346.581 160.429C346.759 159.883 347.356 159.586 347.9 159.768C348.45 159.948 348.749 160.544 348.565 161.092C346.713 166.641 342.3 167.432 341.187 167.545Z" fill="#252321"/>
<path d="M341.695 172.586C341.557 172.6 341.469 172.606 341.446 172.606C340.867 172.621 340.383 172.165 340.367 171.589C340.354 171.012 340.808 170.537 341.379 170.51C341.568 170.506 345.485 170.273 347.085 165.471C347.267 164.921 347.862 164.628 348.408 164.808C348.958 164.994 349.255 165.584 349.073 166.134C347.223 171.684 342.808 172.473 341.695 172.586Z" fill="#252321"/>
<path d="M328.365 167.812C328.555 169.701 330.244 171.082 332.131 170.89C334.021 170.705 335.4 169.017 335.213 167.129C335.023 165.236 333.334 163.857 331.445 164.043C329.556 164.235 328.175 165.924 328.365 167.812Z" fill="white"/>
<path d="M328.539 189.387C329.487 192.695 335.737 193.808 342.497 191.87C349.258 189.929 353.968 185.677 353.02 182.366C352.072 179.056 345.82 177.947 339.059 179.885C332.299 181.824 327.591 186.076 328.539 189.387Z" fill="#F9DEE8"/>
<path d="M194.011 155.946L7.22149 91.396L3 96.8108L3.36008 97.4333C51.371 116.413 184.676 166.249 184.676 166.249L194.011 155.946Z" fill="#FFBE88"/>
<path d="M194.011 155.946L184.675 166.249C184.675 166.249 51.3703 116.412 3.35938 97.433L5.51994 101.183L189.822 174.856L199.535 164.079L195.051 156.304L194.011 155.946Z" fill="#FFDF85"/>
<path d="M173.175 165.014L9.22424 54.6649L3.75391 58.8136L3.94161 59.5089C45.469 90.1779 161.508 172.574 161.508 172.574L173.175 165.014Z" fill="#FFDF85"/>
<path d="M173.171 165.014L161.504 172.574C161.504 172.574 45.4649 90.178 3.9375 59.5089L5.06567 63.6864L164.266 182.216L176.421 174.294L174.085 165.629L173.171 165.014Z" fill="#FFEA80"/>
</g>
<defs>
<filter id="filter0_d_748_16353" x="97.5977" y="-15.1265" width="216.512" height="210.767" filterUnits="userSpaceOnUse" color-interpolation-filters="sRGB">
<feFlood flood-opacity="0" result="BackgroundImageFix"/>
<feColorMatrix in="SourceAlpha" type="matrix" values="0 0 0 0 0 0 0 0 0 0 0 0 0 0 0 0 0 0 127 0" result="hardAlpha"/>
<feOffset dy="3"/>
<feGaussianBlur stdDeviation="12.5"/>
<feComposite in2="hardAlpha" operator="out"/>
<feColorMatrix type="matrix" values="0 0 0 0 0 0 0 0 0 0 0 0 0 0 0 0 0 0 0.03 0"/>
<feBlend mode="normal" in2="BackgroundImageFix" result="effect1_dropShadow_748_16353"/>
<feBlend mode="normal" in="SourceGraphic" in2="effect1_dropShadow_748_16353" result="shape"/>
</filter>
<clipPath id="clip0_748_16353">
<rect width="402" height="278" fill="white"/>
</clipPath>
</defs>
</svg>
