<svg width="26" height="26" viewBox="0 0 26 26" fill="none" xmlns="http://www.w3.org/2000/svg">
<path fill-rule="evenodd" clip-rule="evenodd" d="M22.8587 8.6705C22.7973 8.66662 22.7304 8.66664 22.6611 8.66667L22.6438 8.66668H19.9263C17.6863 8.66668 15.7697 10.4299 15.7697 12.7292C15.7697 15.0285 17.6863 16.7917 19.9263 16.7917H22.6438L22.6611 16.7917C22.7304 16.7917 22.7973 16.7917 22.8587 16.7879C23.7685 16.7304 24.5732 16.0184 24.6408 15.0239C24.6453 14.9587 24.6452 14.8884 24.6452 14.8232L24.6452 14.8056V10.6528L24.6452 10.6351C24.6452 10.57 24.6453 10.4997 24.6408 10.4344C24.5732 9.43996 23.7685 8.72795 22.8587 8.6705ZM19.6853 13.8125C20.262 13.8125 20.7295 13.3275 20.7295 12.7292C20.7295 12.1309 20.262 11.6458 19.6853 11.6458C19.1087 11.6458 18.6412 12.1309 18.6412 12.7292C18.6412 13.3275 19.1087 13.8125 19.6853 13.8125Z" fill="#373533"/>
<path fill-rule="evenodd" clip-rule="evenodd" d="M22.6604 18.4167C22.822 18.4125 22.9442 18.5621 22.9004 18.7176C22.6829 19.4894 22.3377 20.1473 21.7838 20.7012C20.9731 21.5119 19.9451 21.8717 18.675 22.0424C17.4408 22.2084 15.8639 22.2083 13.873 22.2083H11.5841C9.59316 22.2083 8.01622 22.2084 6.78207 22.0424C5.51195 21.8717 4.48392 21.5119 3.6732 20.7012C2.86247 19.8904 2.50268 18.8624 2.33191 17.5923C2.16599 16.3581 2.166 14.7812 2.16602 12.7903V12.668C2.166 10.6771 2.16598 9.10021 2.33191 7.86606C2.50268 6.59594 2.86247 5.56791 3.6732 4.75718C4.48392 3.94645 5.51195 3.58666 6.78207 3.4159C8.01622 3.24997 9.59316 3.24998 11.5841 3.25L13.873 3.25C15.8639 3.24998 17.4408 3.24997 18.675 3.4159C19.9451 3.58666 20.9731 3.94645 21.7838 4.75718C22.3377 5.31107 22.6829 5.96889 22.9004 6.7407C22.9442 6.89623 22.8219 7.04586 22.6604 7.04167L19.9262 7.04168C16.8532 7.04168 14.1446 9.46932 14.1446 12.7292C14.1446 15.989 16.8532 18.4167 19.9262 18.4167L22.6604 18.4167ZM7.58268 16.7917C7.13395 16.7917 6.77018 16.4279 6.77018 15.9792V9.47917C6.77018 9.03043 7.13395 8.66667 7.58268 8.66667C8.03141 8.66667 8.39518 9.03043 8.39518 9.47917V15.9792C8.39518 16.4279 8.03141 16.7917 7.58268 16.7917Z" fill="#373533"/>
</svg>
