<svg width="26" height="26" viewBox="0 0 26 26" fill="none" xmlns="http://www.w3.org/2000/svg">
<path d="M15.166 4.3335H10.8327C6.74718 4.3335 4.70442 4.3335 3.43522 5.6027C2.52138 6.51654 2.26552 7.83139 2.19388 10.021H23.8048C23.7332 7.83139 23.4773 6.51654 22.5635 5.6027C21.2943 4.3335 19.2515 4.3335 15.166 4.3335Z" fill="#373533"/>
<path d="M10.8327 21.6668H15.166C19.2515 21.6668 21.2943 21.6668 22.5635 20.3976C23.8327 19.1284 23.8327 17.0857 23.8327 13.0002C23.8327 12.5214 23.8327 12.0707 23.8306 11.646H2.16806C2.16602 12.0707 2.16602 12.5214 2.16602 13.0002C2.16602 17.0857 2.16602 19.1284 3.43522 20.3976C4.70442 21.6668 6.74718 21.6668 10.8327 21.6668Z" fill="#373533"/>
<path fill-rule="evenodd" clip-rule="evenodd" d="M5.68685 17.3335C5.68685 16.8848 6.05062 16.521 6.49935 16.521H10.8327C11.2814 16.521 11.6452 16.8848 11.6452 17.3335C11.6452 17.7822 11.2814 18.146 10.8327 18.146H6.49935C6.05062 18.146 5.68685 17.7822 5.68685 17.3335Z" fill="white"/>
<path fill-rule="evenodd" clip-rule="evenodd" d="M12.7285 17.3335C12.7285 16.8848 13.0923 16.521 13.541 16.521H15.166C15.6147 16.521 15.9785 16.8848 15.9785 17.3335C15.9785 17.7822 15.6147 18.146 15.166 18.146H13.541C13.0923 18.146 12.7285 17.7822 12.7285 17.3335Z" fill="white"/>
</svg>
