<svg width="20" height="20" viewBox="0 0 20 20" fill="none" xmlns="http://www.w3.org/2000/svg">
<path d="M10.0013 14.7915C10.3465 14.7915 10.6263 14.5117 10.6263 14.1665V9.1665C10.6263 8.82132 10.3465 8.5415 10.0013 8.5415C9.65612 8.5415 9.3763 8.82132 9.3763 9.1665V14.1665C9.3763 14.5117 9.65612 14.7915 10.0013 14.7915Z" fill="#F17D39"/>
<path d="M10.0013 5.83317C10.4615 5.83317 10.8346 6.20627 10.8346 6.6665C10.8346 7.12674 10.4615 7.49984 10.0013 7.49984C9.54106 7.49984 9.16797 7.12674 9.16797 6.6665C9.16797 6.20627 9.54106 5.83317 10.0013 5.83317Z" fill="#F17D39"/>
<path fill-rule="evenodd" clip-rule="evenodd" d="M1.04297 9.99984C1.04297 5.05229 5.05375 1.0415 10.0013 1.0415C14.9489 1.0415 18.9596 5.05229 18.9596 9.99984C18.9596 14.9474 14.9489 18.9582 10.0013 18.9582C5.05375 18.9582 1.04297 14.9474 1.04297 9.99984ZM10.0013 2.2915C5.74411 2.2915 2.29297 5.74264 2.29297 9.99984C2.29297 14.257 5.74411 17.7082 10.0013 17.7082C14.2585 17.7082 17.7096 14.257 17.7096 9.99984C17.7096 5.74264 14.2585 2.2915 10.0013 2.2915Z" fill="#F17D39"/>
</svg>
