<svg width="25" height="25" viewBox="0 0 25 25" fill="none" xmlns="http://www.w3.org/2000/svg">
<path d="M10.1549 12.4998C10.1549 11.2054 11.2043 10.1561 12.4987 10.1561C13.7931 10.1561 14.8424 11.2054 14.8424 12.4998C14.8424 13.7943 13.7931 14.8436 12.4987 14.8436C11.2043 14.8436 10.1549 13.7943 10.1549 12.4998Z" fill="#373533"/>
<path fill-rule="evenodd" clip-rule="evenodd" d="M2.08203 12.4998C2.08203 14.2075 2.5247 14.7826 3.41004 15.9328C5.17783 18.2295 8.14257 20.8332 12.4987 20.8332C16.8548 20.8332 19.8196 18.2295 21.5874 15.9328C22.4727 14.7826 22.9154 14.2075 22.9154 12.4998C22.9154 10.7922 22.4727 10.2171 21.5874 9.06685C19.8196 6.77021 16.8548 4.1665 12.4987 4.1665C8.14257 4.1665 5.17783 6.77021 3.41004 9.06685C2.5247 10.2171 2.08203 10.7922 2.08203 12.4998ZM12.4987 8.59359C10.3413 8.59359 8.59245 10.3425 8.59245 12.4998C8.59245 14.6572 10.3413 16.4061 12.4987 16.4061C14.6561 16.4061 16.4049 14.6572 16.4049 12.4998C16.4049 10.3425 14.6561 8.59359 12.4987 8.59359Z" fill="#373533"/>
</svg>
