<svg width="20" height="20" viewBox="0 0 20 20" fill="none" xmlns="http://www.w3.org/2000/svg">
<path fill-rule="evenodd" clip-rule="evenodd" d="M4.3763 8.37868V6.6665C4.3763 3.5599 6.8947 1.0415 10.0013 1.0415C13.1079 1.0415 15.6263 3.5599 15.6263 6.6665V8.37868C16.5553 8.44806 17.1602 8.62321 17.6024 9.0654C18.3346 9.79764 18.3346 10.9761 18.3346 13.3332C18.3346 15.6902 18.3346 16.8687 17.6024 17.6009C16.8702 18.3332 15.6917 18.3332 13.3346 18.3332H6.66797C4.31095 18.3332 3.13243 18.3332 2.4002 17.6009C1.66797 16.8687 1.66797 15.6902 1.66797 13.3332C1.66797 10.9761 1.66797 9.79764 2.4002 9.0654C2.84239 8.62321 3.44734 8.44806 4.3763 8.37868ZM5.6263 6.6665C5.6263 4.25026 7.58506 2.2915 10.0013 2.2915C12.4175 2.2915 14.3763 4.25026 14.3763 6.6665V8.33615C14.0571 8.33317 13.7109 8.33317 13.3346 8.33317H6.66797C6.29171 8.33317 5.94548 8.33317 5.6263 8.33615V6.6665Z" fill="#B9B8B7"/>
</svg>
