
    <svg viewBox="0 0 30 30" fill="none" xmlns="http://www.w3.org/2000/svg">
<path d="M26.25 21.0362V13.9529C26.25 12.6484 26.25 11.9961 25.8961 11.5051C25.6102 11.1084 25.1515 10.8976 24.3334 10.6138C24.166 12.6215 23.5011 14.6719 22.4569 16.4664C21.241 18.556 19.4355 20.4242 17.1212 21.4337C15.7725 22.0221 14.2275 22.0221 12.8788 21.4337C10.5645 20.4242 8.75898 18.556 7.54311 16.4664C6.75107 15.1053 6.17725 13.5969 5.87327 12.0717C5.39509 12.0012 5.02812 12.0374 4.71146 12.214C4.58511 12.2845 4.46735 12.3694 4.36052 12.467C3.75 13.0246 3.75 14.0614 3.75 16.135V22.2972C3.75 23.6016 3.75 24.2539 4.10392 24.7449C4.45784 25.236 5.07661 25.4422 6.31415 25.8547L6.7936 26.0145C8.76483 26.6716 9.75044 27.0002 10.7586 27.0021C11.0622 27.0026 11.3655 26.9811 11.666 26.9376C12.6638 26.7931 13.6011 26.3244 15.4758 25.3871C16.9124 24.6688 17.6307 24.3096 18.3938 24.143C18.6616 24.0845 18.9329 24.0437 19.2061 24.0209C19.9844 23.9557 20.7696 24.0866 22.3402 24.3484C23.9318 24.6136 24.7277 24.7463 25.3087 24.4126C25.5061 24.2993 25.6811 24.151 25.8253 23.975C26.25 23.4567 26.25 22.6499 26.25 21.0362Z" fill="#252321"/>
<path fill-rule="evenodd" clip-rule="evenodd" d="M15 2.5C10.8579 2.5 7.5 5.69014 7.5 9.62538C7.5 13.5298 9.89374 18.0859 13.6285 19.7151C14.4991 20.0949 15.5009 20.0949 16.3715 19.7151C20.1063 18.0859 22.5 13.5298 22.5 9.62538C22.5 5.69014 19.1421 2.5 15 2.5ZM15 12.5C16.3807 12.5 17.5 11.3807 17.5 10C17.5 8.61929 16.3807 7.5 15 7.5C13.6193 7.5 12.5 8.61929 12.5 10C12.5 11.3807 13.6193 12.5 15 12.5Z" fill="url(#paint0_linear_211_2924)"/>
<defs>
<linearGradient id="paint0_linear_211_2924" x1="15" y1="-1" x2="15" y2="20" gradientUnits="userSpaceOnUse">
<stop stop-color="#E94F2F"/>
<stop offset="1" stop-color="#F18038"/>
</linearGradient>
</defs>
</svg>

