<svg width="60" height="60" viewBox="0 0 60 60" fill="none" xmlns="http://www.w3.org/2000/svg">
<path fill-rule="evenodd" clip-rule="evenodd" d="M29.9987 59.1668C46.107 59.1668 59.1654 46.1085 59.1654 30.0002C59.1654 13.8919 46.107 0.833496 29.9987 0.833496C13.8904 0.833496 0.832031 13.8919 0.832031 30.0002C0.832031 46.1085 13.8904 59.1668 29.9987 59.1668ZM24.0769 19.7034C24.9312 18.8491 26.3162 18.8491 27.1705 19.7034L35.9205 28.4534C36.7748 29.3076 36.7748 30.6927 35.9205 31.547L27.1705 40.297C26.3162 41.1512 24.9312 41.1512 24.0769 40.297C23.2226 39.4427 23.2226 38.0576 24.0769 37.2034L31.2801 30.0002L24.0769 22.797C23.2226 21.9427 23.2226 20.5576 24.0769 19.7034Z" fill="white"/>
</svg>
