<svg width="26" height="26" viewBox="0 0 26 26" fill="none" xmlns="http://www.w3.org/2000/svg">
<g clip-path="url(#clip0_1288_1042)">
<path d="M13.0019 25.4745C19.8914 25.4745 25.4764 19.8894 25.4764 12.9999C25.4764 6.11043 19.8914 0.525391 13.0019 0.525391C6.11239 0.525391 0.527344 6.11043 0.527344 12.9999C0.527344 19.8894 6.11239 25.4745 13.0019 25.4745Z" fill="#FC3F1D"/>
<path d="M17.5136 20.8309H14.7752V7.28687H13.5553C11.3192 7.28687 10.1479 8.40493 10.1479 10.0739C10.1479 11.9674 10.9557 12.8447 12.627 13.9628L14.0043 14.891L10.046 20.8285H7.10156L10.6641 15.5276C8.61545 14.0647 7.46267 12.6364 7.46267 10.2267C7.46267 7.21511 9.56221 5.1665 13.5367 5.1665H17.4951V20.8262H17.5136V20.8309Z" fill="white"/>
</g>
<defs>
<clipPath id="clip0_1288_1042">
<rect width="25" height="25" fill="white" transform="translate(0.5 0.5)"/>
</clipPath>
</defs>
</svg>
