<svg width="26" height="26" viewBox="0 0 26 26" fill="none" xmlns="http://www.w3.org/2000/svg">
<path d="M1.33333 4.6665H24.6667C25.4031 4.6665 26 5.26347 26 5.99984V19.9998C26 20.7362 25.4031 21.3332 24.6667 21.3332H1.33333C0.596967 21.3332 0 20.7362 0 19.9998V5.99984C0 5.26347 0.596967 4.6665 1.33333 4.6665Z" fill="#0E4595"/>
<path d="M9.7751 16.2911L10.8871 9.76572H12.6658L11.553 16.2911H9.7751ZM17.9788 9.90639C17.6264 9.77419 17.0742 9.63232 16.3847 9.63232C14.6272 9.63232 13.3892 10.5173 13.3787 11.7858C13.3687 12.7234 14.2625 13.2465 14.9371 13.5586C15.6295 13.8785 15.8622 14.0824 15.8589 14.3681C15.8545 14.8054 15.306 15.0053 14.7948 15.0053C14.0829 15.0053 13.7047 14.9064 13.1206 14.6627L12.8914 14.5591L12.6418 16.0198C13.0572 16.202 13.8254 16.3598 14.623 16.3679C16.4927 16.3679 17.7064 15.4931 17.7202 14.1385C17.7269 13.3962 17.253 12.8313 16.2269 12.3656C15.6052 12.0638 15.2245 11.8623 15.2285 11.5567C15.2285 11.2854 15.5508 10.9954 16.2471 10.9954C16.8287 10.9864 17.2501 11.1132 17.5783 11.2454L17.7377 11.3207L17.9788 9.90639ZM22.5558 9.76562H21.1814C20.7556 9.76562 20.437 9.88186 20.25 10.3068L17.6085 16.2868H19.4762C19.4762 16.2868 19.7816 15.4827 19.8506 15.3062C20.0548 15.3062 21.8691 15.309 22.1286 15.309C22.1818 15.5374 22.3449 16.2868 22.3449 16.2868H23.9954L22.5558 9.76542V9.76562ZM20.3752 13.9793C20.5222 13.6033 21.0838 12.1552 21.0838 12.1552C21.0733 12.1726 21.2298 11.7774 21.3196 11.5324L21.4398 12.095C21.4398 12.095 21.7804 13.6527 21.8516 13.9793H20.3752ZM8.26517 9.76562L6.52383 14.2156L6.33827 13.3113C6.0141 12.2689 5.0041 11.1395 3.875 10.574L5.4672 16.2807L7.34907 16.2786L10.1492 9.76556H8.26517" fill="white"/>
<path d="M4.89855 9.76527H2.03051L2.00781 9.90104C4.23908 10.4412 5.71548 11.7465 6.32848 13.3147L5.70481 10.316C5.59715 9.90287 5.28491 9.77957 4.89861 9.76514" fill="#F2AE14"/>
</svg>
