<svg width="26" height="17" viewBox="0 0 26 17" fill="none" xmlns="http://www.w3.org/2000/svg">
<path d="M1.33333 0H24.6667C25.4031 0 26 0.596967 26 1.33333V15.3333C26 16.0697 25.4031 16.6667 24.6667 16.6667H1.33333C0.596967 16.6667 0 16.0697 0 15.3333V1.33333C0 0.596967 0.596967 0 1.33333 0Z" fill="#0E4595"/>
<path d="M9.7751 11.6236L10.8871 5.09824H12.6658L11.553 11.6236H9.7751ZM17.9788 5.23891C17.6264 5.10671 17.0742 4.96484 16.3847 4.96484C14.6272 4.96484 13.3892 5.84984 13.3787 7.11828C13.3687 8.05594 14.2625 8.57901 14.9371 8.89114C15.6295 9.21098 15.8622 9.41494 15.8589 9.70058C15.8545 10.1379 15.306 10.3378 14.7948 10.3378C14.0829 10.3378 13.7047 10.2389 13.1206 9.99524L12.8914 9.89158L12.6418 11.3523C13.0572 11.5345 13.8254 11.6923 14.623 11.7004C16.4927 11.7004 17.7064 10.8256 17.7202 9.47104C17.7269 8.72874 17.253 8.16384 16.2269 7.69811C15.6052 7.39628 15.2245 7.19481 15.2285 6.88918C15.2285 6.61794 15.5508 6.32788 16.2471 6.32788C16.8287 6.31888 17.2501 6.44571 17.5783 6.57788L17.7377 6.65321L17.9788 5.23891ZM22.5558 5.09814H21.1814C20.7556 5.09814 20.437 5.21438 20.25 5.63928L17.6085 11.6193H19.4762C19.4762 11.6193 19.7816 10.8152 19.8506 10.6387C20.0548 10.6387 21.8691 10.6415 22.1286 10.6415C22.1818 10.8699 22.3449 11.6193 22.3449 11.6193H23.9954L22.5558 5.09794V5.09814ZM20.3752 9.31181C20.5222 8.93584 21.0838 7.48771 21.0838 7.48771C21.0733 7.50511 21.2298 7.10991 21.3196 6.86491L21.4398 7.42754C21.4398 7.42754 21.7804 8.98518 21.8516 9.31181H20.3752ZM8.26517 5.09814L6.52383 9.54814L6.33827 8.64381C6.0141 7.60138 5.0041 6.47198 3.875 5.90654L5.4672 11.6132L7.34907 11.6111L10.1492 5.09808H8.26517" fill="white"/>
<path d="M4.89855 5.09877H2.03051L2.00781 5.23453C4.23908 5.77467 5.71548 7.07997 6.32848 8.6482L5.70481 5.64953C5.59715 5.23637 5.28491 5.11307 4.89861 5.09863" fill="#F2AE14"/>
</svg>
