
    <svg viewBox="0 0 30 30" fill="none" xmlns="http://www.w3.org/2000/svg">
<path d="M27.5 7.5C27.5 9.57107 25.8211 11.25 23.75 11.25C21.6789 11.25 20 9.57107 20 7.5C20 5.42893 21.6789 3.75 23.75 3.75C25.8211 3.75 27.5 5.42893 27.5 7.5Z" fill="url(#paint0_linear_295_394)"/>
<path fill-rule="evenodd" clip-rule="evenodd" d="M17.5 6.25H12.5C7.78595 6.25 5.42893 6.25 3.96447 7.71447C2.5 9.17893 2.5 11.536 2.5 16.25C2.5 20.964 2.5 23.3211 3.96447 24.7855C5.42893 26.25 7.78595 26.25 12.5 26.25H17.5C22.214 26.25 24.5711 26.25 26.0355 24.7855C27.5 23.3211 27.5 20.964 27.5 16.25C27.5 14.4333 27.5 12.9666 27.4162 11.7662C26.4316 12.6131 25.1506 13.125 23.75 13.125C23.1516 13.125 22.5751 13.0316 22.0342 12.8585L20.3546 14.2582C19.2466 15.1815 18.3486 15.9299 17.556 16.4397C16.7304 16.9707 15.9263 17.3061 15 17.3061C14.0737 17.3061 13.2696 16.9707 12.444 16.4397C11.6514 15.9299 10.7534 15.1815 9.64544 14.2582L6.89983 11.9702C6.50207 11.6387 6.44833 11.0476 6.77979 10.6498C7.11126 10.2521 7.70241 10.1983 8.10017 10.5298L10.7988 12.7786C11.965 13.7505 12.7747 14.423 13.4582 14.8627C14.1199 15.2882 14.5687 15.4311 15 15.4311C15.4313 15.4311 15.8801 15.2882 16.5418 14.8627C17.2253 14.423 18.035 13.7505 19.2012 12.7786L20.2505 11.9042C18.9553 10.8737 18.125 9.2838 18.125 7.5C18.125 7.07047 18.1731 6.65219 18.2643 6.25025C18.0167 6.25 17.762 6.25 17.5 6.25Z" fill="#252321"/>
<defs>
<linearGradient id="paint0_linear_295_394" x1="20" y1="4" x2="28" y2="10.5" gradientUnits="userSpaceOnUse">
<stop stop-color="#E94F2F"/>
<stop offset="1" stop-color="#F4983C"/>
</linearGradient>
</defs>
</svg>

