<svg width="26" height="26" viewBox="0 0 26 26" fill="none" xmlns="http://www.w3.org/2000/svg">
<g clip-path="url(#clip0_579_501)">
<path d="M25.489 22.8397V22.8917H25.5375C25.5466 22.8918 25.5556 22.8896 25.5635 22.8851C25.5667 22.8828 25.5692 22.8798 25.5709 22.8764C25.5727 22.8729 25.5735 22.869 25.5733 22.8652C25.5735 22.8614 25.5726 22.8576 25.5709 22.8542C25.5692 22.8508 25.5667 22.8479 25.5635 22.8458C25.5557 22.8411 25.5467 22.8388 25.5375 22.8392H25.489V22.8397ZM25.5381 22.8029C25.5588 22.8016 25.5794 22.8076 25.5963 22.8198C25.6031 22.8254 25.6084 22.8324 25.612 22.8404C25.6155 22.8484 25.6171 22.8571 25.6167 22.8658C25.617 22.8733 25.6157 22.8808 25.6129 22.8878C25.6101 22.8948 25.6058 22.9011 25.6003 22.9063C25.5873 22.9176 25.571 22.9244 25.5538 22.9256L25.6188 22.9997H25.5687L25.5089 22.9262H25.4896V22.9997H25.4477V22.803H25.5387L25.5381 22.8029ZM25.5251 23.0676C25.547 23.0678 25.5688 23.0634 25.5889 23.0546C25.6083 23.0462 25.6259 23.0343 25.6409 23.0194C25.6559 23.0045 25.6678 22.9868 25.6761 22.9674C25.6932 22.9262 25.6932 22.8799 25.6761 22.8387C25.6677 22.8193 25.6558 22.8017 25.6409 22.7867C25.6259 22.7717 25.6083 22.7598 25.5889 22.7514C25.5686 22.7431 25.5469 22.739 25.5251 22.7392C25.5028 22.739 25.4807 22.7432 25.4601 22.7514C25.4402 22.7596 25.4222 22.7716 25.4069 22.7867C25.3839 22.8102 25.3683 22.8401 25.3622 22.8724C25.356 22.9048 25.3595 22.9383 25.3722 22.9687C25.3801 22.9882 25.3919 23.0059 25.4069 23.0207C25.4222 23.0357 25.4402 23.0477 25.4601 23.0559C25.4806 23.0647 25.5027 23.0691 25.5251 23.0689M25.5251 22.6919C25.5822 22.6918 25.6371 22.7142 25.6778 22.7543C25.6975 22.7735 25.7131 22.7965 25.7238 22.8218C25.7349 22.8478 25.7407 22.8757 25.7407 22.904C25.7407 22.9323 25.7349 22.9602 25.7238 22.9862C25.7128 23.0114 25.6972 23.0343 25.6778 23.0537C25.6579 23.0728 25.6347 23.0882 25.6093 23.0992C25.5827 23.1105 25.554 23.1162 25.5251 23.1161C25.4958 23.1163 25.4668 23.1105 25.4398 23.0992C25.4141 23.0885 25.3907 23.073 25.3707 23.0537C25.3513 23.0336 25.3359 23.0099 25.3254 22.984C25.3143 22.958 25.3085 22.93 25.3085 22.9018C25.3085 22.8735 25.3143 22.8455 25.3254 22.8196C25.3361 22.7942 25.3517 22.7713 25.3714 22.7521C25.3911 22.7324 25.4146 22.7169 25.4404 22.7066C25.4674 22.6952 25.4964 22.6895 25.5257 22.6897M5.61946 21.9323C5.61946 21.5573 5.86516 21.2492 6.26673 21.2492C6.65049 21.2492 6.90945 21.544 6.90945 21.9323C6.90945 22.3206 6.65049 22.6155 6.26673 22.6155C5.86516 22.6155 5.61946 22.3074 5.61946 21.9323ZM7.3469 21.9323V20.865H6.88293V21.125C6.73577 20.9329 6.51256 20.8124 6.20901 20.8124C5.61101 20.8124 5.14171 21.2814 5.14171 21.9328C5.14171 22.5843 5.61075 23.0533 6.20901 23.0533C6.51243 23.0533 6.73577 22.9327 6.88293 22.7406V22.9997H7.34638V21.9323H7.3469ZM23.0239 21.9323C23.0239 21.5573 23.2696 21.2492 23.6713 21.2492C24.0554 21.2492 24.314 21.544 24.314 21.9323C24.314 22.3206 24.0554 22.6155 23.6713 22.6155C23.2697 22.6155 23.0239 22.3074 23.0239 21.9323ZM24.7518 21.9323V20.0083H24.2875V21.125C24.1403 20.9329 23.9171 20.8124 23.6135 20.8124C23.0155 20.8124 22.5462 21.2814 22.5462 21.9328C22.5462 22.5843 23.0153 23.0533 23.6135 23.0533C23.9171 23.0533 24.1403 22.9327 24.2875 22.7406V22.9997H24.7518V21.9323ZM13.1054 21.2272C13.4044 21.2272 13.5964 21.4146 13.6454 21.7447H12.5383C12.5878 21.4366 12.7749 21.2272 13.1055 21.2272M13.1147 20.8112C12.4894 20.8112 12.052 21.2662 12.052 21.9317C12.052 22.6101 12.507 23.0521 13.1458 23.0521C13.4672 23.0521 13.7615 22.9719 14.0204 22.7531L13.7931 22.4093C13.6142 22.5523 13.3864 22.6325 13.1723 22.6325C12.8733 22.6325 12.6011 22.494 12.5342 22.1099H14.1185C14.123 22.0522 14.1277 21.9939 14.1277 21.9315C14.123 21.2663 13.7117 20.8111 13.1145 20.8111M18.7162 21.9315C18.7162 21.5565 18.9619 21.2484 19.3634 21.2484C19.7472 21.2484 20.0062 21.5432 20.0062 21.9315C20.0062 22.3198 19.7472 22.6147 19.3634 22.6147C18.9619 22.6147 18.716 22.3066 18.716 21.9315M20.4435 21.9315V20.865H19.9798V21.125C19.8321 20.9329 19.6094 20.8124 19.3059 20.8124C18.7079 20.8124 18.2386 21.2814 18.2386 21.9328C18.2386 22.5843 18.7076 23.0533 19.3059 23.0533C19.6094 23.0533 19.8321 22.9327 19.9798 22.7406V22.9997H20.4436V21.9323L20.4435 21.9315ZM16.096 21.9315C16.096 22.5788 16.5466 23.052 17.2343 23.052C17.5557 23.052 17.7698 22.9805 18.0013 22.7976L17.7785 22.4225C17.6043 22.5477 17.4214 22.6147 17.2195 22.6147C16.8491 22.6101 16.5768 22.3423 16.5768 21.9315C16.5768 21.5207 16.8491 21.2531 17.2195 21.2484C17.4209 21.2484 17.6038 21.3153 17.7785 21.4405L18.0013 21.0655C17.7694 20.8826 17.5553 20.8111 17.2343 20.8111C16.5466 20.8111 16.096 21.2841 16.096 21.9315ZM22.0773 20.8111C21.8097 20.8111 21.6353 20.9362 21.5148 21.1237V20.865H21.055V22.9986H21.5195V21.8026C21.5195 21.4495 21.6712 21.2533 21.9745 21.2533C22.0738 21.2519 22.1724 21.2701 22.2647 21.307L22.4077 20.8697C22.305 20.8293 22.1711 20.8114 22.0771 20.8114M9.64075 21.0347C9.41754 20.8875 9.10996 20.8114 8.77066 20.8114C8.23012 20.8114 7.88211 21.0705 7.88211 21.4945C7.88211 21.8423 8.1412 22.057 8.6183 22.1239L8.83748 22.1551C9.09189 22.1909 9.21201 22.2578 9.21201 22.3783C9.21201 22.5433 9.04301 22.6374 8.72568 22.6374C8.40432 22.6374 8.1724 22.5347 8.01601 22.4142L7.798 22.776C8.05241 22.9635 8.37377 23.0529 8.72178 23.0529C9.33798 23.0529 9.69509 22.7627 9.69509 22.3565C9.69509 21.9814 9.41403 21.7853 8.94967 21.7183L8.73101 21.6866C8.53016 21.6606 8.36922 21.6202 8.36922 21.4772C8.36922 21.3212 8.52093 21.2273 8.77547 21.2273C9.04782 21.2273 9.31146 21.33 9.44068 21.4102L9.64153 21.0352L9.64075 21.0347ZM15.6274 20.8118C15.3597 20.8118 15.1854 20.937 15.0654 21.1245V20.865H14.6056V22.9986H15.0695V21.8026C15.0695 21.4495 15.2213 21.2533 15.5245 21.2533C15.6239 21.2519 15.7225 21.2701 15.8147 21.307L15.9577 20.8697C15.855 20.8293 15.7211 20.8114 15.6271 20.8114M11.6681 20.865H10.9094V20.2177H10.4404V20.865H10.0076V21.2891H10.4404V22.2624C10.4404 22.7574 10.6325 23.0523 11.1814 23.0523C11.3827 23.0523 11.6147 22.9899 11.7618 22.8873L11.6278 22.49C11.4893 22.5702 11.3376 22.6106 11.217 22.6106C10.9851 22.6106 10.9094 22.4676 10.9094 22.2535V21.2895H11.6681V20.865ZM4.73143 22.9991V21.6601C4.73143 21.1558 4.41007 20.8165 3.89202 20.812C3.61967 20.8074 3.33874 20.8922 3.14205 21.1916C2.99489 20.955 2.76297 20.812 2.43693 20.812C2.20904 20.812 1.98635 20.8789 1.81202 21.1288V20.865H1.34766V22.9986H1.81566V21.8156C1.81566 21.4452 2.02106 21.2484 2.33826 21.2484C2.64636 21.2484 2.80223 21.4492 2.80223 21.8109V22.9983H3.27127V21.8153C3.27127 21.4449 3.48538 21.2481 3.79335 21.2481C4.11016 21.2481 4.26135 21.449 4.26135 21.8106V22.998L4.73143 22.9991Z" fill="#231F20"/>
<path d="M25.7514 15.9018V15.5898H25.6701L25.5761 15.804L25.4827 15.5898H25.4012V15.9018H25.4589V15.6668L25.5468 15.8696H25.6066L25.6944 15.6663V15.9018H25.7516H25.7514ZM25.2359 15.9018V15.6433H25.3399V15.5906H25.0742V15.6433H25.1782V15.9018H25.2354H25.2359Z" fill="#F79410"/>
<path d="M16.5156 17.24H9.48438V4.604H16.5157L16.5156 17.24Z" fill="#FF5F00"/>
<path d="M9.932 10.9224C9.932 8.35924 11.1322 6.07592 13.001 4.60445C11.5864 3.48898 9.8367 2.88358 8.03517 2.88624C3.59736 2.88624 0 6.48412 0 10.9224C0 15.3608 3.59736 18.9587 8.03517 18.9587C9.83674 18.9613 11.5865 18.3559 13.0012 17.2404C11.1324 15.7692 9.932 13.4858 9.932 10.9224Z" fill="#EB001B"/>
<path d="M26.0018 10.9224C26.0018 15.3608 22.4045 18.9587 17.9667 18.9587C16.1649 18.9613 14.4149 18.3559 13 17.2404C14.8694 15.769 16.0696 13.4858 16.0696 10.9224C16.0696 8.35911 14.8694 6.07592 13 4.60445C14.4149 3.48901 16.1648 2.88362 17.9665 2.88624C22.4043 2.88624 26.0017 6.48412 26.0017 10.9224" fill="#F79E1B"/>
</g>
<defs>
<clipPath id="clip0_579_501">
<rect width="26" height="26" fill="white"/>
</clipPath>
</defs>
</svg>
