<svg viewBox="0 0 26 26" fill="none" xmlns="http://www.w3.org/2000/svg">
<path fill-rule="evenodd" clip-rule="evenodd" d="M23.8333 12.9998C23.8333 18.9829 18.983 23.8332 13 23.8332C7.01687 23.8332 2.16663 18.9829 2.16663 12.9998C2.16663 7.01675 7.01687 2.1665 13 2.1665C18.983 2.1665 23.8333 7.01675 23.8333 12.9998ZM9.71706 9.71696C10.0344 9.39966 10.5488 9.39966 10.8661 9.71696L12.9999 11.8508L15.1337 9.71698C15.451 9.39968 15.9655 9.39968 16.2828 9.71698C16.6001 10.0343 16.6001 10.5487 16.2828 10.866L14.149 12.9998L16.2828 15.1336C16.6001 15.4509 16.6001 15.9654 16.2828 16.2827C15.9654 16.6 15.451 16.6 15.1337 16.2827L12.9999 14.1489L10.8661 16.2827C10.5488 16.6 10.0344 16.6 9.71708 16.2827C9.39978 15.9654 9.39978 15.4509 9.71708 15.1336L11.8509 12.9998L9.71706 10.866C9.39976 10.5487 9.39976 10.0343 9.71706 9.71696Z" fill="url(#paint0_linear_255_316)" fill-opacity="0.6"/>
<defs>
<linearGradient id="paint0_linear_255_316" x1="13" y1="2.1665" x2="13" y2="23.8332" gradientUnits="userSpaceOnUse">
<stop stop-color="#F4913C"/>
<stop offset="1" stop-color="#EB5B31"/>
</linearGradient>
</defs>
</svg>
