<svg width="18" height="18" viewBox="0 0 18 18" fill="none" xmlns="http://www.w3.org/2000/svg">
<path fill-rule="evenodd" clip-rule="evenodd" d="M9 1.5C5.68629 1.5 3 4.23441 3 7.60747C3 10.9541 4.91499 14.8593 7.9028 16.2558C8.59931 16.5814 9.40069 16.5814 10.0972 16.2558C13.085 14.8593 15 10.9541 15 7.60747C15 4.23441 12.3137 1.5 9 1.5ZM6.75 6.568C6.75 7.33269 7.62364 8.14071 8.28215 8.64114C8.59696 8.88038 8.75437 9 9 9C9.24564 9 9.40304 8.88038 9.71786 8.64114C10.3764 8.14072 11.25 7.33271 11.25 6.568C11.25 5.26825 10.0125 4.78299 9 5.78703C7.98754 4.78299 6.75 5.26825 6.75 6.568Z" fill="#F4933C"/>
</svg>
