<svg width="25" height="26" viewBox="0 0 25 26" fill="none" xmlns="http://www.w3.org/2000/svg">
<g clip-path="url(#clip0_919_4792)">
<path d="M24.8544 13.1659C24.8547 12.4279 24.7889 11.6915 24.6578 10.9652L22.0112 12.9129C22.0112 12.9976 22.0112 13.0811 22.0112 13.1659C22.0133 15.2786 21.3072 17.3312 20.0054 18.9962C18.7036 20.6613 16.8812 21.8428 14.8288 22.3523C12.7763 22.8619 10.6122 22.6701 8.68166 21.8076C6.7511 20.945 5.16529 19.4615 4.17722 17.5935C3.18915 15.7255 2.85573 13.5808 3.23017 11.5015C3.60461 9.42211 4.66534 7.52794 6.24312 6.1211C7.8209 4.71426 9.82485 3.87582 11.9353 3.73953C14.0457 3.60323 16.141 4.17693 17.887 5.36911L20.2779 3.60935C18.1084 1.86033 15.4082 0.899985 12.6204 0.885899C9.83256 0.871813 7.12276 1.80482 4.93562 3.53183C2.74849 5.25883 1.21394 7.67725 0.583786 10.3902C-0.0463707 13.1032 0.265296 15.9496 1.46764 18.4623C2.66999 20.975 4.6916 23.0049 7.20074 24.2187C9.70988 25.4325 12.5575 25.7582 15.2763 25.1423C17.9952 24.5265 20.4237 23.0057 22.1634 20.8295C23.9032 18.6533 24.8508 15.9509 24.8507 13.1659H24.8544Z" fill="#21A049"/>
<path d="M22.2885 5.65625C22.8733 6.41007 23.3684 7.22936 23.7636 8.09757L12.5626 16.345L7.88281 13.4137V9.88803L12.5626 12.8193L22.2885 5.65625Z" fill="#21A049"/>
</g>
<defs>
<clipPath id="clip0_919_4792">
<rect width="25" height="25" fill="white" transform="translate(0 0.5)"/>
</clipPath>
</defs>
</svg>
