<svg width="30" height="30" viewBox="0 0 30 30" fill="none" xmlns="http://www.w3.org/2000/svg">
<path fill-rule="evenodd" clip-rule="evenodd" d="M27.5 15C27.5 21.9036 21.9036 27.5 15 27.5C8.09644 27.5 2.5 21.9036 2.5 15C2.5 8.09644 8.09644 2.5 15 2.5C21.9036 2.5 27.5 8.09644 27.5 15ZM18.75 11.25C18.75 13.3211 17.0711 15 15 15C12.9289 15 11.25 13.3211 11.25 11.25C11.25 9.17893 12.9289 7.5 15 7.5C17.0711 7.5 18.75 9.17893 18.75 11.25ZM15 25.625C17.23 25.625 19.2996 24.938 21.0086 23.764C21.7635 23.2455 22.0861 22.2578 21.6472 21.454C20.7374 19.7878 18.8628 18.75 14.9999 18.75C11.1371 18.75 9.26246 19.7878 8.35268 21.454C7.91381 22.2577 8.23638 23.2454 8.99119 23.7639C10.7002 24.9379 12.7699 25.625 15 25.625Z" fill="url(#paint0_linear_467_3100)"/>
<defs>
<linearGradient id="paint0_linear_467_3100" x1="15" y1="2.5" x2="15" y2="27.5" gradientUnits="userSpaceOnUse">
<stop stop-color="#EB5831"/>
<stop offset="1" stop-color="#F17F38"/>
</linearGradient>
</defs>
</svg>
