
    <svg viewBox="0 0 18 18" fill="none" xmlns="http://www.w3.org/2000/svg">
<path fill-rule="evenodd" clip-rule="evenodd" d="M15.4466 6.16917C15.4064 6.16663 15.3627 6.16665 15.3174 6.16667L15.3061 6.16667H13.5292C12.0646 6.16667 10.8115 7.31952 10.8115 8.82292C10.8115 10.3263 12.0646 11.4792 13.5292 11.4792H15.3061L15.3174 11.4792C15.3627 11.4792 15.4064 11.4792 15.4466 11.4767C16.0415 11.4391 16.5676 10.9736 16.6118 10.3233C16.6147 10.2807 16.6147 10.2347 16.6147 10.1921L16.6147 10.1806V7.46528L16.6147 7.45372C16.6147 7.41112 16.6147 7.36516 16.6118 7.32252C16.5676 6.67228 16.0415 6.20673 15.4466 6.16917ZM13.3717 9.53125C13.7488 9.53125 14.0544 9.21412 14.0544 8.82292C14.0544 8.43171 13.7488 8.11458 13.3717 8.11458C12.9946 8.11458 12.689 8.43171 12.689 8.82292C12.689 9.21412 12.9946 9.53125 13.3717 9.53125Z" fill="url(#paint0_linear_160_1997)"/>
<path fill-rule="evenodd" clip-rule="evenodd" d="M15.3169 12.5417C15.4226 12.5389 15.5025 12.6368 15.4738 12.7384C15.3316 13.2431 15.106 13.6732 14.7438 14.0354C14.2137 14.5655 13.5415 14.8007 12.7111 14.9124C11.9041 15.0209 10.873 15.0208 9.57129 15.0208H8.07471C6.77296 15.0208 5.74189 15.0209 4.93494 14.9124C4.10448 14.8007 3.4323 14.5655 2.90221 14.0354C2.37212 13.5053 2.13687 12.8331 2.02522 12.0026C1.91673 11.1957 1.91674 10.1646 1.91675 8.86288V8.78295C1.91674 7.48121 1.91673 6.45013 2.02522 5.64319C2.13687 4.81273 2.37212 4.14055 2.90221 3.61046C3.4323 3.08037 4.10448 2.84512 4.93494 2.73347C5.74188 2.62498 6.77296 2.62499 8.0747 2.625L9.5713 2.625C10.873 2.62499 11.9041 2.62498 12.7111 2.73347C13.5415 2.84512 14.2137 3.08037 14.7438 3.61046C15.1059 3.97262 15.3316 4.40273 15.4738 4.90738C15.5025 5.00908 15.4225 5.10691 15.3169 5.10417L13.5292 5.10417C11.5199 5.10417 9.74888 6.69148 9.74888 8.82292C9.74888 10.9544 11.5199 12.5417 13.5292 12.5417L15.3169 12.5417ZM5.45842 11.4792C5.16501 11.4792 4.92717 11.2413 4.92717 10.9479V6.69792C4.92717 6.40451 5.16501 6.16667 5.45842 6.16667C5.75182 6.16667 5.98967 6.40451 5.98967 6.69792V10.9479C5.98967 11.2413 5.75182 11.4792 5.45842 11.4792Z" fill="url(#paint1_linear_160_1997)"/>
<defs>
<linearGradient id="paint0_linear_160_1997" x1="9.26571" y1="2.625" x2="9.26571" y2="15.0208" gradientUnits="userSpaceOnUse">
<stop stop-color="#F4973C"/>
<stop offset="1" stop-color="#EA5430"/>
</linearGradient>
<linearGradient id="paint1_linear_160_1997" x1="9.26571" y1="2.625" x2="9.26571" y2="15.0208" gradientUnits="userSpaceOnUse">
<stop stop-color="#F4973C"/>
<stop offset="1" stop-color="#EA5430"/>
</linearGradient>
</defs>
</svg>

