<svg viewBox="0 0 30 30" fill="none" xmlns="http://www.w3.org/2000/svg">
<path fill-rule="evenodd" clip-rule="evenodd" d="M12.4996 2.8125C11.6266 2.8125 10.873 3.3239 10.5221 4.06346C9.6677 4.06967 9.00177 4.1089 8.40734 4.34122C7.6971 4.61881 7.07933 5.09068 6.62469 5.70288C6.16603 6.32048 5.95072 7.1121 5.65437 8.20167L5.59639 8.41461L4.95548 12.1184C4.72356 12.2784 4.52214 12.4678 4.34697 12.6922C3.22093 14.1344 3.75714 16.2793 4.82958 20.569C5.51167 23.2974 5.85271 24.6615 6.86994 25.4558C7.88717 26.25 9.29333 26.25 12.1056 26.25H17.894C20.7063 26.25 22.1125 26.25 23.1297 25.4558C24.1469 24.6615 24.488 23.2974 25.1701 20.569C26.2425 16.2793 26.7787 14.1344 25.6527 12.6922C25.4774 12.4677 25.2758 12.2781 25.0436 12.118L24.4028 8.41461L24.3448 8.20166C24.0484 7.1121 23.8331 6.32048 23.3745 5.70288C22.9198 5.09068 22.302 4.61881 21.5918 4.34122C20.9974 4.1089 20.3314 4.06967 19.477 4.06346C19.1261 3.3239 18.3726 2.8125 17.4996 2.8125H12.4996ZM23.0221 11.4321L22.5704 8.82206C22.2157 7.52242 22.0869 7.11401 21.8692 6.82078C21.6244 6.49114 21.2917 6.23705 20.9093 6.08758C20.6345 5.9802 20.3026 5.9486 19.4753 5.94024C19.1236 6.67781 18.3711 7.1875 17.4996 7.1875H12.4996C11.628 7.1875 10.8755 6.67781 10.5239 5.94024C9.6966 5.9486 9.36462 5.9802 9.08987 6.08758C8.70744 6.23705 8.3748 6.49114 8.12999 6.82078C7.91223 7.11401 7.78348 7.52242 7.42875 8.82206L6.97708 11.4322C8.22478 11.25 9.88687 11.25 12.1056 11.25H17.894C20.1125 11.25 21.7744 11.25 23.0221 11.4321ZM9.99988 15.3125C10.5176 15.3125 10.9374 15.7322 10.9374 16.25V21.25C10.9374 21.7678 10.5176 22.1875 9.99988 22.1875C9.48211 22.1875 9.06238 21.7678 9.06238 21.25V16.25C9.06238 15.7322 9.48211 15.3125 9.99988 15.3125ZM20.9374 16.25C20.9374 15.7322 20.5176 15.3125 19.9999 15.3125C19.4821 15.3125 19.0624 15.7322 19.0624 16.25V21.25C19.0624 21.7678 19.4821 22.1875 19.9999 22.1875C20.5176 22.1875 20.9374 21.7678 20.9374 21.25V16.25ZM14.9999 15.3125C15.5176 15.3125 15.9374 15.7322 15.9374 16.25V21.25C15.9374 21.7678 15.5176 22.1875 14.9999 22.1875C14.4821 22.1875 14.0624 21.7678 14.0624 21.25V16.25C14.0624 15.7322 14.4821 15.3125 14.9999 15.3125Z" fill="#252321"/>
</svg>
