<svg viewBox="0 0 70 70" fill="none" xmlns="http://www.w3.org/2000/svg">
<g clip-path="url(#clip0_467_2751)">
<g filter="url(#filter0_d_467_2751)">
<path fill-rule="evenodd" clip-rule="evenodd" d="M64.1667 35.0002C64.1667 51.1085 51.1083 64.1668 35 64.1668C18.8917 64.1668 5.83331 51.1085 5.83331 35.0002C5.83331 18.8919 18.8917 5.8335 35 5.8335C51.1083 5.8335 64.1667 18.8919 64.1667 35.0002ZM26.1614 26.1616C27.0157 25.3074 28.4007 25.3074 29.255 26.1616L34.9999 31.9065L40.7447 26.1617C41.599 25.3074 42.9841 25.3074 43.8383 26.1617C44.6926 27.016 44.6926 28.401 43.8383 29.2553L38.0935 35.0001L43.8383 40.7449C44.6925 41.5992 44.6925 42.9842 43.8383 43.8385C42.984 44.6928 41.5989 44.6928 40.7447 43.8385L34.9999 38.0937L29.2551 43.8386C28.4008 44.6928 27.0157 44.6928 26.1615 43.8386C25.3072 42.9843 25.3072 41.5993 26.1615 40.745L31.9063 35.0001L26.1614 29.2552C25.3071 28.401 25.3071 27.0159 26.1614 26.1616Z" fill="white"/>
</g>
</g>
<defs>
<filter id="filter0_d_467_2751" x="-29.1667" y="-26.1665" width="128.333" height="128.333" filterUnits="userSpaceOnUse" color-interpolation-filters="sRGB">
<feFlood flood-opacity="0" result="BackgroundImageFix"/>
<feColorMatrix in="SourceAlpha" type="matrix" values="0 0 0 0 0 0 0 0 0 0 0 0 0 0 0 0 0 0 127 0" result="hardAlpha"/>
<feOffset dy="3"/>
<feGaussianBlur stdDeviation="17.5"/>
<feComposite in2="hardAlpha" operator="out"/>
<feColorMatrix type="matrix" values="0 0 0 0 0 0 0 0 0 0 0 0 0 0 0 0 0 0 0.04 0"/>
<feBlend mode="normal" in2="BackgroundImageFix" result="effect1_dropShadow_467_2751"/>
<feBlend mode="normal" in="SourceGraphic" in2="effect1_dropShadow_467_2751" result="shape"/>
</filter>
<clipPath id="clip0_467_2751">
<rect width="70" height="70" fill="white"/>
</clipPath>
</defs>
</svg>
