<svg width="250" height="156" viewBox="0 0 250 156" fill="none" xmlns="http://www.w3.org/2000/svg">
<g clip-path="url(#clip0_1410_1042)">
<path d="M235.639 155.421H14.3611C6.43056 155.421 0 148.993 0 141.066V14.7753C0 6.84846 6.43056 0.420898 14.3611 0.420898H235.639C243.569 0.420898 250 6.84846 250 14.7753V141.064C250 148.993 243.569 155.421 235.639 155.421Z" fill="#363B38"/>
<path d="M235.638 0.420898H231.738V65.7543C231.738 110.236 195.663 146.295 151.16 146.295H1.01562C3.11007 151.631 8.27951 155.421 14.3601 155.421H235.638C243.568 155.421 249.999 148.993 249.999 141.066V14.7753C249.999 6.84846 243.568 0.420898 235.638 0.420898Z" fill="#2E322F"/>
<path d="M52.6995 50.9114H22.03C18.7717 50.9114 16.1328 48.2709 16.1328 45.0169V28.5107C16.1328 25.2539 18.7745 22.6162 22.03 22.6162H52.6995C55.9578 22.6162 58.5967 25.2566 58.5967 28.5107V45.0169C58.5967 48.2709 55.9578 50.9114 52.6995 50.9114Z" fill="#EAA500"/>
<path d="M55.239 81.0191H19.4973C17.7834 81.0191 16.3945 79.6336 16.3945 77.9177C16.3945 76.2019 17.7834 74.8164 19.4973 74.8164H55.2418C56.9556 74.8164 58.3445 76.2019 58.3445 77.9177C58.3445 79.6336 56.9529 81.0191 55.239 81.0191Z" fill="#545C56"/>
<path d="M107.458 81.0191H71.7161C70.0022 81.0191 68.6133 79.6336 68.6133 77.9177C68.6133 76.2019 70.0022 74.8164 71.7161 74.8164H107.461C109.174 74.8164 110.563 76.2019 110.563 77.9177C110.563 79.6336 109.172 81.0191 107.458 81.0191Z" fill="#545C56"/>
<path d="M159.678 81.0191H123.931C122.217 81.0191 120.828 79.6336 120.828 77.9177C120.828 76.2019 122.214 74.8164 123.931 74.8164H159.678C161.392 74.8164 162.781 76.2019 162.781 77.9177C162.781 79.6336 161.392 81.0191 159.678 81.0191Z" fill="#545C56"/>
<path d="M211.897 81.0191H176.15C174.436 81.0191 173.047 79.6336 173.047 77.9177C173.047 76.2019 174.433 74.8164 176.15 74.8164H211.897C213.611 74.8164 215 76.2019 215 77.9177C215 79.6336 213.611 81.0191 211.897 81.0191Z" fill="#545C56"/>
<path d="M86.2584 133.725H19.4973C17.7834 133.725 16.3945 132.34 16.3945 130.624C16.3945 128.911 17.7834 127.522 19.4973 127.522H86.2584C87.9723 127.522 89.3612 128.908 89.3612 130.624C89.3612 132.34 87.9723 133.725 86.2584 133.725Z" fill="#545C56"/>
<path d="M86.2553 115.124H62.9192C61.2053 115.124 59.8164 113.738 59.8164 112.022C59.8164 110.306 61.2053 108.921 62.9192 108.921H86.2553C87.9692 108.921 89.3581 110.306 89.3581 112.022C89.3581 113.738 87.9692 115.124 86.2553 115.124Z" fill="#545C56"/>
<path d="M204.605 106.954C200.216 106.954 196.344 108.992 193.749 112.124C191.152 108.992 187.28 106.954 182.894 106.954C175.077 106.954 168.738 113.29 168.738 121.103C168.738 128.916 175.077 135.252 182.894 135.252C187.283 135.252 191.155 133.214 193.749 130.082C196.347 133.214 200.219 135.252 204.605 135.252C212.422 135.252 218.761 128.916 218.761 121.103C218.761 113.287 212.422 106.954 204.605 106.954Z" fill="#545C56"/>
<path d="M196.301 132.476C198.629 134.203 201.481 135.25 204.606 135.25C212.423 135.25 218.762 128.914 218.762 121.101C218.762 118.147 217.851 115.409 216.304 113.141C210.804 120.682 204.04 127.237 196.301 132.476Z" fill="#494F4A"/>
</g>
<defs>
<clipPath id="clip0_1410_1042">
<rect width="250" height="156" fill="white"/>
</clipPath>
</defs>
</svg>
