<svg width="20" height="20" viewBox="0 0 20 20" fill="none" xmlns="http://www.w3.org/2000/svg">
<path d="M2.5 5.32148C2.5 4.91777 2.78782 4.59049 3.14286 4.59049L5.36306 4.5901C5.80419 4.57739 6.19335 4.25845 6.34345 3.7866C6.3474 3.7742 6.35193 3.75889 6.36821 3.70337L6.46388 3.37697C6.52242 3.17684 6.57342 3.00249 6.64479 2.84665C6.92674 2.23097 7.4484 1.80344 8.05122 1.69398C8.20381 1.66627 8.3654 1.66639 8.55088 1.66652H11.4493C11.6347 1.66639 11.7963 1.66627 11.9489 1.69398C12.5517 1.80344 13.0734 2.23097 13.3554 2.84665C13.4267 3.00249 13.4777 3.17684 13.5363 3.37697L13.6319 3.70337C13.6482 3.75889 13.6527 3.7742 13.6567 3.7866C13.8068 4.25845 14.2732 4.57778 14.7143 4.59049H16.8571C17.2122 4.59049 17.5 4.91777 17.5 5.32148C17.5 5.7252 17.2122 6.05247 16.8571 6.05247H3.14286C2.78782 6.05247 2.5 5.7252 2.5 5.32148Z" fill="#373533"/>
<path fill-rule="evenodd" clip-rule="evenodd" d="M9.663 18.3333H10.337C12.6559 18.3333 13.8154 18.3333 14.5693 17.595C15.3231 16.8567 15.4003 15.6457 15.5545 13.2237L15.7768 9.73378C15.8605 8.41962 15.9023 7.76254 15.5241 7.34615C15.1459 6.92977 14.5073 6.92977 13.23 6.92977H6.77004C5.49272 6.92977 4.85407 6.92977 4.47588 7.34615C4.09769 7.76254 4.13953 8.41962 4.22323 9.73378L4.44549 13.2237C4.59975 15.6457 4.67687 16.8567 5.43074 17.595C6.18461 18.3333 7.34407 18.3333 9.663 18.3333ZM8.53856 10.157C8.50422 9.79547 8.19794 9.53169 7.85448 9.56784C7.51101 9.604 7.26042 9.92639 7.29477 10.2879L7.71143 14.6739C7.74578 15.0354 8.05206 15.2992 8.39552 15.2631C8.73899 15.2269 8.98958 14.9045 8.95523 14.543L8.53856 10.157ZM12.1455 9.56784C12.489 9.604 12.7396 9.92639 12.7052 10.2879L12.2886 14.6739C12.2542 15.0354 11.9479 15.2992 11.6045 15.2631C11.261 15.2269 11.0104 14.9045 11.0448 14.543L11.4614 10.157C11.4958 9.79547 11.8021 9.53169 12.1455 9.56784Z" fill="#373533"/>
</svg>
