<svg width="25" height="25" viewBox="0 0 25 25" fill="none" xmlns="http://www.w3.org/2000/svg">
<path fill-rule="evenodd" clip-rule="evenodd" d="M1.67425 6.334C2.20304 6.10738 2.81541 6.35233 3.04203 6.88111L2.08459 7.29145C3.04203 6.88111 3.04218 6.88145 3.04203 6.88111L3.04149 6.87986C3.04141 6.87968 3.0412 6.87919 3.04149 6.87986L3.04557 6.8891C3.04975 6.89849 3.05692 6.91444 3.06712 6.93653C3.08753 6.98072 3.12002 7.04934 3.1648 7.13891C3.25445 7.31821 3.3929 7.58046 3.5819 7.89797C3.96106 8.53497 4.53712 9.38336 5.32187 10.2285C5.50684 10.4277 5.70259 10.6259 5.90935 10.8207C5.918 10.8285 5.92654 10.8365 5.93498 10.8447C7.48153 12.2929 9.63908 13.5414 12.5013 13.5414C13.7606 13.5414 14.8746 13.301 15.8564 12.9146C17.1335 12.4119 18.2039 11.6551 19.08 10.8328C20.0692 9.90434 20.7958 8.90607 21.2755 8.13623C21.5144 7.75281 21.6895 7.43017 21.8032 7.20716C21.86 7.09577 21.9014 7.0096 21.9275 6.95354C21.9406 6.92552 21.9498 6.90506 21.9553 6.89277L21.9605 6.88111C22.1872 6.35262 22.7996 6.10744 23.3283 6.334C23.857 6.56062 24.102 7.173 23.8754 7.70178L22.9179 7.29145C23.8754 7.70178 23.8755 7.70154 23.8754 7.70178L23.8731 7.70701L23.8694 7.71557L23.8575 7.74249C23.8475 7.76471 23.8336 7.79538 23.8157 7.83385C23.7798 7.91079 23.7278 8.0191 23.6591 8.15367C23.522 8.42258 23.3179 8.79777 23.0436 9.23798C22.6242 9.91106 22.0347 10.7458 21.2613 11.5876L22.092 12.4182C22.4988 12.825 22.4988 13.4846 22.092 13.8914C21.6852 14.2982 21.0256 14.2982 20.6188 13.8914L19.7437 13.0162C19.1559 13.4909 18.4981 13.9387 17.7677 14.325L18.5827 15.5775C18.8965 16.0597 18.7599 16.705 18.2777 17.0187C17.7955 17.3325 17.1502 17.1959 16.8365 16.7137L15.81 15.1361C15.1027 15.3529 14.3471 15.5066 13.5429 15.5786V17.1873C13.5429 17.7626 13.0766 18.2289 12.5013 18.2289C11.926 18.2289 11.4596 17.7626 11.4596 17.1873V15.5787C10.6527 15.5067 9.89728 15.3527 9.19228 15.1365L8.16603 16.7137C7.85227 17.1959 7.20701 17.3325 6.72481 17.0187C6.2426 16.705 6.10605 16.0597 6.41981 15.5775L7.23482 14.3249C6.50552 13.939 5.84761 13.4912 5.25907 13.016L4.38366 13.8914C3.97686 14.2982 3.31731 14.2982 2.91052 13.8914C2.50372 13.4846 2.50372 12.825 2.91052 12.4182L3.74119 11.5876C2.86098 10.6295 2.21767 9.67919 1.7917 8.96356C1.5738 8.59748 1.41114 8.29007 1.30141 8.07061C1.24651 7.96079 1.20473 7.87276 1.1758 7.81014C1.16134 7.77882 1.15007 7.75383 1.14198 7.73563L1.1322 7.71345L1.12909 7.70628L1.12797 7.7037L1.12752 7.70265C1.12733 7.7022 1.12714 7.70178 2.08459 7.29145L1.12752 7.70265C0.900899 7.17387 1.14547 6.56062 1.67425 6.334Z" fill="#373533"/>
</svg>
