
    <svg viewBox="0 0 30 30" fill="none" xmlns="http://www.w3.org/2000/svg">
<path d="M19.4452 18.1846L18.8759 18.784C18.8759 18.784 17.5227 20.2087 13.8289 16.3199C10.1351 12.431 11.4884 11.0063 11.4884 11.0063L11.8469 10.6289C12.7301 9.69905 12.8134 8.20621 12.0428 7.11638L10.4666 4.88702C9.51286 3.53812 7.66995 3.35994 6.57681 4.5108L4.61481 6.57642C4.07279 7.14707 3.70956 7.88681 3.75361 8.70742C3.86629 10.8068 4.76339 15.3238 9.7692 20.594C15.0777 26.1828 20.0585 26.4049 22.0953 26.2039C22.7396 26.1403 23.2999 25.7928 23.7514 25.3175L25.5271 23.448C26.7257 22.1861 26.3878 20.0227 24.8542 19.14L22.466 17.7654C21.4591 17.1858 20.2322 17.3561 19.4452 18.1846Z" fill="#252321"/>
<path d="M16.5744 2.35009C16.6571 1.83898 17.1403 1.49226 17.6514 1.57501C17.683 1.58107 17.7848 1.60009 17.8382 1.61197C17.9448 1.63572 18.0936 1.6723 18.2791 1.72633C18.6501 1.83438 19.1683 2.01239 19.7904 2.29756C21.0357 2.8685 22.693 3.86726 24.4127 5.58701C26.1325 7.30676 27.1312 8.96402 27.7022 10.2094C27.9873 10.8314 28.1654 11.3496 28.2734 11.7206C28.3274 11.9061 28.364 12.0549 28.3878 12.1616C28.3996 12.2149 28.4083 12.2577 28.4144 12.2894L28.4216 12.3284C28.5043 12.8395 28.1608 13.3426 27.6496 13.4254C27.14 13.5079 26.6599 13.1628 26.5751 12.6541C26.5725 12.6405 26.5653 12.6038 26.5576 12.5692C26.5422 12.4999 26.5155 12.3902 26.4732 12.245C26.3886 11.9545 26.2417 11.5229 25.9978 10.9908C25.5105 9.9279 24.6342 8.46016 23.0869 6.91283C21.5396 5.36551 20.0718 4.48926 19.009 4.00197C18.4769 3.75803 18.0452 3.61111 17.7548 3.52652C17.6096 3.48423 17.4271 3.44234 17.3579 3.42692C16.8491 3.34215 16.4918 2.85975 16.5744 2.35009Z" fill="url(#paint0_linear_295_391)"/>
<path fill-rule="evenodd" clip-rule="evenodd" d="M16.8572 6.66193C16.9994 6.16408 17.5183 5.87581 18.0161 6.01805L17.7586 6.91948C18.0162 6.01805 18.0161 6.01805 18.0161 6.01805L18.018 6.01856L18.0199 6.01912L18.024 6.02034L18.0337 6.02323L18.0585 6.03093C18.0773 6.03696 18.1008 6.04481 18.1289 6.05477C18.185 6.07469 18.2592 6.10302 18.3503 6.14202C18.5324 6.22007 18.7812 6.34059 19.0868 6.52148C19.6987 6.88359 20.5339 7.48506 21.5151 8.46627C22.4963 9.44749 23.0978 10.2827 23.4599 10.8946C23.6408 11.2002 23.7613 11.449 23.8394 11.6311C23.8784 11.7221 23.9067 11.7963 23.9266 11.8525C23.9366 11.8805 23.9444 11.9041 23.9504 11.9229L23.9582 11.9477L23.961 11.9573L23.9623 11.9615L23.9628 11.9634C23.9628 11.9634 23.9633 11.9652 23.0619 12.2228L23.9633 11.9652C24.1056 12.4631 23.8173 12.982 23.3195 13.1242C22.8258 13.2652 22.3115 12.983 22.1642 12.493L22.1596 12.4795C22.1529 12.4607 22.1391 12.4237 22.116 12.3697C22.0697 12.2618 21.9858 12.0853 21.8463 11.8495C21.5676 11.3786 21.0642 10.667 20.1893 9.7921C19.3143 8.91716 18.6028 8.41378 18.1318 8.13506C17.8961 7.99554 17.7196 7.91167 17.6117 7.86542C17.5576 7.84228 17.5207 7.82849 17.5019 7.82182L17.4884 7.8172C16.9983 7.66985 16.7161 7.15554 16.8572 6.66193Z" fill="url(#paint1_linear_295_391)"/>
<defs>
<linearGradient id="paint0_linear_295_391" x1="15" y1="4.49982" x2="30" y2="14.4998" gradientUnits="userSpaceOnUse">
<stop stop-color="#F17D38"/>
<stop offset="1" stop-color="#EA5230"/>
</linearGradient>
<linearGradient id="paint1_linear_295_391" x1="15" y1="4.49982" x2="30" y2="14.4998" gradientUnits="userSpaceOnUse">
<stop stop-color="#F17D38"/>
<stop offset="1" stop-color="#EA5230"/>
</linearGradient>
</defs>
</svg>

