
    <svg width="40" height="40" viewBox="0 0 40 40" fill="none" xmlns="http://www.w3.org/2000/svg">
<path d="M11.6666 8.3335C7.06421 8.3335 3.33325 12.0645 3.33325 16.6668C3.33325 20.084 5.39008 23.0208 8.33325 24.3068V28.7502H31.6666L31.6666 24.3068C34.6098 23.0208 36.6666 20.084 36.6666 16.6668C36.6666 12.0645 32.9356 8.3335 28.3333 8.3335C27.9157 8.3335 27.5054 8.3642 27.1043 8.42348C26.1006 5.46359 23.299 3.3335 19.9999 3.3335C16.7008 3.3335 13.8993 5.46359 12.8955 8.42348C12.4945 8.3642 12.0841 8.3335 11.6666 8.3335Z" fill="url(#paint0_linear_211_2960)"/>
<path d="M31.6638 31.2502H8.33607C8.35306 33.5784 8.4723 34.8533 9.30956 35.6905C10.2859 36.6668 11.8572 36.6668 14.9999 36.6668H24.9999C28.1426 36.6668 29.714 36.6668 30.6903 35.6905C31.5275 34.8533 31.6468 33.5784 31.6638 31.2502Z" fill="url(#paint1_linear_211_2960)"/>
<defs>
<linearGradient id="paint0_linear_211_2960" x1="19.9999" y1="3.3335" x2="19.9999" y2="36.6668" gradientUnits="userSpaceOnUse">
<stop stop-color="#F4973C"/>
<stop offset="1" stop-color="#EA5430"/>
</linearGradient>
<linearGradient id="paint1_linear_211_2960" x1="19.9999" y1="3.3335" x2="19.9999" y2="36.6668" gradientUnits="userSpaceOnUse">
<stop stop-color="#F4973C"/>
<stop offset="1" stop-color="#EA5430"/>
</linearGradient>
</defs>
</svg>

