<svg width="29" height="20" viewBox="0 0 29 20" fill="none" xmlns="http://www.w3.org/2000/svg">
<path d="M15.7951 19.5C5.88695 19.5 0.235478 12.3679 0 0.5H4.96315C5.12617 9.21071 8.78514 12.9004 11.6833 13.6612V0.5H16.3567V8.01251C19.2186 7.68919 22.2255 4.26577 23.2399 0.5H27.9132C27.5309 2.45303 26.769 4.30224 25.675 5.93197C24.581 7.56169 23.1786 8.93686 21.5553 9.97147C23.3672 10.9168 24.9677 12.2549 26.2509 13.8974C27.5342 15.5398 28.4712 17.4494 29 19.5H23.8557C23.381 17.7189 22.4162 16.1245 21.0822 14.9167C19.7482 13.7089 18.1043 12.9413 16.3567 12.7102V19.5H15.7951Z" fill="#6B78EE"/>
</svg>
